<?xml version="1.0" encoding="utf-8"?>
<!-- Generator: Adobe Illustrator 24.1.2, SVG Export Plug-In . SVG Version: 6.00 Build 0)  -->
<svg version="1.1" id="Layer_1" xmlns:xodm="http://www.corel.com/coreldraw/odm/2003"
	 xmlns="http://www.w3.org/2000/svg" xmlns:xlink="http://www.w3.org/1999/xlink" x="0px" y="0px" viewBox="0 0 200 17.1"
	 style="enable-background:new 0 0 200 17.1;" xml:space="preserve">
<style type="text/css">
	.st0{fill-rule:evenodd;clip-rule:evenodd;fill:#FEFEFE;}
</style>
<g id="Layer_x0020_1">
	<path class="st0" d="M138.9,0c4.8,0,8.7,3.8,8.7,8.6c0,4.7-3.9,8.6-8.7,8.6s-8.7-3.8-8.7-8.6C130.2,3.8,134.1,0,138.9,0z M104.7,0
		h7.3c2.8,0,5.1,3.1,5.1,5s-0.3,2.1-0.9,2.9c1.4,0.9,2.4,2,2.4,4.2c0,2.3-2.3,5-5.1,5h-8.7v-2.9c2.9,0,5.8,0,8.7,0
		c1.2,0,2.2-1,2.2-2.1c0-1.2-1-2.1-2.2-2.1h-8.7C104.7,10,104.7,0,104.7,0z M112,2.9h-4.4v4.3h4.4c1.2,0,2.2-1,2.2-2.1
		C114.2,3.8,113.2,2.9,112,2.9z M191.3,6.6l5.4,10.5h3.4L191.3,0l-8.7,17.1h3.4L191.3,6.6L191.3,6.6z M159.3,0h2.9v14.3h8.7v2.9
		h-11.6V0L159.3,0z M84.4,6.6l5.4,10.5h3.4L84.4,0l-8.7,17.1H79C79,17.1,84.4,6.6,84.4,6.6z M0,17.1h2.9v-5.7h2.9
		c3.2,0,5.8-2.6,5.8-5.7C11.6,2.6,9,0,5.8,0H0V17.1z M5.8,8.6H2.9V2.9h2.9c1.6,0,2.9,1.3,2.9,2.9S7.4,8.6,5.8,8.6z M58.2,0
		C61.4,0,64,2.6,64,5.7c0,2.7-1.9,5-4.5,5.6l3.4,5.8h-3.4l-5-8.6h3.7c1.6,0,2.9-1.3,2.9-2.9s-1.3-2.9-2.9-2.9h-7L49.5,0
		C49.5,0,58.2,0,58.2,0z M32,6.6l5.4,10.5h3.4L32,0l-8.7,17.1h3.4C26.6,17.1,32,6.6,32,6.6z M138.9,2.9c3.2,0,5.8,2.6,5.8,5.7
		c0,3.2-2.6,5.7-5.8,5.7c-3.2,0-5.8-2.6-5.8-5.7C133.1,5.4,135.7,2.9,138.9,2.9z"/>
</g>
</svg>
