<?xml version="1.0" encoding="utf-8"?>
<!-- Generator: Adobe Illustrator 24.1.2, SVG Export Plug-In . SVG Version: 6.00 Build 0)  -->
<svg version="1.1" id="Layer_2" xmlns="http://www.w3.org/2000/svg" xmlns:xlink="http://www.w3.org/1999/xlink" x="0px" y="0px"
	 viewBox="0 0 500 230" style="enable-background:new 0 0 500 230;" xml:space="preserve">
<style type="text/css">
	.st0{fill:url(#SVGID_1_);}
</style>
<g>
	<g>
		<linearGradient id="SVGID_1_" gradientUnits="userSpaceOnUse" x1="167.0692" y1="254.5306" x2="343.6129" y2="-51.2521">
			<stop  offset="0" style="stop-color:#FF497C"/>
			<stop  offset="1" style="stop-color:#F1894C"/>
		</linearGradient>
		<path class="st0" d="M498.1,199.3c-1-0.2-1-1-1.1-1.8c-0.2-0.5-0.6-0.7-0.6-1.1c-0.1-0.9,0.7-2.5-0.8-2.4
			c-1.3,0.1-0.5,2.4-0.6,3.5c-0.4,2.4-2.5,3.2-3.8,4.4c0,0.7,0.6,0.7,0.6,1.4c-0.2,0.9-1.4,0.9-1.5,2c0.8,0.6,1.7-0.3,2.4-0.7
			c0.7-0.4,1.5-0.9,2.2-1.4s1.1-1.4,1.9-1.7c0.4-0.2,0.9-0.1,1.3-0.3c0.8-0.4,1.5-1.2,1.8-2C499.4,198.7,498.7,199.3,498.1,199.3z
			 M486.6,204.3c-1.3,0.8-2.4,1.8-3.7,2.7c-2.3,1.7-6.2,2.6-8.9,4c-0.8,0.4-2.4,1-3.2,1.6c-1.8,1.3,0.9,2.2,2.3,2.1
			c1.2-0.1,2.9-1.1,4-1.8c1.2-0.7,2.1-1.9,3.4-2.5c0.8-0.4,1.6-0.3,2.4-0.6c0.5-0.2,0.9-0.9,1.4-1.2c1.5-1.1,3.9-1.9,4.4-3.5
			C488.1,205,487,203.9,486.6,204.3z M469.9,143c1.8,0.2,2.6-0.7,2.7-2.1c-0.2,0-0.2-0.3-0.5-0.2c-0.9,0.7-4.7-0.2-4.4,1.2
			C467.7,142.3,469.1,142.9,469.9,143z M467.4,147.2c-0.4-1.6-2.3-1.5-2.3-3.2c0.1-0.7,1-0.7,1-1.4c-0.1-0.9-2.3-1.3-2.7-1.7
			c-0.5-0.4-0.5-1-0.8-1.4c-1.3-1.5-4-2-6.3-2.8c-0.7-0.3-1.3-0.7-2-0.9c-0.8-0.2-1.6-0.3-2.3-0.6c-0.9-0.4-1.5-1-2.3-1.1
			c-0.8,0-1.9,0.4-2.5,0.8c-0.9,0.5-1.5,2.1-2.5,2c-0.7,0-1.6-1.4-1.7-2c-0.1-0.4,0.1-0.9,0-1.3c-0.3-0.8-2.3-2.1-3.4-1.9
			c-1.2,0.2-1.7,1.9-1,3.1c0.3,0.5,1.1,0.7,1.3,1.2s0,0.8,0.1,1.1c0.8,1.7,3.9,1.2,5.9,2.3c0.5,0.3,0.9,0.9,1.4,1.2
			c0.4,0.3,1,0.3,1.4,0.7c0.5,0.4,1.3,1.7,1.2,2.5c-0.1,0.8-2,1.2-1.7,2.4c0.4,1.5,2.7-0.2,3.7-0.1c0.9,0.1,1.5,1.4,2.5,1.8
			c1,0.3,1.8,0,3.1,0.1c1.4-0.8,1.4-2.5,2.9-2.7c0.9-0.1,2.2,0.5,2.7,1c1,0.9,1.2,2.5,2.1,3.2c0.8,0.7,1.7,0.3,2.9,0.6
			c0.9,0.2,1.6,1,2.1,0.5C471.2,149.6,468.1,147.4,467.4,147.2z M444,204.9c-1.1-0.2-1.8-1-2.5,0.3c-0.3,0.5-0.9,2.7-0.8,3.2
			c0.3,1.7,3,0.5,3.9-0.1c1.2-0.9,2.1-2.2,2.4-3.4C446.1,204.2,445.1,205.1,444,204.9z M439.5,64.9c-0.1-0.5-0.5-1-0.6-1.4
			c-0.1-0.7,0.3-1.3,0.2-2c-0.2-1.7-2.5-3.4-4.2-3.6c-1.1,1.3,0.7,2.5,1,3.6c0.6,1.8-0.4,3.4-1.3,3.9c-0.4,0.2-0.8,0.1-1.2,0.4
			c-0.4,0.3-0.5,1.6-1.3,2c-1,0.4-2.3,0-3.6,0.3c-0.7,0.1-1.8,1.2-2.3,1.8c-0.4,0.5-1.8,1.6-1.8,2.3c0,0.6,0.9,1.1,1.5,1.9
			c0.5,0.6,1,1.7,1.8,1.6c1.2-0.2,0.2-2.4,1.2-3c1.7,0.6,2.4-1.7,3.8-1.7c0.5,0,0.9,0.6,1.5,0.5c0.7-0.2,0.9-1.4,1.6-1.7
			c1.5-0.7,3.6-0.2,4.7-1.5C440.2,67.2,439.9,66.1,439.5,64.9z M432.3,55.6c0,0.9,1.3,1.7,2.1,1.9c0.3-0.8-0.2-1.5,0.7-1.7
			c0.8-0.2,1.6,0.7,2.4,0.6c0.4-0.1,0.9-1,1.3-1.3c0.4-0.3,0.9-0.2,1.1-0.7c-0.1-1.3-1.2-1.2-2.6-1.4c-2.1-0.3-4-2.1-4.9-1.9
			c0,0.1-0.1,0.1-0.1,0.3c0.4,1,1.2,1.6,0.9,2.7C433,54.7,432.3,55,432.3,55.6z M435,152.3c0.1,0.5,1.5,0.6,1.4-0.2
			C436.2,151.5,434.9,151.7,435,152.3z M431.2,49c1.7-1.1-0.6-2.2-1.6-2.7C429.2,47.4,430.3,48.6,431.2,49z M423.7,149.9
			c1.2-0.1,2-1,2.9-1.6c0.9-0.5,2.4-0.5,2.8-1.7c-1.9-0.6-3.1,0.7-4.2,1.3c-0.8,0.4-1.8,0.6-1.9,1.6
			C423.5,149.6,423.6,149.7,423.7,149.9z M425.6,129.9c-0.8-0.4-1.9-0.1-3-0.1c-1,0-2.1-0.5-2.9-0.3c-0.9,0.1-1.8,0.9-1.8,1.7
			c0.6,0.2,0.8-0.2,1.3-0.3C421.7,130.5,425.5,132.3,425.6,129.9z M423,141.3c0.4-0.3,0.3-1.3,0.3-2c-0.9-1.1-1.2-2.8-2-4
			c0.5-1,2.3-1.2,2.2-2.5c-1.6-0.3-2.9,1.1-4.2,0.9c-0.3-0.1-1-1.2-1.5-1.2c-1.1,0-0.9,1.7-1.2,2.6c-0.2,0.6-1,1.2-0.9,1.8
			c0.1,0.7,1,0.9,1.2,1.8c0.2,1.1-0.8,2.4,0.2,2.7c2,0.6,0.6-4.1,2.1-4.4C420,138.2,421.1,141.7,423,141.3z M420,147.1
			c-0.2-0.8-2.2-1-2.5-0.3C417.7,147.5,419.6,147.8,420,147.1z M416.1,148.6c0.2,0.8,1,1,1.7,1.2c0.2-0.1,0.3-0.3,0.4-0.4
			C418.1,148.5,416.6,147.9,416.1,148.6z M412.5,146.5c-0.7,0.1-1.6-0.4-1.9,0.3c0.2,0.9,1.2,0.9,2.2,0.9c0.6-0.8,2.3,0,2.8-0.7
			C415.2,145.6,413.6,146.4,412.5,146.5z M467.9,174.8c-0.4-0.7-1-1.2-1.3-1.9c-0.2-0.5-0.2-1-0.3-1.3c-0.3-0.5-1.1-0.6-1.4-1.2
			c-0.1-0.2,0-0.7-0.1-1c-0.2-0.6-0.5-0.9-0.5-1.7c-1-1.3-2.4-1.2-3.2-2.4c-0.6-1-0.2-2-0.4-3.3c-0.1-0.7-0.7-1.4-0.8-2.2
			c0-0.4,0.3-1,0.2-1.5c-0.2-1.3-1.5-1.1-2.3-1.7c0.1-2-0.3-4.4-1.4-5.6c-1.1,0.5-1.6,2.3-2,3.6c-0.2,0.4-0.5,0.9-0.6,1.4
			c-0.3,1.4-0.4,3.1-1,4.5c-0.5,1.2-1.5,2.4-2.5,2.4c-0.8,0-1.3-0.9-1.9-1.3c-0.2-0.1-0.7-0.2-1-0.4c-0.3-0.2-0.8-0.8-1.5-1.2
			c-0.9-0.6-2.5-1.1-2.5-2.2c0-0.8,0.8-1,1.6-1.3c0.3-0.5,0-0.8,0.1-1.2c0.2-0.6,1-1.1,0.9-1.7c-0.2-1.4-1.9-0.4-2.8-0.4
			c-1.7,0-3.6-1.5-4.7-1.6c-0.5,0.3,0.1,0.7,0,1.3c-0.5,0.9-1.6,0.3-2.6,0.5c-1.2,0.3-1.7,1.6-2.4,2.6c-0.4,0.6-1,1.8-1.5,1.9
			c-1.5,0.4-2.1-1.5-3.5-1.6c-0.3,0-1.1,0.2-1.5,0.4c-0.7,0.3-1.7,1-2.2,1.4c-0.7,0.6-0.8,1.6-1.5,2.2c-0.3,0.3-1.3,0.8-1.7,0.9
			c-0.5,0.1-0.9-0.1-1.3,0.1c-0.9,0.4-0.8,1.2-1.2,2.3c-0.4,0.9-1.7,2.3-2.7,2.9c-0.9,0.5-1.9,0.4-3.1,0.7c-1.2,0.3-2.3,1-3.2,1.2
			c-0.3,0-0.8-0.1-1.2,0c-1.4,0.2-2.6,1.6-4.1,2.3c-0.4,0.2-1.4,0.6-1.7,1c-0.2,0.3-0.2,1.1-0.4,1.6c-0.4,1-1,1.3-1,2.1
			c0,1.1,0.7,1.2,0.4,2.1c-0.2,0.6-1,0.7-1.1,1.3c-0.1,0.3,0.2,0.8,0.3,1.4c0,0.5,0,0.9,0,1.2c0.2,0.9,0.7,1.6,0.7,2.5
			c0,0.6-0.4,1.3-0.3,2c0,0.8,0.4,1.6,0.4,2.2c-0.1,0.8-0.7,2.1-1.1,2.7c-0.3,0.5-1.4,1-1.4,1.7c0,0.9,1.1,1.2,1.7,1.7
			c3.2,0.5,4.4-1.2,6.4-1.8c2.1-0.6,4.1,0,6.1-0.2c1.2-1,3.4-2.6,5.3-2.9c0.5-0.1,1.2,0.1,1.8,0c2.3-0.3,4.2-1.9,7.2-1.4
			c0.7,0.2,2.7,0.9,3.3,1.3c0.5,0.3,1.5,2.3,1.6,2.8c0.1,0.6-0.5,1.3,0.3,1.6c0.8,0.2,1.3-0.8,2-1.2c0.6-0.4,1.3-0.6,1.9-0.8
			c-0.3,0.3-0.4,0.7-0.4,1.3c0.7,0.4,0.7,1.2,0.5,1.9c0.3,0.6,1.1,0.8,1.1,1.5s-0.6,1.1-0.5,1.9c0.2,1.5,1.7,1.5,3.1,1.9
			c0.6,0.2,0.8,0.5,1.3,0.5c1.1,0,1.7-0.7,2.5-0.6c0.7,0.1,1.4,1,2.1,1s1.7-1,3.1-1.6c0.9-0.4,1.8-0.3,2.8-0.4
			c1.7-0.2,2.2-2.1,3.2-3.2c0.7-0.8,1.7-1.5,2.6-2.4c0.8-0.9,1.6-1.8,2.5-2.6c0.6-0.5,1.3-0.8,1.9-1.3c1-0.9,2-2.2,2.7-3.4
			c0.9-1.5,2-2.6,2.4-3.8c0.4-1,0.2-2.2,0.4-3.2c0.2-0.8,0.9-1.4,0.7-2.4C469,176.2,468.3,175.5,467.9,174.8z M405.8,146.7
			c1.1,0.2,2.4,0.8,3.2-0.1c-0.6-1.1-2.5-1-3.6-1.6c0-0.5,0.2-0.8-0.1-1.1c-1.4,0.1-2.5-0.7-3.6-0.7c-0.5,0-0.9,0.4-1.4,0.5
			c-2.2,0.4-3.3-1.2-5-1.5c-1.3-0.1-2.8,0.1-2.8,1c0,0.8,3.2,2.1,4.1,2.2c0.7,0.1,1.5-0.1,2.3,0c1.2,0.2,2.5,0.9,3.8,1.1
			C403.8,146.6,404.8,146.6,405.8,146.7z M413.9,120.7c-0.1-0.8-1.4-2.7-2.3-1.7c-1,1.2-1,2.5-2.3,3.5c-0.4,0.4-1,0.4-1.6,0.8
			c-0.6,0.3-0.9,1.1-1.3,1.6c-0.4,0.5-0.9,1.1-1.5,1.3c-0.6,0.2-1.4,0.1-1.8,0.4c-0.7,0.5-0.6,1.7-1.5,1.9c-0.4,0.1-1.1-0.4-1.8-0.3
			c-1.7,0.2-1.4,3.2-0.8,4.5c0.4,0.9,1.2,1.2,1.4,1.9c0.2,0.6,0.1,1.8,0.8,2.2c0.3,0.2,1,0.1,1.7,0.3c0.6,0.2,1,0.5,1.4,0.4
			c0.5,0,1.1-0.3,1.6-0.3c1.4,0.1,2.2,1.2,3,1.3c0.8,0.1,1.5-0.5,2.1-0.5c1-0.9,0.5-2.4,0.9-3.5c0.3-0.9,1.4-1.1,1.8-1.9
			c0.1-1.1-0.2-1.1,0.1-1.8s1.7-0.7,1.8-1.4c0-0.3-0.8-0.9-1.1-1.5c-0.3-0.5-0.5-1.2-0.6-1.6c-0.4-2.4,1.2-2.5,1.8-4.2
			C415.3,121.5,414.4,121.3,413.9,120.7z M396.7,138.8c2.4,0,2.4-3.8,0-3.8S394.3,138.8,396.7,138.8z M393.1,137.9
			c0.2-0.9,1.3-0.8,1.3-1.5c0.1-0.4-1-1.9-1.3-1.9c-0.7-0.1-0.7,0.9-1.4,0.8c-0.7-0.1-0.8-0.9-1.3-1.4c-0.4-0.5-1.1-0.7-1.2-1.2
			c-0.1-0.2,0.2-0.8,0.1-1.2c-0.3-1.5-2.3-2.2-3.4-2.9c-0.8-0.6-1.7-0.8-2.3-1.2c-0.4-0.2-0.8-0.9-1.4-1.4c-0.5-0.5-1.2-0.8-1.7-1.2
			c-0.9-0.7-1.5-2.1-2.4-2.4c-0.4-0.1-1.1,0-1.7-0.1c-0.9-0.2-1.4-1-1.9-0.4c0.2,2.1,2.5,2.9,3.7,4.3c0.3,0.4,0.5,0.9,0.8,1.2
			c0.4,0.4,1.1,0.7,1.5,1.3c0.5,0.6,0.5,1.5,0.9,2.2c0.5,0.8,1.4,1.3,1.9,2.1c0.5,0.9,0.7,1.9,1.2,2.8c0.3,0.6,1,1.1,1.5,1.7
			c1.5,1.6,2.9,3.1,4.6,4.3c0.7,0,1.5,0.1,1.9-0.2C393.3,140.9,392.6,139.3,393.1,137.9z M347.7,114.3c-0.2,0-0.3,0.1-0.3,0.3
			c-0.5,1.8-0.9,6,1,6.3c0.9,0.1,1.9-0.6,2.1-1.1C351.3,117.9,348.5,114.6,347.7,114.3z M293,153.9c-0.5,0.3-0.4,1-0.7,1.3
			c-0.4,0.4-0.9,0.5-1.2,0.8c-0.4,0.4-0.4,1.1-0.9,1.7c-0.5,0.7-1.6,1.3-2.3,1.7c-0.9,0.5-2.1,0.4-3,1.1c-0.7,0.5-1.2,1.7-1.3,2.5
			c-0.1,1.2,0.6,2.4,0.7,3.7c-0.1,1.6-2,2.5-2.2,4.5c-0.1,0.9,0.4,1.5,0.5,2.3c0.1,0.6-0.1,1.2,0.1,1.7c0.3,1,1.3,1.9,2.5,1.9
			c0.5,0,2.2-0.4,2.7-0.7c1.2-0.7,1.5-3.3,2.2-4.9c0.2-0.4,0.6-0.7,0.8-1.2c0.5-1.3,0.9-2.9,1.5-4.4c0.7-1.8,1.5-3.6,1.6-5.7
			c0.2-0.5,1.1-0.6,1.2-1.4c0-0.2-0.2-0.8-0.3-1.3C294.7,155.8,294.3,153.3,293,153.9z M376.4,105.3c0.3,0.7,0.5,1.2,0.8,1.8
			c0.3,0.5,0.7,1.1,0.9,1.7c0.2,0.7,0,1.6,0.1,2.3c0.1,0.4,0.3,0.8,0.3,1.1c0,1.5-0.5,3-0.4,4.3c0,0.9,1.2,1.3,1.9,1.9
			c0.8,0.8,1.8,2.2,2.1,3.1c0.3,1.1,0.3,2,0.6,2.9c0.2,0.4,0.5,0.8,0.8,1.2c0.9,1.4,1.5,2.1,2.8,2.9c0.8,0.5,1.6,1.1,2.5,1.3
			c0.9-1.3-0.7-2.2-1-3.4c-0.3-1.1,0.1-2.3-0.3-3.3c-0.4-0.9-2.2-2.5-3.2-3.2c-0.5-0.4-1.2-0.5-1.7-0.9c-0.6-0.6-0.7-1.9-1.4-3
			c-0.4-0.6-1.2-1.2-1.3-1.8c-0.3-1.5,0.7-2.6,0.9-3.9s0-2.2,0.8-2.2c0.5-0.1,0.9,0.9,1.4,1.2c0.8,0.5,1.8,0.6,2.5,1.3
			c0.5,0.5,0.8,1.4,1.5,2c0.9,0.7,2.2,1,2.5,1.7c0.2,0.5-0.2,1.6,0.5,1.8c1.8-0.2,2.3-2.1,3.3-2.7c1.4-0.8,3.1-1.1,3.8-2.6
			c0.5-5.8-2.4-7.2-5.1-9.6c-0.7-0.7-2.9-2.9-2.8-3.9c0-1.4,2.9-3.9,4.2-4c1.4-0.1,2.7,1.1,2.5,2.3c-0.1,0.7-1.6,1.2-1.5,2.3
			c0,1,1.2,1.4,1.8,1.3c0.7-0.1,1.8-1.3,1.7-2.5c-0.1-0.8-1.2-1.2-1.1-2c0.1-1.5,2.4-1.3,3.7-1.7c0.5-0.2,0.9-0.8,1.5-1
			c2.3-0.7,4.7-1.1,6.5-2.6c2.1-1.6,2.8-3.9,3.4-6.9c1.4-0.7,0.7-2.2,0.9-3.9c-0.2-0.7-1.3-0.6-1.5-1.3c0-0.5,0.3-0.7,0.2-1.2
			c-0.5-0.4-0.5-1.2-0.9-1.8c-0.2-0.3-0.9-0.6-1.3-1c-0.9-1-1.8-2.4-2.5-2.9c-0.8-0.6-1.8-0.7-1.8-1.6c0-1.6,2.6-2.4,3.1-3.6
			c-0.8-0.5-1.7-1-2.9-0.9c-0.7,0.1-1.1,0.8-1.8,0.8c-0.8,0-0.9-1-1.8-1.4c-1-0.5-2.2-0.2-2.1-1.3c0-0.6,1-0.7,1.5-1.1
			c0.8-0.6,1.7-2.6,3-2.5c1.7,0.2,0,2.3,1.4,3.1c0.9-0.1,1.3-1,2.3-1.2c1.4-0.3,3.2,0.2,3.6,1.2c0.3,0.7,0.1,1.6,0.9,2
			c1.2,0.7,2.2,0.1,2.8,1.1c0.2,0.4,0.1,0.9,0.3,1.2c0.3,0.6,0.9,0.9,1.1,1.6c0.3,0.9-0.1,2,1,2.3c1.2,0.4,3.9-0.9,4-1.9
			c0-0.7-0.8-2-1.3-2.7c-0.8-1.1-2.3-2.3-3.2-2.9c-0.6-0.4-1.9-0.6-1.9-1.5c-0.1-1,1.3-1.2,1.6-2.2c0.2-0.6-0.1-1-0.2-1.9
			c0.7-0.9,0.9-1.9,2.1-2c0.8,0,1.1,0.6,1.9,0.6c0.9,0,2.1-1,2.5-1.9c0.2-0.5,0.3-1.3,0.5-2c0.2-0.6,0.6-1.2,0.7-1.8
			c0.1-0.5-0.1-1.1-0.1-1.8c0-1,0.4-2,0.4-2.6c0-0.9-0.9-2.1-1.5-2.9c-0.3-0.4-2.2-2.2-1-2.7c0.6-0.2,1.6,0.9,1.9,1.2
			c0.6,0.7,1,1.2,1.4,1.7c1.1,1.3,1.5,2.8,3,3.4c0.4-0.4,0-0.8,0.2-1.4c0.1-0.4,0.6-0.6,0.5-1.1c0-0.5-1.4-1.5-1.8-1.9
			c-0.8-0.7-1.6-1.1-2.2-1.6c-1.6-1.4-2.3-3.2-4-3.7c-0.8,0.3-0.4,1-1.3,1c-0.5,0-1.5-0.7-2.1-1c-0.7-0.4-1.3-0.9-2.2-0.9
			c-0.4,0-1.2,0.7-1.8,0.7c-1,0-2.4-1.3-3.2-1.4c-0.5-0.1-0.7,0.2-1.1,0.1c-1.6-0.4,0.2-2.1,0.4-2.5s0.2-1,0.3-1.3
			c0.2-0.3,0.6-0.7,0.8-1.3c0.1-0.4,0.1-0.9,0.2-1.3c1.1-2.7,5.6-0.6,8.6-1.2c0.5-0.1,1.1-0.7,1.8-0.7c1.4,0,2.2,1.2,3.8,1.3
			c0.6,0,3.1-0.1,3.2-0.7c0-0.5-1.1-1-1.2-1.4c-0.3-1.4,0.8-2.5,1.5-2.7c2.9-0.7,3.1,1.8,4.9,1.6c0.6,0,1.3-0.7,1.4-1.3
			c0.1-0.4-0.5-1,0.1-1.3c0.7,0.2,2.1,1.6,2.1,2.3s-0.9,1.8-1,2.9c0,0.5,0.2,0.9,0.1,1.2c-0.2,0.7-1.3,1.1-1.3,1.6
			c0.4,3.2,3.6,5.1,5.6,6.7c2,1.5,3.7,3.1,5.5,4.3c0.4-0.2,0.8-0.6,0.9-1.1c0-0.5-0.5-1-0.5-1.6c0-0.5,0.3-0.9,0.3-1.3
			c-0.1-0.6-0.7-0.8-0.6-1.2c0.2-0.8,1-0.6,1-1.3c0-0.5-1.2-0.7-1.4-1.5c-0.1-0.5,0.3-0.6,0.2-1.3c-0.3-0.5-0.8-0.5-1.3-0.9
			s-0.9-1.2-1.6-1.5c-0.5-0.2-1.1,0-1.6-0.3c-0.8-0.5-0.6-1.7-0.9-2.6c0.7-1.3,2-0.5,3.1-0.7c0.4-0.1,0.8-0.7,1.3-0.8
			c1.3-0.2,2.6,0.8,3.5,0.6c0.7-0.1,1.2-1.7,1.9-2.3c0.6-0.5,2-1.4,2.9-1.5c0.6-0.1,1.3,0.4,2-0.1c-0.3-1.7-4.6-1.5-4.7-3.2
			c0-0.5,0.6-1.2,1.2-1.3c3.5-0.9,6.4,2.1,9.8,1.4c0.2-2.7-3.2-3.9-6.1-3.9c-0.5,0-0.9,0.2-1.4,0.2c-0.9-0.1-2.1-0.8-3.2-1.1
			c-1.9-0.5-4.3-0.8-6.1-1.3c-0.4-0.1-0.7-0.4-1-0.5c-0.4-0.1-0.8,0-1.2-0.1c-0.4-0.1-0.8-0.4-1.2-0.5c-0.9-0.1-1.7,0.2-2.6,0.3
			c-1.3,0.1-2.8,0-3.8-0.2c-1.3-0.3-2.3-1.2-3.4-1.3c-0.4,0-0.9,0.2-1.4,0.2c-0.8,0-1.6-0.5-2.1,0c-0.6,0.3,0.5,0.9-0.1,1.3
			c-1.4,0.2-2.9-1.3-3.9-1.3c-0.7,0-1.1,0.6-1.7,0.6c-0.4,0-0.8-0.2-1.2-0.2c-1.9-0.1-4.6,0.2-6.4,0c-1.3-0.1-1.7-1-2.9-1.5
			c-2.2-0.9-5-0.8-7.2-0.6c-1,0.1-2,0.3-3,0.2c-0.4-0.1-1-0.5-1.6-0.6c-1-0.2-2.1-0.1-2.7-0.3c-1-0.3-1.6-1.2-2.6-1.4
			c-0.9-0.1-1.8,0.1-2.8,0.1c-2.7-0.1-5.6-0.3-8.5-0.2c-0.5,0.4-0.4,1-1,1.3c-1.5,0.7-4.9-0.3-6.8,0.1c-0.6,0.3-0.6,1-1.2,1.1
			c-0.5,0.1-1.8-0.5-2.3-0.8s-0.8-1-1.4-1.4c-0.8-0.6-2-1.3-2.7-1.5c-1.3-0.3-3.2,0-4.8-0.1c-0.4,0-1-0.3-1.4-0.2
			c-0.8,0.2-1.6,1.1-2.6,1.1c-0.5,0-1-0.2-1.6-0.3c-0.4,0-0.9,0.1-1.3,0c-0.5-0.1-0.9-0.5-1.5-0.6c-1-0.2-2.5-0.2-3.6-0.2
			c-0.9,0-1.6,0.3-2.4,0.1c-1.2-0.3-1.7-1.2-2.7-1.5c0,0,0,0,0,0c-0.4,0.9-2,1.2-2.9,1.4c-0.2-0.6,0.5-0.7,0.9-0.9
			c0.6-0.4,1-0.8,1.9-0.8c-0.3-1.2-1.1-1-2.2-1.5c-0.4-0.2-0.8-0.5-1.1-0.6c-1.9-0.5-4,0.1-6-0.2c-0.6-0.1-1.2-0.9-1.9-1
			c-0.8-0.1-1.7,0.3-2.7,0.4c-1,0.1-2.1-0.2-2.9,0c-0.5,0.2-0.9,0.7-1.4,0.9c-0.5,0.2-1.1,0.4-1.7,0.4c-0.9,0-1.9-0.7-2.9-0.6
			c-1,0.1-2.2,1-3.4,1.2c-2,0.3-4,0.4-5.2,1.2c-0.4,0.5,0.5,0.8,0.1,1.3c-1.4,0.5-3.8-0.1-4.9,0.7c-0.3,0.5,0.5,1-0.1,1.4
			c-0.8-0.1-1-0.4-1.6-0.4c-1,0-1.6,1.5-2.4,1.5c-0.6,0-0.9-1.1-1.6-1.1c-0.8,0-1.1,1.7-1.8,1.7c-0.8,0.1-0.7-1.1-1.2-1.8
			c-0.8-1.1-3.6-1.1-4.4-0.3c-0.2,0.2-1.3,2.1-1.3,2.3c0,0.4,0.9,1.8,1.1,2c0.7,0.5,2.2,0.2,2.4,1.5c-2,0-4.1-1.1-6.3-1.4
			c-1.5-0.2-3-0.2-4.5-0.3c-0.4,0.5,1,1,0.4,1.6c-0.3,0.4-1.3-0.4-1.8-0.4c-0.7,0-1.4,0.5-2.3,0.6c-0.3,0.1-0.8-0.1-1.3,0
			c-0.5,0.1-1,0.4-1.4,0.3c-0.7-0.1-1.1-0.8-1.7-0.8c-0.4,0-1,0.5-1.6,0.6c-0.5,0.1-1,0-1.3,0.1c-0.4,0.1-0.9,0.6-1.4,0.8
			c-0.4,0.2-0.9,0.2-1.3,0.4c-0.9,0.4-1.1,1.2-2,1.3c-0.4,0-1.2-0.1-1.5-0.9c0-0.6,0.5-0.5,0.4-1.2c-0.3-0.5-2.1-0.8-2.4-0.1
			c-0.7,1,0.6,1.5,0.5,2.6c-0.2,0.1-0.3,0.2-0.4,0.4c-1.7-0.7-3.2,0.3-4.3,1c-0.2,0.5-0.1,1.3-0.6,1.4c-1.4,0.2-2.5-1-3.5-0.3
			c-0.1,0.9,1.3,0.4,1.1,1.4c-2.1,0.2-4.5-1.4-4.5-3.6c1.6-0.5,3.6,0.4,5.1,0.4c0.9,0,3.1-0.3,3-1.6c-0.1-1-2.5-1.5-3.6-1.9
			c-1.3-0.4-2.8-1.1-4.2-1.3c-0.4-0.1-0.9,0-1.3,0c-1.3-0.2-2.3-0.8-3.2-0.9c-0.6-0.1-1.2,0.2-1.6,0c-0.8-0.3-0.7-1-1.4-1.3
			c-1.2-0.6-2.7-0.1-4.2-0.1c-0.9,0-1.8-0.3-2.5-0.2c-0.5,0.1-0.9,0.3-1.3,0.3c-0.3,0-0.9-0.1-1.1-0.1c-0.5,0.1-1.1,0.7-1.7,0.9
			c-1,0.4-2.2,0.3-3.3,0.5c-1.1,0.2-1.9,1.4-2.9,1.5c-0.7,0.1-1.9-0.4-2.2,0.3c-0.2,0.6,0.6,0.8,0.3,1.3c-0.6,1.1-2.2,1.5-3,2.5
			c-0.2,0.3-0.3,0.8-0.5,1.1c-0.4,0.5-1,0.7-1.2,1.1c-0.4,0.6-0.3,1.1-0.8,1.4c-0.9,0.5-2.1,0.2-3,0.5c-0.5,0.2-0.8,0.8-1.3,1
			c-1.3,0.6-3,0.8-3.7,2.1c-0.2,1.1,0.3,1.9,0.4,2.7c0.1,0.5-0.1,1,0.1,1.5c0.3,0.9,1.6,1.8,2.8,1.8c1.8,0,3.2-2.3,4.7-2
			c0.8,0.1,0.8,1.3,1.2,1.9c0.3,0.6,1.8,1.6,1.6,2.6c-0.2,0.8-2,1.1-2.9,1.1c-0.1-0.9,0.1-2.3-0.6-2.8c-1.5,0.7-2.5,0.5-2.9,1.6
			c-0.5,1.5,0.9,2.6,0.7,3.9c-0.2,1.5-3.1,1-4.4,1.2c-0.9,0.2-1.3,1.3-2.1,2.3c-0.5,0.6-1.6,1.3-2.4,1.7c-0.4,0.2-0.9,0.2-1.3,0.4
			c-0.5,0.3-0.7,1.2-1.3,1.6c-0.4,0.3-2.1,1.2-2.6,1.2s-1-0.5-1.4-0.4c-0.6,0.1-0.5,1.3-1.2,1.5c-1.3,0.5-3.5-1.1-3.9,0.8
			c0.6,1.1,1.9,0.8,2.9,1.4c0.6,0.4,1.8,2.1,2,2.7c0.1,0.6-0.1,2.7-0.3,3.3c-0.6,1.6-2,1-3.8,1c-0.4,0-1,0.1-1.4,0.1
			c-3-0.2-6-1.2-7.3,0.9c0.1,1.6,0.5,2.7,0.1,4.1c-0.3,1.1-1.2,2-1.2,2.9c0,0.4,0.6,0.9,0.7,1.5c0.1,0.3-0.2,1,0,1.3
			c0.5,1,1.8,0.2,2.7,0.3c0.8,0.1,1.8,1.3,1.8,2.3c0,0.7-0.7,1.8-1.1,2.4c-0.9,1.3-2,1.3-3.2,2c-1,0.6-1.4,1.5-2,2.5
			c-0.7,1.1-1.1,1.8-0.8,3.3c-0.8,1.7-2.1,2.8-3.9,3.6c-0.5,0.3-1.2,0.4-1.7,0.7c-0.4,0.2-0.7,1-1.2,1.6c-0.6,0.7-1.3,1-1.7,1.6
			c-0.3,0.4-0.4,1.3-0.7,1.9c-0.4,0.8-1.3,1.2-1.8,2c-0.3,0.3-0.4,1.1-0.7,1.6c-0.6,1.1-1.6,1.9-1.5,2.9c0.2,0.9,1.2,1.1,1.3,1.9
			c0,0.5-0.3,0.8-0.3,1.3c0.1,0.7,0.5,1.2,0.6,1.8c0.1,1.4-0.5,2-0.8,3c-0.1,0.4-0.1,0.9-0.2,1.3c-0.3,0.7-1.3,1.4-1.3,2.2
			c0,0.6,0.6,1.1,0.7,1.9c0,0.5-0.3,1.2-0.2,1.7c0.2,1.1,2.1,2.3,2.9,3.1c1.1,1.1,2.5,2,3,3.1c0.4,1,0.4,2.3,1.2,3
			c0.5,0.5,1.5,0.8,2.2,1.4c0.7,0.5,1.4,0.9,2.1,1.5c1.2,0.9,2.9,2.7,4.8,2.6c1-0.1,2-0.9,3.1-1.1c1.2-0.2,2.7-0.3,3.8-0.2
			c0.9,0.1,1.8,0.6,2.7,0.6c1-0.1,2.1-0.8,3.2-1.3c1.9-0.8,4.7-1.9,7.5-1.5c2.1,0.3,2,2.7,2.6,4.2c1.7,0.1,3.1-0.6,4.4-0.3
			c1,0.3,2.2,1.8,2.3,2.6c0.1,0.8-0.5,2.1-0.6,2.6c-0.3,1.1-0.3,2.5-0.5,3.2c-0.2,0.5-0.6,0.9-0.6,1.4c0.1,0.5,0.7,1.7,1.2,2.4
			c0.6,0.8,1.6,1.4,2.4,2.3c1.4,1.6,2,3.6,3,5.7c0.4,0.8,1.1,2,1.1,2.8c0,0.6-0.4,1.1-0.3,1.7c0.2,1.3,1,1.9,1.1,3
			c0.3,2.7-2.1,3.5-2.6,5.7c-0.1,0.5,0,1-0.1,1.5c-0.2,0.7-0.7,1.2-0.8,1.9c-0.1,0.7-0.3,2-0.2,2.7c0.1,1,1.2,2,1.7,2.9
			s1,2.6,1.7,3.8c0.4,0.7,1,1.2,1.2,1.8c0.2,0.7,0,1.7,0.1,2.6c0.1,0.7,0.5,1.3,0.6,1.9c0.3,1.8,0.4,3.5,1.3,5
			c0.4,0.7,1.2,1.2,1.8,2.1c0.5,0.9,0.7,2.1,1.3,3.2c0.5,1.1,1.3,1.9,1.3,2.5c0,0.5-0.5,1-0.5,1.6c0.1,1.5,1.7,3,2.9,3
			c0.5,0,1.1-0.5,1.7-0.6c0.4-0.1,0.8,0.1,1.1,0c0.6-0.1,1-0.5,1.5-0.6c1.3-0.2,2.5,0.2,3.7,0.1c2-0.1,4.3-1.1,5.6-2
			c1.4-1.1,3-2.4,4.1-3.6c0.8-0.9,1.2-2.1,2-3c0.6-0.6,1.6-1,2-1.8c0.3-0.5,1-2.3,1-2.8s-0.3-1-0.2-1.5c0.4-1.8,3.9-1.4,4.6-3.1
			c0.6-1.5,0.3-3.6-0.1-5c-0.2-0.5-0.7-1.3-0.6-1.9c0.1-1,1.7-1.9,2.8-2.8c0.7-0.5,1.2-1.4,1.9-1.9c1-0.7,2.4-0.8,3.3-1.4
			c0.8-0.5,2.2-2,2.6-2.9c0.4-1,0-1.7-0.1-2.8c-0.2-1.7,0.1-3.6,0-5.5c-1-0.9-1.4-2.4-1.9-3.7c0.2-1.1,0.4-2,0.1-3
			c-0.2-0.6-0.7-0.9-0.8-1.5c-0.2-1.6,0.9-2.3,1.4-3.4c0.5-1,0.8-2,1.2-2.5c0.5-0.7,1.5-1,2.1-1.7c0.5-0.5,0.7-1.1,1.1-1.7
			c1.1-1.5,2.7-3.1,4.2-4.2c0.8-0.5,1.6-0.8,2.3-1.4c0.7-0.5,1.2-1.2,1.9-1.9c1.2-1.2,2.7-2.8,3.4-4.3c0.2-0.4,0.2-1,0.4-1.5
			c0.6-1.5,2-2.8,2.5-4.5c0.1-0.3,0.1-0.7,0.2-1.1c0.3-1.1,1-2.3,0-3.4c-0.9-0.2-1.7,0.7-2.9,0.9c-1.3,0.2-2.4,0.1-3.4,0.3
			c-0.5,0.2-1,0.6-1.5,0.7c-0.4,0.1-0.8-0.1-1.2,0c-0.7,0.1-1.4,0.6-1.9,0.6c-1.2-0.1-2-1.5-2.7-2.3c0.1-0.5,0.6-0.7,0.4-1.4
			c-0.1-0.5-0.8-0.6-1.3-1.1c-0.9-0.8-1.6-2-2.7-2.7c-1.2-0.8-2.8-1.4-3.4-2.6c-0.4-0.9-0.4-2.1-1-3c-0.7-1.1-2.4-1.8-2.7-2.9
			c-0.4-1.2,0-2-0.3-3.2c-0.4-1.8-2.3-2.3-2.9-3.8c-0.2-0.4-0.1-0.9-0.3-1.3c-0.4-1.1-1.2-2.1-1.8-3.1c-0.6-1.1-1.2-2.1-1.6-3.4
			c0.4-0.5,1.2-0.6,2-0.7c1.6,1.2,2.9,2.8,3.9,4.6c0.3,0.4,0.3,1,0.6,1.4c0.4,0.6,1.1,0.9,1.5,1.3c0.5,0.5,1,1.3,1.2,2
			c0.1,0.4,0,0.8,0.1,1.4c0.5,2.1,2.8,2.9,3.9,4.6c0.4,0.5,0.5,1.1,0.8,1.5c0.6,0.9,1.6,1.4,1.8,2.4c-0.1,0.6-0.8,0.4-0.8,1
			c0.3,0.7,1.1,1,1.5,1.7c0.8,1.4,0.9,3.5,1.6,5.1c1.5,0.8,2.8-0.7,4.3-1.1c0.4-0.1,0.9-0.1,1.4-0.2c0.6-0.2,1.2-0.6,1.8-0.8
			c0.3-0.1,0.7,0,1-0.1c0.7-0.2,1.2-0.9,2-1.3c1.3-0.6,2.8-0.6,3.7-1.2c0.8-0.5,0.8-1.5,1.5-2c1.1-0.7,2.3-0.5,3.6-1
			c0.6-0.2,1-0.8,1.6-1.3c0.5-0.4,1.1-0.8,1.6-1.3c0.5-0.4,1.3-0.9,1.5-1.3c0.1-0.3,0.1-1,0.2-1.3c0.2-0.5,0.8-0.7,1.2-1.2
			c0.4-0.5,1.6-2.4,1.6-3c0-0.6-1.9-2.4-2.4-2.6c-0.7-0.3-1.3-0.1-1.8-0.3c-0.7-0.2-1.2-0.8-1.6-1.6c-0.4-0.7-0.1-1.3-1.1-2
			c-1.8,1.6-2.9,3.8-6.9,3.1c-0.9-0.4-0.5-2-0.9-2.9c-0.4-0.5-1.2,0.1-1.6-0.1c-0.6-2-2.6-2.6-3.7-4.1c-0.4-0.4-1.2-1.6-1.1-2.2
			c0.1-0.8,1.3-1.3,2.1-1.3c2.2,0,2.4,2.9,3.9,3.9c0.6,0.4,1.4,0.7,2.2,1.3c1.2,0.8,2.6,1.6,4.4,1.2c0.8-0.2,1.3-0.9,2.2-0.7
			c0.8,0.1,1,1.4,1.4,1.8c0.7,0.7,2.4,1,3.6,1.1c1,0.1,2.2,0.3,3.1,0.4c1.4,0.2,2.8-0.1,4-0.2c0.9-0.1,2.4,0.1,3.2,0
			c0.4,0,0.8-0.2,1.2-0.2c1.3,0.1,2,1.7,2.7,2.3c1.3,1.1,3,1.6,3.7,2.6c-0.8,1.6,2,3.4,3,3.4c1.1,0,1.5-1,2.4-1.2
			c1,0.5,0.7,1.3,0.8,2.5c0.1,0.9,0.5,2.2,0.8,3.3c0.4,1,0.7,2.2,1,3.1c0.4,1.1,1.2,2.2,1.8,3.2c0.7,1.3,0.8,2.6,1.3,3.7
			c0.4,0.9,1.3,1.6,1.7,2.4c1,1.7,1.5,5.7,3.6,5.4c0.5-0.1,0.6-0.5,1.1-1.1c0.3-0.4,0.9-0.7,1.2-1.1c0.2-0.3,0.3-0.8,0.6-1.2
			c0.3-0.5,0.7-0.7,0.8-1c0.2-0.6-0.2-1.3-0.1-1.9c0.1-0.7,0.6-1.3,0.7-2c0.2-1.5-0.6-2.7-0.6-4.3c0.7-1.3,2.3-1.4,3.3-2.4
			c0.4-0.3,0.5-0.9,0.9-1.3c0.4-0.5,1.1-0.8,1.6-1.3c1-1,1.7-2.3,2.6-2.9c0.7-0.5,1.8-0.5,2.1-1.5c-0.2-2.3,1.4-1.8,3.3-1.9
			c0.6-0.1,2-0.3,2.6-0.5c0.5-0.2,1.2-1,1.7-0.9c0.6,0.1,0.7,1,1.1,1.8c0.2,0.5,0.8,1.2,1.3,1.7s1.4,0.8,1.8,1.3
			c0.2,0.3,0.3,0.8,0.6,1.2c0.6,0.9,1.6,1.4,1.6,2.7c0,0.6-0.4,1.2-0.3,1.8c0.1,0.7,1,1.2,1.6,1.2c1.3,0,2.2-1.9,3.2-1.8
			C375.6,102,376,104.2,376.4,105.3z M227.6,34.2c0.9-0.2,0.7-1,1.3-1.1c0.4-0.1,0.8,0.4,1.4,0.3c0.7,0,1.3-1,1.9-1.3
			c1.2-0.6,2.2-0.3,2.4-1.3c0.1-0.5-0.3-1.4-0.2-2c0.3-1.4,2.9-1.2,2.8-2.8c0-1-2-1.2-2.2-1.9c-0.1-0.6,0.2-1.5,0.4-1.9
			c0.8-1.6,3.6-1.8,4.5-3.1c0.4-0.6,0.4-1.2,0.7-1.5c0.7-0.9,3.2-1,4-0.2c0,2.1-4.3,2.5-4.4,4.2c0,0.3,0.3,1,0.4,1.6
			c0.1,0.5,0,0.9,0.1,1.2c0.3,0.9,1.6,1.6,2.6,1.7c2.3,0.1,5.8-2.2,7.8-0.5c-0.9,2-4.1,0.4-6.4,1.2c-0.5,0.2-0.8,0.6-1.2,0.8
			c-0.5,0.3-1.5,0-1.5,0.9c0.4,0.9,1.1-0.2,1.7-0.2c0.6-0.1,1.5,0.6,1.4,1.4c-0.2,1.8-1.8-0.1-2.8,0c-1.5,0.1-1.8,2.3-1.5,3.9
			c-0.7,0.3-1.5,1.4-2.4,1.5c-0.6,0-1-0.5-1.8-0.6c-1.7-0.2-3.3,1.3-5,1.3c-0.7-0.1-1.5-0.9-2.6-0.9c-0.6,0-1,0.4-1.6,0.5
			c-0.7,0-2-0.3-1.9-0.9C225.6,33.5,226.9,34.3,227.6,34.2z M260.3,144.4c-1.3-0.1-2.3-2.7-1.7-4.3c0.1,0,0.2,0,0.3,0
			c0.8,0.5,0.4,1.5,0.6,2.4C259.7,143.2,260.7,143.7,260.3,144.4z M267.4,151.4c0.1,0,0.1,0,0.2,0c1,0.5,0.4,2.5,0,3.2
			C266.5,154.2,266.9,152.2,267.4,151.4z M267.2,132.3c0.1,0.8-0.7,1.5-1,2.2c-0.3,0.6-0.2,1.2-0.8,1.5c-1.2,0.1-2.1-0.1-2.5-0.8
			c0.4-0.9-0.1-1.6,0.2-2.5C263.5,131.4,266.9,130.4,267.2,132.3z M267.7,69.6c-0.1,0.8-0.7,1.5-1.2,2.6c-0.5,1.6-0.1,3.1-1.6,3.6
			c-2,0.7-3.2-0.8-5-0.7c-1,0.1-1.7,1.1-2.7,1.2c-1.6,0.3-3.3-1.1-5.1-1.3c-0.5,0-1,0.1-1.3,0c-0.5-0.1-0.8-0.6-1.3-0.8
			c-0.8-0.3-1.4-0.1-2.1-0.3c-1-1.6-5.8-1.8-6.2,0.7c-0.2,1.1,0.5,2.6-1.1,2.8c-1.1,0.2-2.1-1-3.5-1.3c-0.5-0.1-1.4,0-1.8-0.2
			c-1-0.3-0.9-1.4-1.8-2c-0.5-0.4-1.9-0.9-2.7-1c-0.5-0.1-1,0.2-1.5,0.1c-0.6-0.1-1.6-0.6-2.1-0.9c-0.5-0.4-1.6-0.8-1.7-1.3
			c-0.3-0.7,1.2-1.5,1.3-2.1c0-0.4-0.6-0.7-0.7-1.4c-0.1-0.5,0.2-0.9,0.1-1.2c-0.1-0.5-0.9-1.1-1.7-1.1c-0.7,0-1.3,0.6-1.9,0.6
			c-0.9,0-2.3-0.5-3.3-0.4c-0.6,0.1-1.2,0.5-1.8,0.5c-1.6,0.1-3-0.1-4.3,0c-1,0.1-2.6,0.4-3.5,0.8c-0.4,0.2-0.7,0.7-1.3,1
			c-0.3,0.1-0.7,0.1-1,0.3c-0.5,0.3-1.1,0.9-1.6,1c-0.8,0.2-1.9-0.2-3.3-0.1c-1,0-2.6,0-2.6-1.2c0-1.7,3-1.1,4.7-1.4
			c0.6-0.2,0.9-0.8,1.7-1.2c0.4-0.2,0.9-0.3,1.2-0.5c0.5-0.4,1.4-1.3,1.5-1.8c0.1-0.4-0.3-1-0.2-1.3c0.1-0.4,0.6-0.8,1.1-1.3
			c0.8-0.8,1.7-1.9,2.7-2.4c0.7-0.4,1.6-0.4,1.9-0.9c0.1-0.6-0.1-0.9-0.1-1.5c0.5-0.4,0.8-0.7,1.1-0.8c1.1-0.2,2.1,0.8,3.3,0.7
			c0.5-0.1,0.9-0.4,1.5-0.8c0.4-0.3,0.9-0.6,1.4-0.8c0.5-0.3,1-0.9,1.6-0.9c1.5-0.1,2.1,1.6,2.8,2.5c0.6,0.8,2.3,2.1,3.2,2.6
			c0.5,0.3,1.2,0.3,1.8,0.6c1.3,0.6,3.8,2.5,3.8,3.7c0,0.6-0.6,1-0.5,1.6c0.9,0.2,2-0.9,2-1.8c0-0.6-0.6-0.9-0.5-1.5
			c0.4-1,1.7,0,2.3-0.4c-0.1-1-1.6-1.1-2.5-1.7c-0.4-0.3-0.8-1-1.3-1.2c-0.7-0.3-1.5-0.3-2.1-0.7c-0.5-0.4-0.8-1.4-1.3-2
			c-0.8-1-2.5-1.1-2-3.2c0.3-0.3,0.8-0.8,1.2-0.7c0.8,0.2,0.7,0.8,1.2,1.2c0.3,0.3,0.9,0.2,1.3,0.5c0.5,0.3,0.7,1.1,1.3,1.6
			c0.8,0.6,2.3,1.2,3.4,1.7c1.1,0.5,2.8,1.2,3,2.1c0.1,0.5-0.2,1.1-0.1,1.5c0.1,0.5,0.5,1.1,0.8,1.5c0.7,1,1.8,2,2.6,3.2
			c0,1.7,0.6,2.7,2.5,2.5c0.7-0.3,0.4-0.8,0.9-1.4c0.5-0.5,1.6-0.4,1.6-1.2c0-1.2-2.9-1.4-2.5-3.2c0.1-0.6,0.7-0.3,1.2-0.3
			c0.9-1,2.6-2.2,3.7-0.7c0.5,2.9,1.4,5.4,3.5,7c1.5-0.5,2.1,0.9,3.5,0.6c0.6-0.2,1-1,1.6-1.1c1.2-0.2,2,1.1,3.1,1.2
			c1.8,0.2,3.1-1.9,4.9-0.8C267.3,67.8,267.8,68.6,267.7,69.6z M273.8,58.2c-0.9,0.2-2.5,0.3-3.5,0.2c-2.7,0-4.6-2-7.7-1.9
			c-0.7,0-1.3,0.2-1.8,0.4c-0.8,0.4-1.4,1-2.1,1.2c-0.9,0.2-2.3-0.2-3,0c-0.9,0.3-1,2.4-2.7,1c-0.1-0.9,1.1-0.6,1.2-1.3
			c-0.1-0.7-1-1.1-1.1-1.9c-0.1-0.9,0.9-1.3,1.2-2.4c0.1-0.4,0-0.8,0.1-1c0.2-0.4,0.7-0.7,1-1.1c0.6-0.8,1.2-2.5,2.3-2.6
			c1.1-0.1,1.7,0.8,2.6,0.8c0.6,0.9,0.9,2.3,2.1,2.5c1,0.1,2.2-0.8,3.1-1.1c-0.2-0.9-1.2-0.5-1.3-1.3c-0.3-1.4,2.9-1.9,4.2-1.6
			c0.7,1.6-1.2,1.9-1.2,2.8c0,0.8,2.6,1.6,3.3,2c1.2,0.7,2.4,1.2,3.4,1.8C275.2,55.5,276.4,57.7,273.8,58.2z M296.5,65.2
			c-0.7,0.6-1.8,1-3,1c-1,0-2-0.8-3-1.2s-2.1-0.4-2.3-1.5c-0.1-0.5,0.1-1.8,0.3-2.4c0.2-0.6,0.7-0.8,0.7-1.3c0-0.7-1.6-1.8-2.2-2.4
			c-0.8-0.8-1.9-1.4-2.3-2.3c-0.2-0.4-0.1-0.9-0.3-1.3c-0.4-0.8-1.2-1.1-1.3-1.7c0-0.4,0.5-1.2,0.9-1.5c0.4-0.4,1.2-0.8,2-1.3
			c1.6-1.2,2.9-1.5,5.4-1c0.6,0.4,1.1,1.9,0.4,2.4c-1.6-0.1-3,0.5-3,1.6c0,1.3,2.7,2.8,3.8,3.4c0.1,0.6,0.2,1.2,0.6,1.5
			c1.5-0.6,2.9,0.3,2.9,1.4c-0.3,0.8-1.3,0-1.9,0.3c-0.2,0-0.1,0.3-0.3,0.3C294.4,61.6,297,61.9,296.5,65.2z M303.6,52.8
			c-1.1,0.2-2.7-2.2-1.2-2.5C303.6,50,305.2,52.5,303.6,52.8z M305.6,15.2c-0.3-1,0.7-1.1,0.7-2c0-1.7-3-2.2-2.9-4.3
			c0.1,0,0.1-0.2,0.1-0.3c1.4-0.3,1.3,1,1.9,1.9c0.5,0.7,1.6,0.9,2,1.2C308.9,13.2,307.9,15.7,305.6,15.2z M325,49.7
			c-0.4-0.7,0.6-1.6,1-0.9C325.9,49.3,325.7,49.7,325,49.7z M371.5,36.8c-0.3,0.8-1.4,1.2-2.3,1.8c-0.4,0.5-0.7,1.2-1.3,0.8
			c0.1-0.7,0.7-0.9,1.1-1.3c0-1,1-1.6,1.1-2.6c0.1-0.7-0.7-1.8,0.4-2C371.3,34.3,371.9,35.6,371.5,36.8z M346.2,3.4
			c-0.1,0-0.1,0-0.2,0c0,0.1,0,0.2,0.1,0.3C346.1,3.5,346.1,3.5,346.2,3.4z M275.2,11.6c0.4-1-1.6-1.1-1.3-0.1
			C274.1,11.9,275,11.9,275.2,11.6z M262.1,69.1c0.4,0.9,2.1,0.4,2.2-0.4C264,68,262.1,68.3,262.1,69.1z M229.1,63.9
			c0.7,1.2,2.1,1.6,3.7,1.8c0.6-0.4,0.6-1.4,0.9-2.1C232.3,63.6,230.1,63.1,229.1,63.9z M222,58.8c0.1,1.1,0.1,1.8-0.1,2.7
			c0.6,1.2,2,0.1,2.3-0.7C224.7,58.1,223.3,57.4,222,58.8z M223.3,57.1c0.5-0.2,0.8-0.6,0.7-1.4C223,54.7,222,57,223.3,57.1z
			 M201.4,32.6c0.5,0.2,0.9,1.3,1.8,1.8c0.4,0.2,0.9,0.1,1.2,0.3c0.6,0.3,1,1,0.9,1.5c-0.2,0.8-1.2,0.6-2,1.3c0.1,1.1-0.8,1.3-1.1,2
			c0.2,0.5,0.9,0.4,1,1c-0.1,0.6-1.2,0.7-1,1.3c1.1,0.8,2.1-0.2,3.1-0.3c2.2-0.3,4.4,0.2,5.7-0.8c-0.1-1,1.1-1.4,1-2.3
			c-0.1-0.7-1.2-0.8-1.7-1.3c-0.3-0.2-0.4-0.8-0.7-1.3c-0.3-0.5-1.1-0.9-1.5-1.5c-0.5-0.7-1.7-1.8-1.7-2.4c0-0.6,0.9-0.8,1-1.7
			c-0.1-0.9-1.7-0.3-1.8-1.2c0.1-0.6,0.6-0.7,0.6-1.3c-0.1-0.1-0.3-0.1-0.5-0.1c-0.5,0.7-1.4,0.4-2.2,0.7c-0.7,0.2-1.9,1.4-2.1,1.8
			C201.1,30.8,201.5,31.5,201.4,32.6z M198.9,39c0.5-0.2,1.3-0.2,1.6-0.6c0.3-0.5,0-1.4,0.3-2.1c0.3-0.8,1.1-0.9,1-1.6
			c-0.2-1-2.4-1.6-3.7-0.8c-0.8,0.4-1,1.1-1.5,1.4c-0.7,0.3-1.3,0.1-1.4,0.8c-0.1,0.5,0.5,0.8,0.5,1.4c-0.3,0.7-1.2,0.8-1.3,1.7
			C195.4,40.8,197.7,39.4,198.9,39z M132.3,13c-0.7-1.1-3,0-2.8,0.9C129.8,15,132.5,13.9,132.3,13z M127.7,230c0.4,0,0.9,0,1.4,0
			C128.9,229.9,127.9,229.9,127.7,230z M114.5,21.1c-0.4,0.3-0.4,0.6-0.4,0.8c0.2,1,2.1,0.1,2.1-0.4C116.2,20.9,115,20.8,114.5,21.1
			z M162,140.5c-0.5-0.2-1.6,0-2.3-0.3c-2.3-0.9-3.6-3.7-6-3.9c-0.5,0-0.9,0.2-1.5,0.2c-1,0-2.4-0.7-3.4-0.8c-0.6-0.1-1.5,0.2-1.9,0
			c-0.6-0.3-0.7-1.4-1.2-1.7c-0.4-0.3-1.1-0.4-1.7-0.6c-1-0.4-1.7-0.8-2.8-0.9c-0.4,0-0.8,0.2-1.2,0.1c-0.6-0.1-1-0.9-1.6-1.2
			c-0.7-0.5-1.3-0.7-1.6-1.3c0.7-2.1-1.1-2.7-1.5-3.9c-0.2-0.5-0.1-1.2-0.3-1.7c-0.2-0.7-0.9-1.1-1.7-1.7c-1.4-1.1-2.6-2.1-4.6-2.3
			c-0.9-0.1-1.7,0.3-2.8,0.2c-1.2-0.1-2.6-1-3.4-2c-0.8-0.9-1.2-1.8-1.9-2.2c-0.7-0.5-1.5-0.5-2-0.9c-0.2-0.2-0.2-0.6-0.4-1
			c-0.4-0.7-0.9-1.1-0.5-1.9c-0.7-0.4-0.8,0.7-1.6,0.6c-0.8-1.1-1.4-1.6-3.1-1.3c-0.8,0.2-1.2,1.2-2.1,1.2c-0.7,0-1.3-0.9-2.3-1
			c-0.7-0.1-1.6,0.2-2.1,0.1c-0.8-0.1-1-0.8-1.8-1.3c-0.5-0.4-1.6-1-1.9-1c-1,0-1.7,2-3,1.3c-0.6-0.8,1.1-1.2,0.3-2
			c-0.5-0.6-1,0.3-1.5,0.6c-0.5,0.4-1,0.8-1.6,1c-1.3,0.5-2.2,0.3-3.2,0.8c-0.9,0.5-1,1.3-1.5,2.3c-0.4,0.8-1.4,2-2.1,2
			c-0.8,0.1-1.6-1.1-2.3-1.4c-2.2-0.9-3.3,0.9-5.1,0.9c-1.7,0.1-4.1-2.7-4-4.3c0.1-1,0.6-2.5,0.7-3.7c0.1-1,0.8-1.5,0.8-2.4
			c0-1.2-1.5-2.1-2.3-2.2c-1.8-0.3-4.3,0.7-6.4-0.1c-0.4-0.6,0.5-1.1,0.7-1.7c0.1-0.3,0-0.8,0.2-1.2c0.3-0.6,0.9-1.1,1.2-1.7
			c0.2-0.5,0.3-1.2,0.5-1.8c0.3-0.7,0.7-1.1,0.8-1.6c0-0.6-0.2-1.4-0.7-1.8c-1.6,0.1-2.7,0.2-3.6,0.6c-2.1,0.9-1.7,3.7-3.8,4.4
			c-0.7,0.2-1.7,0.3-2.5,0.4c-0.7,0.1-1.5,0.5-2.2,0.5c-0.8,0-2.3-0.8-2.8-1.3c-0.4-0.5-1.5-2.9-1.6-3.3c-0.8-2.8,0.1-5.4,1.2-7.4
			c0.3-0.4,0.6-0.8,0.8-1.2c0.3-0.7,0.1-1.7,0.3-2.4c0.4-1.3,2.2-2.2,3.4-2.8c1.4-0.7,2.6-1.9,4.2-2c0.8,0,2,0.2,2.8,0.4
			c0.7,0.2,1.3,0.7,1.9,0.7c1.8,0.2,2.2-1.2,3.7-2c1.5,0.2,2.5-0.3,3.9-0.1c0.9,0.2,1.6,1.1,2.3,1.2c0.6,0,1.1-0.6,1.7-0.5
			c0.5,0.1,1.5,1.3,1.6,2c0.1,0.9-0.6,1.6-0.4,2.6c1,0.9,2.6,1.1,3.9,1.6c0.8-0.7,0.1-2,0-3c0-0.5,0-0.9,0-1.3
			c-0.1-0.7-0.4-1.3-0.4-1.9c-0.1-2.7,2.2-4,4-5.1c0.8-0.4,1.4-1.3,2.1-1.6c1-0.5,1.7-0.6,2.5-1.1c1.5-0.8,2.8-1.5,3.9-2.4
			c0.5-1.2,0-2.9,0.1-4.1c0.5-0.3,0.9,0.1,1.5,0.1c0.8-0.2,0.9-1.4,1.4-1.9c0.2-0.3,1-0.5,1.4-0.8c0.9-0.7,1.1-1.7,1.9-2
			c0.2-0.1,0.9-0.1,1.3-0.2c0.6-0.2,1.4-0.9,2.3-1.2c0.6-0.2,2-0.3,2.2-0.5c0.3-0.3,0-1.1,0.1-1.5c0.5-2.2,3.8-2.7,5.7-3.4
			c1.3-0.6,2.7-1.5,4.2-1.2c-0.2,1-1.6,0.6-1.4,1.9c0.4,1.7,2.7-0.5,3.3-0.8c1.2-0.4,3.2-0.7,4.7-1.3c1.3-0.5,3.8-1.3,2.5-2.8
			c-1.1-0.1-1.6,1.2-2.5,1.6c-0.7,0.1-0.6-0.5-1.1-0.6c-0.5,0-0.8,0.5-1.3,0.4c-0.5-0.1-1.2-0.9-1.3-1.5c-0.2-1.6,1.3-2.3,2-3.5
			c-0.5-1.5-2.5-0.3-3.7-0.9c0.1-0.8,1-1.4,2-1.6c0.9-0.1,2.7,0,3.2,0.4c0.3,0.3,0.1,0.9,0.5,1.3c0.5,0.5,1.1,0.4,1.7,0.3
			c0.3-1.1-1.4-0.8-1.2-1.5c1.3-0.9,3.4-0.2,5-0.4c0.9-0.2,1.9-0.8,2.7-1.3c0.8-0.5,1.8-1.2,2.6-0.5c0.2,0.7-0.8,1-1.2,1.4
			c-1.4,1.3-3,2.8-4.1,4.3c0.7,0.7,2,0.4,3.2,0.5c0.4,0.1,1,0.2,1.5,0.3s1.2,0.1,1.6,0.2c0.8,0.2,1,1,1.8,0.8c1.3,0,1.3-1.4,0.6-2.3
			c0.2-0.9,0.6-1.4,0.3-2c-0.6-1.1-2.8,0-2.9-1.5c0-0.9,0.9-0.9,1.2-1.6c-0.2-1.9,1.5-2,1.3-3.7c-0.1-0.6-0.7-0.6-1.2-1.3
			c-0.3-0.4-0.4-1-0.7-1.3c-1-0.8-3.1-0.7-3.2-2.3c0-1,0.2-1.8,0.1-2.8c-0.1-1-0.8-3.7-1.6-3.9c-1.1-0.2-2.2,1.6-3.5,2.2
			c-0.7,0.4-1.7,0.7-2.4,0.6c-0.4,0-1.3-0.7-1.4-1.6c0-1,0.7-1,0.9-2.1c-0.1-0.7-0.8-0.5-1.4-1c-0.7-0.5-1.3-1.7-2.2-1.8
			c-0.4,0-1,0.4-1.5,0.4c-1.5,0.1-2.7-0.9-3.8-0.7c-1.3,0.3-1.2,2.3-2.5,2.7c0.2,0.9-1.1,1.6-1.2,2.3c-0.1,0.5,0.2,1,0.2,1.5
			c0.3,4.6-3.5,6.7-8,6.6c-0.9,0.9-0.7,2.4-1.2,3.6c-0.4,0.9-1.8,2-2.8,1.9c-0.7,0-1.5-1-1.5-1.7c0-0.8,1.2-1.3,0.5-2.2
			c0.1-0.6,1.5-1,1.3-2c-0.2-1.1-1.7-0.5-3-0.7c-1-0.2-2.2-0.7-3.1-1.2c-1.2-0.6-2.1-1.8-3.6-2c-0.8-0.1-1.6,0.3-2-0.2
			c-0.4-0.5,0.2-1.2,0.2-1.6c-0.1-0.5-1.2-0.7-1.2-1.3c-0.1-0.4,1-1.6,1.4-2c0.8-0.6,2.2-1.3,3.4-2c1.2-0.6,2.6-1.3,3.8-1.7
			c0.5-0.2,1-0.1,1.5-0.3c1.2-0.4,2-1.3,3.2-1.6c0.6-0.2,1.2-0.2,1.9-0.3c1.6-0.3,2.7-1.5,4.1-1.7c-0.3,1.1-1.5,1.3-1.8,2.4
			c1.1,2.1,3.1-0.5,4.5-0.5c1.3,0,2.5,1.8,3.3,0.1c-0.3-0.9-1.1-1.4-1.9-1.9c-0.7-0.5-1.9-0.9-1.8-1.9c0.9-0.4,1.2,0.7,2,0.7
			c0.4,0,1-0.5,1.4-0.7c1-0.4,2.7-0.5,3.5-1.2c0.5-0.4,0.4-1.1,0.8-1.6c0.3-0.5,1.1-0.6,1.4-1.1c0.4-0.5,0.1-1,0.6-1.3
			c1.2-0.5,2.6,0.1,3.8,0c0.5-0.1,0.9-0.5,1.5-0.5c1.1,0.1,1.6,1.8,2.4,2.3c0.5,0.4,1.5,0.4,1.6,1.1c0.2,1.4-1.9,1.5-3.1,2.2
			c-0.6,0.3-0.8,1.1-1.6,1.4c-2.1,0.7-5.1-0.9-5.8,1.3c1,1.4,2.7-0.1,3.9-0.1c0.8-0.1,1.9,0.7,2.4,1.3c0.5,0.4,0.7,1.4,1.2,1.7
			c0.3,0.2,1,0.2,1.4,0.3c1.4,0.5,2.6,1.2,4.1,0.9c0.5-0.9-1.1-1.2-0.5-1.9c1,0.1,1.7,0.6,2.5,0.9c1.1-0.8,1.8-0.9,1.8-2.2
			c0-1.1-1.4-1.1-1.4-2.4c0.1-0.8,0.6-1.1,1.1-1.1c1.2-0.1,1.6,1.8,2.5,1.9c0.5,0,2.2-0.7,2.5-0.9c0.4-0.2,1.9-1,1.9-1.5
			c0.1-0.7-1.5-1.6-2.2-1.9c-1-0.5-2.1-0.4-2.5-1.3c-0.2-0.4,0.1-1-0.3-1.3c0-0.5,0.7-0.8,0.5-1.3c-0.1-0.5-0.7-0.5-1.4-0.8
			c-0.5-0.3-1-0.8-1.4-0.9c-0.6-0.2-1.1,0-1.6-0.2c-1.7-0.6-1.4-2-2.5-2.7c-1.5,0.2-2.8-0.5-3.8,0.1c-1.3-0.7-3.2,0.2-4.9,0
			c-0.4-0.1-0.9-0.4-1.4-0.4c-2.5-0.2-6,1.4-7,2.5c-0.2,0.2-1,1.4-0.8,2c0.3,1,2.2,0.2,2.7,1.2c-0.1,1.2-1.4,1.8-2.4,2.3
			s-2.2,1.7-3.2,1.1c-0.4-1,1.2-1,0.8-1.9c-0.3-0.7-1.5-0.3-2-0.9c-0.8-0.9,0.1-2.2-0.1-3.5c1.1-2,5.3-0.9,6.4-2.8
			c-0.2-0.6-0.8-0.3-1.3-0.5c-0.6-0.2-0.7-0.7-1.2-0.7s-1.1,0.6-1.7,0.8c-0.7,0.3-1.3,0.5-1.8,0.8c-1.1,0.7-1.5,2.4-2.8,2.1
			c-0.2-1,1.3-1.6,1.1-2.5c-0.3-0.6-1.2-0.4-1.8-0.3c-1.9,0.1-3.2,0.5-3.9,1.5c-0.6-0.1-1.5-0.4-1.9,0.1c0.4,0.7,1.3,1.8,2.2,2
			c0.6,0.1,1.3-0.5,2,0c0.1,1-1.3,1-1.3,2c0,0.6,0.8,0.9,0.7,1.5c-0.1,0.8-2.3,1.8-3.1,1.3c0.1-0.9,1.3-0.6,1.3-1.5
			c0-0.4-0.7-0.9-1.1-1c-0.8-0.1-2.1,0.5-2.6,1c-0.5,0.4-0.5,1.2-1,1.6c-0.9,0.6-2,0.3-3,0.3c-1.9,0-3,0.1-4.4-0.6
			c-0.5-0.2-1.3-0.5-1.2-1.2c1.5,0,2.9,0.7,4.7,0.4c0.6-0.2,0.8-0.7,1.4-1s1.4,0,1.6-0.7c0-1.1-1.4-0.8-1.5-1.7
			c-0.1-0.5,0.7-1.6,1.2-2.1c0.6-0.5,1.6-0.6,1.8-1.3c-0.5-1-1.5,0.1-2.3,0.2c-0.4,0.1-0.9-0.1-1.3,0c-1,0.2-1.5,1.1-2.1,1.4
			c-0.6-0.2-0.7-0.9-1.4-1c-0.9,0.7-1.6,0.2-2.5,0c-0.4-0.1-1-0.1-1.3-0.2c-0.8-0.2-1.3-1.1-2.2-1.4c-0.5-0.2-1.5,0-2.4-0.1
			c-1.6-0.2-3.1-0.7-4.4-0.5c-1.6,0.2-2.7,1.4-4,1.9c-1.6,0.6-4.4,1.5-2.2,2.9c2.2-0.1,4.1-1.1,6-1.1c0.2,1.2-0.7,2.2-1.1,3
			c-0.3,0.7-0.3,1.1-0.6,1.3c-1.4,0.9-3.8-0.8-5.6-1.1c-1-0.1-1.8,0.3-2.7,0.3c-0.9,0-1.8-0.4-2.6,0C69.9,10,70,9.1,69.3,9
			c-0.5-0.1-1.1,0.5-1.6,0.6c-0.4,0.1-0.9-0.1-1.4-0.1c-1,0.1-2,0.5-3.1,0.7c-1.2,0.2-2.4,0.1-3.5,0.2c-1.5,0.2-3.2,1-4.7,0.8
			c-0.8-0.1-1.4-0.8-2.2-1c-0.5-0.1-1.1,0-1.7-0.1C50.5,10,50,9.7,49.5,9.6c-1.4-0.3-3.1,0-4.6-0.2c-0.6-0.1-1.2-0.5-1.8-0.6
			c-0.7-0.1-1.5,0.1-2.2,0c-0.4-0.1-0.8-0.4-1.3-0.5c-0.6-0.1-1.2,0-1.8-0.1c-0.6-0.1-1.1-0.6-1.7-0.6c-0.9,0-1.8,0.4-2.6,0.6
			c-0.9,0.2-1.8,0.1-2.8,0.2c-1.2,0.1-2.5,0.6-3.8,0.8c-1.4,0.2-2.6,0.5-3.7,1c-1.3,0.6-2.4,0.8-3.7,1c-1.2,0.2-2.7,0.1-3.5,1.2
			c0.2,0.8,0.9,1.6,0.6,2.6c-0.7,1.4-2.1,0.2-3.2,0.1c-1,0-2.7,0.4-3.8,0.6c-1.2,0.2-2.9,0.5-2.8,1.6c0.1,1.8,4.3,0.4,5.3,1.2
			c0.1,1.4-1.8,1.1-3.1,1.3c-0.6,0.1-1.2,0.6-1.7,0.6c-0.4,0-0.9-0.2-1.3-0.2c-1,0.1-1.7,0.7-3,1.1c-0.8,0.2-2.7,0.8-2.8,1.3
			c-0.1,0.8,2.1,1.5,3.2,2C5,25.3,5.8,25.7,7.2,26c1.5,0.3,4.2,0.3,5.7,0.1c0.5-0.1,1.2-0.3,1.6-0.3c0.9,0.1,0.9,0.8,1.7,0.9
			c0.9,0,1.4-0.6,2.3-0.8c0.9-0.2,2.2-0.1,3.1-0.5c0.9-0.4,1.3-1.1,2-1.2c1.1-0.1,1.7,1,2.9,1.2c2,0.4,3.5-0.1,4.9,0.6
			c1.1,0.6,1.7,2.2,2.2,2.9c0.2,0.2-0.6,1-0.7,1.4c0,0.3,0.2,0.8,0.2,1.2c-0.1,1-0.9,1.7-0.2,2.2c0.7,0.6,1.9-0.8,2.5,0.1
			c0.6,0.9-0.6,1.3-0.8,2.1c-0.2,1,0.3,2,0.3,2.9c0,0.4-0.2,1.4-0.3,1.7c-0.2,0.6-1.2,0.6-1.3,1.3c-0.2,1.1,1.6,1.9,1.7,2.8
			c0.1,0.7-0.6,1.9-0.8,2.4c-0.7,1.5-1.7,2.8-2.8,4.1c-1.1,1.3-2.6,2.4-3.3,3.7c-0.4,0.7-0.5,1.5-0.8,2.1c-0.5,0.9-1.3,1.4-1.8,2.3
			c-0.2,1.4-0.1,2.6,0,3.8c0.1,1.3,0,2.5,0.1,3.7c0.1,0.6,0.3,1.9,0.7,2.5c0.4,0.7,1.1,0.5,1.9,1c0.6,0.3,1.6,1.2,1.8,1.9
			s0.1,1.8,0.2,2.8c0.1,1,0.1,2.2,0.4,2.9c0.2,0.8,1.5,1.6,1.5,2.5c-0.1,0.8-1.2,0.9-1.2,1.8c0,1.4,2.8,1.4,3.1,2.8
			c0.2,0.7-0.3,1.4-0.2,2c0.1,0.6,1.3,1.2,1.6,1.5c0.5,0.6,0.9,1.5,1.8,1.3c0.6-0.9-0.6-1.6-0.9-2.3c-0.4-0.9-0.4-2.3-0.8-3.6
			c-0.3-0.8-1.1-1.5-1.3-2.2c-0.3-0.8-0.2-1.6-0.5-2.2c-0.3-0.6-1.2-1.5-1.3-2.1c-0.3-2.3,2.1-3,2.8-1.3c0.4,1.1-0.2,2,0,3.1
			c0.1,0.9,1.2,1.7,1.8,2.5c0.6,0.9,1.1,1.7,1.7,2.3c0,0.6,0,0.7,0,1.3c0.8,0.9,1.7,1.8,2.5,2.8c1.1,1.4,2.7,3,2.5,5.3
			c-0.1,0.7-0.8,1.3-0.8,2.1c0,0.6,0.8,1.4,1.5,1.9c0.7,0.5,1.4,1.1,2,1.4c0.4,0.2,1.2,0.3,1.7,0.5c0.7,0.3,1.2,1,2,1.4
			c1,0.5,2.3,0.8,3.5,1.3c1.2,0.6,2.7,1.3,3.6,1.3c0.9,0,1.9-1,2.9-1c2.4-0.1,3.4,3,5.3,3.9c0.4,0.3,1.1,0.3,1.7,0.4
			c0.5,0.1,0.8,0.3,1.3,0.5c1,0.4,2.3,0.3,3.1,0.7c1.2,0.6,2.1,2.9,3.2,3.5c0.1,0.6-0.1,1.4,0.1,1.9c0.5,0.7,1.2,0.6,2,1
			c1,0.5,1.3,1.9,2.2,2.3c0.3,0.2,1.1,0.1,1.6,0.3c1.3,0.3,1.7,1.8,2.8,1.5c0.7-0.2,0.7-0.9,0.8-1.6c0.4-0.5,1-1.3,1.7-1.3
			c1.2,0,1.3,1.2,1.7,2.4c0.3,0.6,0.9,1.2,1.1,1.9c0.3,1.2,0.1,4.8-0.1,5.5c-0.3,0.9-1.5,1.2-2.2,2.2c-0.4,0.4-0.5,1.1-0.8,1.4
			c-0.4,0.6-1.1,0.8-1.5,1.3c-0.2,0.3-0.4,0.9-0.6,1.3c-0.6,1.3-1.4,2.1-0.9,3.6c0.2,0.6,1.2,1,1.2,1.7c0,0.8-1.8,1.6-1.9,2.5
			c-0.1,0.7,0.6,1.9,0.8,2.8c0.1,0.6,1.4,1.1,1.8,1.5c0.6,0.8,1.2,1.8,1.8,2.8c1.3,1.9,2.2,4.2,3.4,6c0.6,1,1.5,1.8,1.9,2.8
			c0.2,0.5,0.2,1,0.4,1.5c0.7,1.5,3.7,3.1,5.3,3.9c0.7,0.4,1.5,0.5,2.2,0.9c1.1,0.6,3.1,2.1,3.6,3c0.5,0.8,0.8,2.7,1,4
			c0.3,1.7,0,3,0.1,4.8c0.1,1,0.4,2,0.4,3c0,0.4-0.2,0.6-0.2,1c0,1.2,0.3,2.6,0.2,3.8c-0.1,0.6-0.2,1.2-0.2,1.7
			c0.1,0.6,0.4,1.1,0.4,1.6s-0.1,1.3-0.1,1.7c0.2,1.2,1.1,2.2,1.3,3.3c0.2,0.9,0.3,2.7,0.2,3.8c-0.1,0.5-0.4,1.1-0.5,1.7
			c-0.1,0.4,0.1,0.9,0,1.4c-0.1,0.6-0.5,1.2-0.5,1.8c0.1,1.3,1.5,2.4,1.7,3.7c0.1,0.4-0.1,0.9-0.1,1.3c0.1,0.8,0.4,1.5,0.6,2.2
			c0.3,1.1,0,2.7,1.2,3.2c1.2-0.4-0.2-1.7,0.5-2.3c1.3,0.4,0.9,2.6,1.3,4c-0.5,0.4-1.2-0.4-1.5,0.3c-0.3,0.5,0.5,1.1,0.5,1.5
			c0,0.7-0.5,1.5-0.4,2c0.2,0.9,1.7,0.7,1.9,1.4c0.2,0.7-0.5,1.2-0.5,2c0,0.8,1,2.2,1.8,3.3c0.4,0.5,1,0.9,1.3,1.3
			c0.3,0.4,0.5,1.1,0.8,1.4c0.3,0.4,1.1,0.6,1.6,0.9c0.8,0.6,1.8,2,2.6,2.4c0.3,0.2,0.8,0.3,1.3,0.5c0.6,0.3,1.2,0.8,1.8,1
			c1.5,0.5,3.1,0.9,4.4,1.5c0.4,0,0.9,0,1.3,0c0.2-0.2,1.1-0.2,1.4,0c0.1,0,0.1,0,0.2,0c0.7-0.2,1.5-0.4,1.7-1.2
			c-0.5-1.3-2.5-1.2-3.9-1.9c-0.9-0.5-1.7-1.6-2.4-2.3c-0.7-0.8-2-1.8-2-2.7c0-0.7,0.8-0.9,1-1.6c0.1-0.6-0.2-0.7,0-1.3
			c0.3-1.1,1.4-1.1,1.4-2.3c-0.1-1.9-3.8-1.1-3.9-3.1c-0.1-1.3,1.8-1.3,2.1-2.5c0.1-0.5-0.2-0.8-0.2-1.7c0.2-0.9,1.2-1,1.4-2
			c-0.4-0.7-1.3-0.2-1.9-0.6c-0.6-0.3-0.9-1.1-0.8-1.8c1-0.4,3,1,3.7-0.4c0.4-0.7-0.4-2.3,0.1-3c0.3-0.5,2.2-0.5,2.9-0.6
			c1-0.2,2.2-0.4,2.8-0.8c0.6-0.4,1.5-1.6,1.4-2.8c-0.1-0.6-0.5-0.8-0.9-1.3c-0.4-0.4-0.5-0.9-0.8-1.3c-0.4-0.6-1.1-0.5-1.3-1.5
			c1.4-0.2,3.5,1.2,5.5,0.6c1-0.3,2.3-2.3,2.7-3.2c0.2-0.3,0.1-0.8,0.3-1.1c0.2-0.4,0.5-0.7,0.6-0.9c0.2-0.5,0.1-0.9,0.2-1.2
			c0.3-1,1.2-1.3,1.8-2c0.5-0.5,0.7-1.2,1.1-1.7c0.5-0.6,0.9-1.1,1.2-1.6c0.3-1.7-0.7-3-0.3-4.5c0.4-1.8,2.8-2.8,4.5-3.6
			c0.5-0.3,1.1-0.7,1.6-0.9c1.2-0.4,2.6-0.2,3.7-0.6c1.8-0.6,2-2.6,2.9-4.2c0.5-0.8,1-1.5,1.1-2.1c0.1-0.5-0.2-0.9-0.1-1.5
			c0.1-0.5,0.6-1.1,0.8-1.7c0.2-0.9,0.3-2.1,0.3-3c0-0.7-0.4-1.4-0.4-2.1c-0.2-2.5,0.9-2.7,1.8-4.1c0.5-0.7,0.7-1.4,1-1.9
			c1.5-2.3,4.2-3.4,4-6.9C163.6,143.5,162.9,140.9,162,140.5z M137.1,15c0,0.5-0.2,0.7-0.7,0.6C136.1,15.1,136.7,14.7,137.1,15z
			 M91.4,51.3c-1.4,0.9-2.2,2.1-2.6,3.9c-0.1,0.5-1.4,1.8-2.1,1.7c-1.5-0.4,0.5-3.2,0.8-3.6c0.3-0.4,0.8-0.9,1.3-1.4
			s0.8-1.2,1.2-1.5c0.6-0.4,2.8-1,3.2-0.5C93.1,50.9,92.3,50.8,91.4,51.3z M95.4,57.3c-0.7,0.2-2,0.5-2.1-0.3c-0.2-1,1-0.8,1.7-0.9
			c1.2-0.2,2.4-1,3.8-0.5C97.9,56.4,96.9,56.8,95.4,57.3z M102.5,53.2c0.9-0.1,2.2-0.2,2.6,0.2c-0.3,1.3-3,1-4,0.5
			C101.1,53.4,101.9,53.3,102.5,53.2z M96.9,49.4c0.4,0.1,1,0.6,1.5,0.6c0.6,0,1-0.3,1.3-0.2c0.8,0.2,1.2,1.4,0.4,2
			c-0.6,0.1-0.8-0.3-1.3-0.1c-1.3,0.2-1.8,2.8-2.8,2.7c-0.9-0.1-1.4-2.3-0.5-3c0-0.6-0.4-0.7-0.4-1.3C95.4,49.7,96.1,49.3,96.9,49.4
			z M93.2,44.7c0.9,0.3,3.2,2.8,1.3,3.6c-0.1,0.1-2.8,0.4-3.4,0.3c-0.6-0.2-1-1.1-1.7-1.2c-1.3-0.2-3.1,1.6-4,0.1
			c0.2-0.9,1.2-0.9,2.2-1.2C89.4,45.8,91.6,44.3,93.2,44.7z M85,12.3c1.5,0.2,3.3-0.2,4.4,0.3c0.2,0.5-0.3,0.8-0.6,1
			c-1.9-1.4-4.6,0.8-6.3-0.7C82.6,10.8,84.1,11,85,12.3z M81.2,36.3c1.8-0.4,1.1,2.8,0,2.8C79.7,39.1,80,36.6,81.2,36.3z M71.5,23.5
			c-0.9,0.3-2.2,1-3.7,0.7c0.1-0.8,1.2-0.9,2-1.3c0.7-0.4,1-1,1.7-1c0.5,0.1,1,0.5,1.4,0.9C72.8,23.4,72,23.3,71.5,23.5z M67.6,15.5
			c1.7-0.1,4.6-1.4,5.1,0.7c-0.4,0.6-1,0.3-1.6,0.4c-1.5,0.2-3.1,1.2-4.5,0.8C66.8,16.6,67.2,16.1,67.6,15.5z M34.5,30.6
			c0-0.4,0.3-0.3,0.6-0.3C34.8,30.3,34.5,30.3,34.5,30.6z M34.8,30.8c0.1,0,0.2,0,0.3-0.1C35.1,30.8,35,30.8,34.8,30.8z M37.9,44.7
			C37.2,44.8,37,44,37,43.6c0.1-0.1,0.2-0.1,0.3-0.1c-0.1,0-0.2,0-0.2,0.1C37,43.9,37.1,44.7,37.9,44.7
			C37.9,44.7,37.9,44.7,37.9,44.7z M99.9,115c-0.7,0.1-1-1.2-0.4-1.4C100.4,113.1,100.7,114.9,99.9,115z M31,37.2
			c0.5-0.3,1.1-0.6,1.3-1.2c-0.5-0.9-1.8-0.2-1.8,0.7C30.7,36.9,30.8,37.1,31,37.2z"/>
	</g>
</g>
</svg>
