<?xml version="1.0" encoding="utf-8"?>
<!-- Generator: Adobe Illustrator 24.1.2, SVG Export Plug-In . SVG Version: 6.00 Build 0)  -->
<svg version="1.1" id="Layer_1" xmlns="http://www.w3.org/2000/svg" xmlns:xlink="http://www.w3.org/1999/xlink" x="0px" y="0px"
	 viewBox="0 0 250 250" style="enable-background:new 0 0 250 250;" xml:space="preserve">
<style type="text/css">
	.st0{fill:#FFFFFF;}
</style>
<g>
	<path class="st0" d="M229.4,91.4V82H20.5v20.8L0,158.6h20.5v9.4h208.9v-20.7L250,91.4H229.4z M105.1,113.4H93.1l-3.8,6.8h15.1
		L105.1,113.4z M191,112.9l1.6-5.2l0.1-0.3h0.3h26.5l-0.1,0.6l-1.6,5.2l-0.1,0.3H208l-6.1,18.1l-0.1,0.3h-7l0.2-0.6l5.9-17.8h-9.9
		L191,112.9z M160.6,107.8l0.1-0.3l0,0h0.3h25.6l-0.2,0.6l-1.8,5.2l-0.1,0.3h-18.2l-1.1,3.6l12.6-0.1h0.6l-0.2,0.6l-1.4,4.4
		l-0.1,0.3h-0.3l-12.6,0.1l-1.2,3.8h18l-0.1,0.6l-1.4,4.8l-0.1,0.3h-25.9l0.2-0.6L160.6,107.8z M116.3,131.2l1.6-4.8l0.1-0.2
		l0.2-0.2l20.2-12.7h-16.3l0.2-0.5l1.6-5.2l0.2-0.3h0.3H153l-0.2,0.6l-1.6,5.1v0.2l-0.2,0.2l-20.1,12.8l15.6,0.1h0.6l-0.3,0.6
		l-1.5,4.8l-0.1,0.3h-29.1L116.3,131.2z M89.3,107.4h0.3h22.8l-0.1,0.4l-2.3,23.5l-0.1,0.4h-6.6l0.1-0.4l0.6-5.5l-18-0.1l-3.4,5.8
		l-0.1,0.2h-7.7l0.4-0.7l13.9-23.5L89.3,107.4z M33.2,165.3h-9.9v-9.4H4l0.2-0.5l19.1-52.2V84.8h0.4h9.4v18.7v0.1l-15.5,44.3h15.5
		L33.2,165.3L33.2,165.3z M62.5,144.3H54l0.2-0.6l5.3-16.6H44L38.5,144l0,0.3H30l0.2-0.6l12.3-38.3l0-0.3h0.3H51l-0.2,0.6L46,120.8
		h15.6l5-15.3l0.2-0.3h8.5l-0.2,0.6L62.7,144L62.5,144.3z M209.4,139.6l-1.6,4.4l-0.1,0.3H69.6l0.2-0.6l1.7-4.4l0.1-0.3h0.3h137.9
		L209.4,139.6z M226.5,146.9v18.4h-9.9v-18.6v-0.1l15.5-44.3h-15.5V84.8h0.4h9.4v9.4h19.4l-0.2,0.6L226.5,146.9z"/>
</g>
</svg>
