<?xml version="1.0" encoding="utf-8"?>
<!-- Generator: Adobe Illustrator 24.1.2, SVG Export Plug-In . SVG Version: 6.00 Build 0)  -->
<svg version="1.1" id="Layer_1" xmlns="http://www.w3.org/2000/svg" xmlns:xlink="http://www.w3.org/1999/xlink" x="0px" y="0px"
	 viewBox="0 0 250 250" style="enable-background:new 0 0 250 250;" xml:space="preserve">
<style type="text/css">
	.st0{fill-rule:evenodd;clip-rule:evenodd;fill:#FFFFFF;}
</style>
<g>
	<path class="st0" d="M38.2,97.9l11.5-4.1L21.1,162L0,111.6l8.6-3.1l12.6,30.1L38.2,97.9z M241.2,88h8.8v70.6h-8.8V88z M224.9,88
		h8.8v70.6h-8.8V88z M208.8,151.8c-7.3,9.3-21.9,9.3-29.8-2.6c-2.3-3.4-2.4-7.1-2.4-11c-0.1-4.1,0.1-8.2,2.4-11.7
		c7.8-11.8,22.4-11.8,29.8-2.6v-6.7h8.8v41.5h-8.8V151.8z M208.8,136.3c0,1.1,0,2.1,0,2.9c-1,12.6-15.1,15.6-21.6,5.8
		c-1.4-2.1-1.5-4.6-1.5-7c-0.1-2.6,0-5.1,1.5-7.4C193.7,120.8,207.8,123.8,208.8,136.3L208.8,136.3z M139.9,151.8
		c7.3,9.3,21.9,9.3,29.8-2.6c2.2-3.4,2.4-7.1,2.4-11c0.1-4.1-0.1-8.2-2.4-11.7c-7.8-11.8-22.5-11.8-29.8-2.6V88H131v70.6h8.8
		L139.9,151.8L139.9,151.8z M139.9,136.3c0,1.1,0,2.1,0,2.9c1,12.6,15,15.6,21.6,5.8c1.4-2.1,1.4-4.6,1.4-7c0.1-2.6,0-5.1-1.4-7.4
		C154.8,120.8,140.9,123.8,139.9,136.3L139.9,136.3z M117.1,158.6H129l-17.7-22.1l15.5-19.4h-11.9l-9.5,12l-9.6-11.9H83.9l15.6,19.4
		l-17.7,22.1h11.9l11.7-14.6L117.1,158.6z M62.3,117.2c11.4,0,20.7,9.3,20.7,20.8c0,11.4-9.3,20.7-20.7,20.7s-20.7-9.3-20.7-20.7
		S50.8,117.2,62.3,117.2L62.3,117.2z M62.3,125.2c7,0,12.7,5.6,12.7,12.7c0,7-5.8,12.6-12.7,12.6c-7,0-12.7-5.6-12.7-12.6
		C49.5,130.9,55.2,125.2,62.3,125.2L62.3,125.2z"/>
</g>
</svg>
