<?xml version="1.0" encoding="utf-8"?>
<!-- Generator: Adobe Illustrator 24.1.2, SVG Export Plug-In . SVG Version: 6.00 Build 0)  -->
<svg version="1.1" id="Layer_1" xmlns="http://www.w3.org/2000/svg" xmlns:xlink="http://www.w3.org/1999/xlink" x="0px" y="0px"
	 viewBox="0 0 500 500" style="enable-background:new 0 0 500 500;" xml:space="preserve">
<style type="text/css">
	.st0{fill-rule:evenodd;clip-rule:evenodd;fill:#FFFFFF;}
</style>
<g>
	<path class="st0" d="M278,290c0.6-1.3,1.9-1,6.2-1c10.3,0,12.1,4.3,11.3,9.9l-2.5,17h23.9l0.5-1.3c0.3-0.7-1-1.8-2-3.3
		c1.9-8.3,10.7-27.4-3.7-30.8V279c12.4-1,31.3-33.8-3.2-37.5c-9.7,0-18.8,0-28.4,0l-4.4,18.2c-0.3,0.5-0.9,0.7-1.4,0.8h-13.9
		l-1.5,6.4h7c0.7,0,1,0.3,1,1l-4.3,18.4c-0.3,0.5-0.9,0.8-1.5,0.8H254l-2.3,9.8h13.7c0.7,0,1,0.3,1,1l-4.3,17.9h9.6
		C273.8,307.2,275.9,298.6,278,290L278,290z M433.7,285.4l11.1-46h-24.1l-11,46c-1.8,7-8.4,11.5-15.6,10.6c-3.1-0.3-5.3-2.6-6.5-5.2
		c-1.1-2.6,0.2-5.6,1-8.9l10.2-42.6h-24.1l-0.8,3.5c3.9,3,6.7,7,8.4,12.1c0.7,2,1.2,4.2,1.5,6.6c0.4,2.7,0.5,5.3,0.4,8
		c0,1-0.6,1.5-1.6,1.5h-0.1h-15.4l-2.9,12.2h15.1c0.7,0,1.1,0.3,1.1,0.9c0,0.2,0,0.3,0,0.5l-0.5,1.4c-2.7,8-7.2,14.8-13.1,20
		c4.2,5.4,11.7,8.2,22.6,8.3C411.8,315.7,426.6,306,433.7,285.4L433.7,285.4z M449.8,290c0.6-1.3,1.9-1,6.2-1
		c10.3,0,12.1,4.3,11.3,9.9l-2.5,17h23.9l0.5-1.3c0.3-0.7-1-1.8-2-3.3c1.9-8.3,10.7-27.4-3.7-30.8V279c12.4-1,31.3-33.8-3.2-37.5
		h-33.9l-10.6,44.4l-0.1,0.2c-3.4,9.7-8.3,17.1-15,22.2l-1.8,7.6h24.6C445.6,307.2,447.7,298.6,449.8,290L449.8,290z M454.1,271.9
		l3.2-13.4H471c1.8,0,4.1,1.8,4.9,2.9c4,5.5-4,10.6-8.4,10.6h-13.4V271.9z M348.7,255.9c7.8,0.9,11.2,5.2,10.4,13H382
		c0.1-5.1-0.5-9.5-1.8-13.3c-3.6-10.8-12.6-16.4-27-16.9c-9.4-0.2-19.4,3-26.6,8.2c0.7,0.8,1.3,1.6,1.8,2.5c1.6,2.9,2.2,6.1,1.9,9.3
		c-0.2,3.1-1.2,6.3-2.7,9.2c-2.7,5.3-7,9.8-11.3,11.9c6.9,3.8,6.5,12,4.7,19.8c-0.6,2.5-1.4,5.1-2.1,7.4c-0.3,0.9-0.5,1.8-0.8,2.6
		c1.9,2.8,3.3,3.7,8.1,4.9c5.8,1.5,11.6,1.7,17.5,0.5c16.4-3.2,29-13.9,34.3-29.8h-23.4c-2.4,7.6-7.6,11.5-15.6,11.6
		c-12.9-1.6-11.1-12.6-8.3-21.9C333.4,265.8,338.1,257.2,348.7,255.9L348.7,255.9z M259.9,315.8h-59.4l17.8-74.3h59.5l-4.1,17h-36
		l-2.4,9.9h29.5l-4.1,17h-29.5l-3.2,13.4h36L259.9,315.8z M227.1,222.4H142l-7.6,17h89.2c4.4,0,12.4-6.4,8.4-13.3
		C231.2,224.7,228.9,222.4,227.1,222.4L227.1,222.4z M193.4,298.8h-44.5l-3.6,17h44.6c4.4,0,12.4-6.4,8.4-13.3
		C197.5,301.1,195.2,298.8,193.4,298.8L193.4,298.8z M46.7,277.6h42.4l3.2-17H50.2c-4.4,0-12.4,6.4-8.4,13.3
		C42.6,275.3,44.9,277.6,46.7,277.6L46.7,277.6z M97.4,277.6h48.1l8.1-17h-28.7l-2.6,5.8l-0.6-5.8H95.9L97.4,277.6z M153.4,277.6
		h45.8c4.4,0,12.4-6.4,8.4-13.3c-0.8-1.4-3.1-3.7-4.9-3.7H157L153.4,277.6z M197.5,279.7h-44.6l-3.6,17H194c4.4,0,12.4-6.4,8.4-13.3
		C201.6,282,199.3,279.7,197.5,279.7L197.5,279.7z M144.5,279.7h-47l1.4,17h37.3L144.5,279.7z M88.7,279.7H45.4
		c-4.4,0-12.4,6.4-8.4,13.3c0.8,1.3,3.1,3.7,4.9,3.7h43.6L88.7,279.7z M135.3,298.8H99.2l1.5,17h26.5L135.3,298.8z M85.1,298.8H40.8
		c-4.4,0-12.4,6.4-8.4,13.3c0.8,1.3,3.1,3.7,4.9,3.7h44.6L85.1,298.8z M207.7,241.5h-74.3l-3.3,7.4l-4.3,9.6h78.4
		c4.4,0,12.4-6.4,8.4-13.3C211.8,243.8,209.5,241.5,207.7,241.5L207.7,241.5z M50.7,258.5h70.8l-1.7-17H54.3
		c-4.4,0-12.4,6.4-8.4,13.3C46.7,256.2,49,258.5,50.7,258.5L50.7,258.5z M244.8,203.3h-94.3l-7.6,17h98.3c4.5,0,12.4-6.4,8.4-13.3
		C248.9,205.6,246.5,203.3,244.8,203.3L244.8,203.3z M267.3,184.2H159l-7.6,17h112.3c4.4,0,12.4-6.4,8.4-13.3
		C271.4,186.5,269.1,184.2,267.3,184.2L267.3,184.2z M6,201.2h110l-1.7-17H9.5c-4.5,0-12.4,6.4-8.4,13.3
		C1.9,198.9,4.2,201.2,6,201.2L6,201.2z M23.6,220.3h94.2l-1.7-17h-89c-4.4,0-12.4,6.4-8.4,13.3C19.5,218,21.9,220.3,23.6,220.3
		L23.6,220.3z M39.3,239.4h80.3l-1.6-17H42.9c-4.5,0-12.4,6.4-8.4,13.3C35.2,237.1,37.6,239.4,39.3,239.4L39.3,239.4z M282.3,271.9
		l3.2-13.4h13.7c1.8,0,4.1,1.8,4.9,2.9c4,5.5-4,10.6-8.4,10.6h-13.4V271.9z"/>
</g>
</svg>
