<?xml version="1.0" encoding="utf-8"?>
<!-- Generator: Adobe Illustrator 24.1.2, SVG Export Plug-In . SVG Version: 6.00 Build 0)  -->
<svg version="1.1" id="Layer_1" xmlns="http://www.w3.org/2000/svg" xmlns:xlink="http://www.w3.org/1999/xlink" x="0px" y="0px"
	 viewBox="0 0 500 500" style="enable-background:new 0 0 500 500;" xml:space="preserve">
<style type="text/css">
	.st0{fill-rule:evenodd;clip-rule:evenodd;fill:#FF497C;}
</style>
<g>
	<path class="st0" d="M500,346.4v-6.9h-65.4v34.8H500v-7.1h-57.4V360H500v-6.9h-57.4v-6.7H500z M293.3,349.7v14.9
		c0,5.8,3.9,9.7,9.6,9.7h52.4v-7.1h-52.4c-1,0-1.6-0.6-1.6-1.6v-17c0-1,0.4-2.3,1.6-2.3h52.4v-6.9h-52.4
		C296,339.5,293.3,343,293.3,349.7L293.3,349.7z M418,353h-46.2v-13.5h-7.9v34.8h7.9v-14.4H418v14.4h8.2v-34.8H418V353z M204,339.5
		h-57.2v34.8h7.9V364h40.7c6,0,8.3,5,8.6,10.3h7.8c-0.5-4.9-1.5-10-6.3-12.1c3.3-0.9,6.3-2.9,6.3-6.7v-9.1
		C211.8,342.1,208,339.5,204,339.5L204,339.5z M204,354.4c0,1.3-0.4,2.6-2,2.6h-47.4v-10.6l0,0h46.2c2.3,0,3.1,1,3.1,3.3L204,354.4
		L204,354.4z M128.7,339.5H82.3c-5.4,0-9.2,3.3-9.2,8.7v17.4c0,5.4,3.9,8.8,9.2,8.8h46.5c5.4,0,9.2-3.4,9.2-8.8v-17.4
		C138.1,342.8,134.2,339.5,128.7,339.5L128.7,339.5z M130.5,363.4c0,2.8-2,3.9-4.5,3.9H85.7c-2.5,0-4.5-1.1-4.5-3.9v-13.1
		c0-2.8,2-3.9,4.5-3.9H126c2.5,0,4.5,1.1,4.5,3.9V363.4z M274.1,353.4h-43.2c-2,0-3-1.5-3-3.4c0-2,0.9-3.5,3-3.5h53v-6.9h-53
		c-7.1,0-10.8,3.9-10.8,10.7c0,5.7,3.3,10.1,9.1,10.1h45c2.1,0,2.5,2,2.5,3.8c0,1.6-0.8,3.1-2.5,3.1h-52.9v7.1h54.3
		c6.3,0,9.4-4.3,9.4-10.3C285,356.8,281.2,353.4,274.1,353.4L274.1,353.4z M57.1,339.5H0v34.8h8.1V364H55c6.3,0,10-4.4,10-10.5v-4
		C64.9,344.7,62.5,339.5,57.1,339.5L57.1,339.5z M57.1,354c0,2.3-1.6,3-3.7,3H8.1v-10.6h45.4c2.3,0,3.7,1.4,3.7,3.8v3.8L57.1,354
		L57.1,354z"/>
	<path class="st0" d="M291.9,284.1c-11.1,10.1-20.7,15.6-40.8,26.2c-18.8-8.5-31-17-41.6-25.3c-14.7-11.4-25.2-30-26.1-41.4
		L176,135.2c49.6-12.9,102.4-12.6,148,0.9l-7.4,107.4C315.6,253.1,306.9,272,291.9,284.1L291.9,284.1z M308.1,239.8l6.7-95.9
		c-39.3-12.5-86.3-12.7-129.7-1.3l6.8,97.1c0.7,10.1,8,25.5,21.9,37.4c8.4,7.1,24.8,19.1,36.9,23.7c14-7.1,26.7-15.9,36.7-24.6
		C299.9,264.9,307.3,250.7,308.1,239.8L308.1,239.8z M285.9,273.7c-9.6,8.3-22.6,17.7-35.1,23.6c-11.1-3.5-27.6-16.2-35.5-23
		c-13.8-12-19.4-24.5-20.3-36.3l-6.7-92.7c41.3-10.9,86.3-10.9,123.8,1.1l-6.6,91.5C304.3,250,298.7,261.7,285.9,273.7L285.9,273.7z
		 M191.3,147.1l1.3,16c39.4-9.9,80.7-8.9,114.9,1.5l1.5-16.3C273.5,137.4,230.4,136.8,191.3,147.1z M289.2,153l-8.9-1.5l-0.3,4.2
		l-2.9-0.4l0.7-11.1l3,0.4l-0.3,4.3l9,1.5l0.3-4.3l3,0.6l-0.9,11.1l-2.9-0.5L289.2,153L289.2,153z M246.4,149.3
		c-1.1,0-2-0.3-2.5-1.3c-0.5-0.8-0.5-3.4,0-4.2c0.5-1,1.5-1.3,2.3-1.3h12.6v2.7h-11.9c-0.6,0-0.6,1.3,0,1.3h9.4
		c1.1,0,2.1,0.7,2.4,1.5c0.3,0.9,0.3,3,0,3.9s-1.3,1.3-2.5,1.3h-12.4v-2.8h11.1c0.4,0,0.6-0.3,0.6-0.7c0-0.3-0.3-0.6-0.6-0.6
		L246.4,149.3L246.4,149.3z M239.1,150.4c0-0.6-0.5-1-1.1-1l0,0l-8.4,0.6l0.2,4.1l-2.7,0.3l-0.6-10.9l12.4-0.9
		c1.6-0.1,2.6,1.1,2.6,2.1c0.1,1.2,0.1,2.7-0.8,3.4c0.8,0.6,1,1.4,1,2.6v2.8l-2.7,0.1L239.1,150.4L239.1,150.4z M237.3,146.8
		c1.1-0.1,1-1.7,0-1.6l-8,0.6l0.1,1.5L237.3,146.8z M211.2,145.4c2.6-0.6,7.8-1.4,10.5-1.6c1.3-0.1,2.2,0.6,2.4,1.5
		c0.4,2.2,0.7,4.6,0.4,7.7c-0.1,0.9-0.9,1.6-1.9,1.8c-3.5,0.8-7.5,1.2-10.4,1.5c-0.7,0.1-1.9-0.5-2.1-1.4c-0.5-2.3-0.7-5.4-0.5-7.6
		C209.7,146.4,210.4,145.6,211.2,145.4L211.2,145.4z M221.2,152c0.4-0.1,0.5-0.5,0.5-0.7c0.1-0.9,0-3.1-0.2-3.8
		c-0.1-0.3-0.3-0.5-0.9-0.4c-1.5,0.1-5.5,0.7-7.5,1.1c-0.5,0.1-0.7,0.4-0.8,0.7c-0.1,0.7,0.1,2.7,0.3,3.8c0,0.3,0.4,0.4,0.7,0.4
		C216,152.9,219.2,152.5,221.2,152L221.2,152z M265.1,145.8c-0.6,0-1,0.3-1,0.7c-0.1,0.9-0.2,2.1-0.2,3.6c0,0.2,0.3,0.8,0.6,0.8
		c2.7,0.4,7.8,0.8,10.7,1l-0.2,2.9c-3.7-0.2-7.6-0.8-11.6-1c-1.3-0.1-2.3-0.8-2.3-2.1c-0.1-2.1,0-5.2,0.4-7.1
		c0.2-1.1,1.3-1.7,2.6-1.7c3.7,0.1,6.6,0.5,11.5,1.1l-0.2,2.8C273,146.7,268.5,146,265.1,145.8L265.1,145.8z M204.5,146.7
		c3.7-0.9,4.3,5.8,1.2,6.5l-8.7,2.2l0.4,4.3l-2.7,0.7l-1-11.2L204.5,146.7L204.5,146.7z M204.4,151c0.9-0.2,0.8-1.8-0.2-1.6
		l-7.9,1.9l0.2,1.7L204.4,151z M297.1,154.7l-0.2,1.8l8.7,2.2l-0.2,2.5l-11.6-2.7l1-11.3l11.7,2.8l-0.3,2.6l-8.7-2.1l-0.2,1.9
		l8.6,2.1l-0.2,2.2L297.1,154.7L297.1,154.7z M213.3,186.8c-1.2,1.6-2.3,4.1-2.8,6.2c-0.2,0.7-0.2,1-0.1,1.4c1.1-0.5,2.6-1,3.5-1.3
		c0.3-0.8,0.5-1.6,0.8-2.3c0.5-1.1,0.8-1.5,1.2-2.3c1.4-2.1,4.3-4.2,6.4-4.2c-0.7,0.6-2.2,2.2-2.8,3.1c-0.5,0.8-0.9,1.6-1.3,2.5
		c-0.3,0.8-0.4,1.3-0.5,2c1.1-0.3,2.2-0.6,2.9-0.6c0.5-0.3,0.6-0.8,0.9-1.3c0.8-1.5,2.4-3.3,3.5-3.8c0.8-0.4,2-0.9,2.9-0.6
		c-0.9,0.7-1.9,1.8-2.3,2.5c-0.4,0.7-1.2,2.1-1.1,2.7c0.8,0.1,1.8,0,2.3-0.1v-2.1H249v-30.4c-17.3,0-36.3,1.6-56.4,7.3l4.1,57.2h30
		v-11.2c-1.2-0.9-6.8-1.5-10.3-0.2c-0.8,0.3-3.6,1.5-4.8,2.5l-3.5,2.8c-0.3,0.3-0.4,0.9-0.4,1.3c0,1-1.2,1.8-1.9,1.6
		c-0.5-0.2-1.3-0.3-2-0.1s-1.4-0.8-1.4-1.3c-0.1-0.7,0.4-1.5,0.4-1.8s-0.1-1.3,0.8-1.9c0.4-0.3,1-0.3,1.5,0c0.1,0.1,0.3,0.1,0.4,0.1
		c0.2-0.1,0.6-0.4,0.7-0.5c0-0.6,0-1.6,0-2.1c0.1-1.1,0.2-1.7,0.5-2.7c0.3-0.9,0.9-2.2,1.3-2.9c0.8-1.3,2.4-2.6,3.6-2.5
		c-0.5,0.6-0.6,0.9-1,1.6c-0.6,1.2-1.2,3.1-1.5,4.4c-0.2,0.8-0.3,1.5-0.2,2.4c0.9-0.7,1.9-1.2,2.5-1.6c0.3-1.5,0.9-3.2,1.5-4.4
		c0.8-1.5,2.9-3.1,4.2-2.9c-1.3,1.4-2.2,3.3-2.5,4.6c-0.1,0.5-0.3,1.1-0.2,1.4c0.5-0.3,1.6-0.6,2.1-0.6c0.3-0.9,0.8-1.9,1.2-2.5
		c1.2-1.9,3.1-3,4.2-2.9c-0.9,1.1-1.6,2.2-2.1,3.7c-0.2,0.4-0.2,0.9-0.2,1.2c0.7-0.1,1.7-0.1,2.1-0.1c0.8-0.7,1.3-1.5,2.3-2.2
		c0.8-0.6,2.2-1.4,2.6-1.5V195c0-0.2-2.5-0.4-3.7-0.2c-3.3,0.4-11.4,2.9-14.8,5.3c-0.1,0.2-0.1,1.3-0.3,1.9c-0.2,0.5-0.7,1-1.2,1.2
		c-0.9,0.4-1.9-0.8-2.4-0.6s-1.5,0.6-2.5-0.2c-0.5-0.3-0.7-1.3-0.6-2c0.2-0.5,0.6-0.9,0.9-1.2c0.3-0.3,0.1-1.5,1.2-2.2
		c0.8-0.5,1.8-0.1,2.7,0.3c0.2-0.1,0.3-0.1,0.4-0.3c0.1-0.3,0.3-1.3,0.4-2.1c0.2-0.8,0.2-1.4,0.5-2.2c0.6-1.9,2.1-4.6,3.7-6
		c1.2-1.1,3.1-2,4.5-1.9C215.6,184.6,213.9,186.1,213.3,186.8L213.3,186.8z M216.9,168.5c1.2-1.6,4.3-4.1,6.7-4
		c-1.3,1.1-2.4,2.4-3.3,3.7c-1.1,1.7-1.9,3.9-2.1,5.5c0.8-0.3,2.6-0.8,3.7-1.1c0.9-2.1,2.2-4.3,3.7-5.6c1.1-0.9,2.7-1.6,4.1-1.5
		c-0.3,0.5-0.9,0.9-1.3,1.2c-0.8,0.7-1.3,1.6-1.7,2.5c-0.3,0.7-0.8,2.7-0.9,2.8c1.1,0,3,0.1,3.4,0.2c1.3-1.6,4-4,7.3-3.5
		c-1.4,0.8-4,3-3.9,4.3c2.1,1.4,5.3,4.3,5.5,7c-1.5-1.5-3.9-3-5.1-3.4c-2.9-1-6.3-1.2-9.2-0.6c-6,1.1-11.3,3.7-16.4,6.8
		c-0.1,0.8-0.6,2.1-0.9,2.5c-0.4,0.4-0.9,0.8-1.5,0.9c-0.8,0.1-1.5-0.2-2.2-0.5c-0.4-0.2-1.5,0.1-2.2-0.3c-0.5-0.2-1.2-0.9-1-2
		c0.2-1,1.1-1.6,1.3-2.5c0.2-1.4,1.2-2,1.7-2c0.6-0.1,1.1,0.1,1.6,0.3c0.2,0.1,0.4,0.3,0.7,0.4c0.2-0.1,0.5-0.3,0.7-0.4
		c0-0.2,0.6-3,0.8-4.2c0.3-1.2,0.8-2.3,1.2-3.5c1.2-3.4,4.9-6.9,7.9-6.7c-0.2,0.2-1.1,0.9-2.4,2.5c-2.2,2.5-2.7,5.2-3.5,9.8
		c1.7-0.8,3.1-1.3,4.6-1.9c0.4-1.4,0.8-2.8,1.4-4.2C215.9,170.1,216.4,169.3,216.9,168.5L216.9,168.5z M307.1,172.3h-55.3v16.3h54
		L307.1,172.3L307.1,172.3z M258.2,256.6c-0.6,0.3-1.4,0.1-1.7,0c-0.6-0.2-0.9-0.8-1-1.5c0-0.5,0.5-1.2,0.6-1.7c0-0.2-0.2-1.4,0.8-2
		c0.2-0.1,0.7-0.3,1.1-0.2s0.7,0.3,1.1,0.4c0.5-0.2,1-0.4,1.5-0.7c0.3-1.2,0.5-2.6,0.7-3.8c-2.8,1.4-6.4,2.3-9.5,2.4V294
		c12.9-6.6,27.1-17.3,33.1-23.2c9.8-9.5,16.3-19.2,17.4-33.1l0.9-12.7h-29.4c0,7.2-2.4,14.7-9.3,20.1c-0.4,1.6-0.6,4.2-0.5,4.3
		c0.9-0.4,1.8-0.7,2.6-1c0.1-0.1,1.2-2.5,1.7-3.1c1.2-1.8,2.7-3.3,4.6-4.4c1.2-0.6,2.6-1.2,3.9-0.7c-1.7,0.8-3,2.3-3.8,3.1
		c-0.7,0.8-1.6,1.9-2,3.1c-0.1,0.2-0.1,0.4-0.1,0.6c0.8-0.2,3.3-0.6,4.4-0.8c0.1,0,0.4-0.7,0.7-1.1c0.3-0.4,0.5-0.7,1-1.2
		c1.3-1.4,3.4-2.8,5.5-2.5c-1.1,0.7-2.4,1.9-3.4,3.7c-0.1,0.3-0.3,0.7-0.2,0.8c0.3,0.1,1.8,0,2.8,0.1c1.1-0.7,2.2-1.3,3.4-1.5
		c1.4-0.3,3.2-0.1,3.9,0.6c-0.8,0-1.6,0.1-2.4,0.4c-0.4,0.2-1.3,0.6-1.6,1.1c0.8,0.2,2.2,1.1,3,1.8c0.6,0.5,1.3,1.2,1.8,1.9
		c1.1,1.5,1.4,4.3,0.8,5.1c-0.2-0.5-0.4-1-0.6-1.4c-0.5-0.9-1.4-1.9-2.1-2.4c-3.5-2.7-8.6-2.8-12.7-2c-3.5,0.7-9.9,2.1-14.1,5
		c0.1,0.5-0.2,1.4-0.7,1.7C259.5,257,258.6,256.4,258.2,256.6L258.2,256.6z M265.1,261.6c0.5-0.7,1-1.7,1.3-2.2
		c1-1.6,2.4-2.7,3.3-3.2c1.3-0.6,3.4-1,4.4-0.5c-1,0.2-1.8,0.7-2.6,1.2c-0.7,0.5-2.2,1.8-2.6,2.4s-0.7,1.2-0.8,1.5
		c1.2-0.3,2.6-0.5,3.3-0.5c0.5-0.7,1.9-2.3,3-3c0.8-0.6,2.6-1.2,3.7-0.7c-1.1,0.3-3,1.8-3.7,2.9c-0.2,0.2-0.3,0.5-0.3,0.6
		c0.6,0,1.7,0.2,2.2,0.2c0.1,0,1.7-1,2.4-1.2c0.9-0.3,2.5-0.6,3.5,0.4c-0.7,0-1.4,0.1-1.9,0.3c-0.8,0.3-1.1,0.6-1.4,1.1
		c1.5,0.8,3,1.6,3.9,3.1c0.3,0.5,0.8,1.7,0.5,2.5c-0.5-0.6-1.1-1.2-1.6-1.5c-0.7-0.4-1.3-0.8-2.1-1.2c-2.8-1-6.4-1.3-9.3-0.9
		c-3.7,0.5-8.3,2.3-10.7,3.9c0.2,0.7-0.2,1.6-0.6,1.8c-0.9,0.4-1.7-0.3-1.9-0.3c-0.2,0.1-0.9,0.3-1.5,0.1c-0.5-0.2-0.8-1.1-0.6-1.7
		c0.2-0.4,0.8-1.1,0.8-1.1c-0.1-0.9,0.5-1.5,1.4-1.6c0.5,0,0.8,0.3,1.2,0.4c0.4-0.2,0.6-0.3,0.8-0.4c0.2-0.8,0.5-1.6,0.8-2.2
		c0.4-1.1,0.9-2.1,1.5-3.1c1-1.5,2.7-2.9,4.7-2.9c-0.6,0.5-1,0.7-1.4,1.2c-0.7,0.8-1.2,1.6-1.6,2.5c-0.4,0.8-0.8,2-0.9,3
		C263.3,262.4,264.2,262,265.1,261.6L265.1,261.6z M264.8,270c0.5-0.2,1.1-0.4,1.6-0.3c-1.3,0.8-2.5,2.1-2.8,3.5
		c0,0.2,0,0.5,0.1,0.6c0.4-0.1,1.3-0.3,1.6-0.4c0.2-0.3,0.5-0.8,0.8-1.2c0.9-1.2,2.3-2.5,4.1-2c-1.2,0.5-1.9,1.3-2.4,2.3
		c-0.1,0.2-0.2,0.5,0,0.5c0.3,0,1.5,0,1.7,0c0.5-0.5,2.1-1.4,3.2-1.1c-0.5,0.3-1,0.6-1.5,1c-0.1,0.1-0.2,0.3-0.3,0.5
		c1,0.5,1.8,1,2.6,1.7c0.4,0.4,1,1,1.4,2.2c-0.9-0.8-4-2.2-5.6-2.3c-1.1,0-2.4,0.2-3.1,0.3c-2.6,0.6-5.3,1.8-7.6,3.1
		c0,0.4-0.1,1-0.6,1.4c-0.3,0.3-1.1,0.4-1.4,0c-0.2-0.2-1.2,0-1.4-0.3c0,0-0.3-0.4-0.3-0.9s0.3-0.8,0.6-1.1c0.1-0.1,0.1-1,0.7-1.3
		c0.4-0.2,0.8-0.1,1.1,0.1c0.1-0.1,0.2-0.2,0.3-0.2c0.1-1,0.3-1.9,0.6-2.9c0.5-1.4,2.2-3.2,3.6-3.1c-1,1.1-1.8,2.5-2,3.7
		c-0.1,0.4-0.1,1.1-0.1,1.5c0.3-0.2,0.7-0.4,1.1-0.5c0.2-0.4,0.6-1.3,0.8-1.7C262.3,271.9,263.6,270.5,264.8,270L264.8,270z
		 M198.3,239.4c0.2,5.4,2.4,11.9,5.4,16.4h45l-0.1-6.3c-5.8,0-14.6-3.8-18.1-10.1L198.3,239.4L198.3,239.4z M229.3,225.3
		c0,28.6,41.9,28.6,41.9,0.3v-34.5h-41.9L229.3,225.3L229.3,225.3z M242.8,211.6c0.5-0.5,0.9-1.3,1-1.9c0.1-0.5-1.3-0.5-1.8-0.2
		c-0.3,0.2-0.5,0.5-0.8,0.8c-0.2,0.2-0.7,0.4-1,0.2c-0.3-0.3,0.2-0.8,0.2-1.1c0-0.5-0.9,0.2-1.4,0c-0.3-0.1-0.3-0.6-0.1-0.9
		c0.1-0.1,0.4-0.1,0.6-0.2c0.1-0.2,0.1-0.4,0.2-0.6c0.1-0.2,0.3-0.3,0.5-0.5c0.6-0.6,1.7-1.5,1.9-1.5c0.5,0,1.2,0.3,1.7,0.1
		c0.1,0,0.3-0.2,0.1-0.3l-1.2-0.8c0-0.3,0.1-0.5,0.3-0.7c0.6-0.5,1.4-0.2,2.2-0.3c0.5-0.1,1-0.3,1.4-0.6c0.1,0.4-0.1,0.7-0.1,1.1
		c0.5,0.4,0.9,0.8,1.4,1.2c1.3,1.3,1.9,3.3,2,5c0.1,0.8,0.1,1.6,0.1,2.9c0.2-0.6,0.4-1.4,0.4-2.1c0.2-2.1-0.1-4-1.3-5.6
		c-0.5-0.7-1-1.3-1.6-1.9c0.1-0.6,0.6-1.7,1.1-1.3c0.3,0.2-0.2,0.6,0.2,0.8s0.9,0.2,1.1,0.2c0.5-0.1,1.1-0.3,1.6-0.3
		c0.2,0,0.6-0.1,0.7,0.1c0.1,0.2-0.1,0.3-0.3,0.3c-0.2,0.1-0.5,0-0.7,0.2c-0.1,0.1-0.3,0.3-0.2,0.5s0.3,0.4,0.6,0.3
		c0.9-0.3,1.9-0.4,2.9-0.4c0.5,0,0.4,0.4,0.2,0.5s-0.4,0.2-0.6,0.2c-0.9,0.1-1.6,0.2-1.5,0.7c0.1,0.4,0.7,0,0.8,0.3
		s-0.2,0.4-0.2,0.6c0.1,0.6,1.2,0.5,1.7,0.3c0.4-0.1,1-0.4,1.2-0.2c0.2,0.2,0,0.6-0.2,0.6c-0.6,0.2-1.5,0.4-1.8,0.7
		c-0.2,0.3,0,0.9,0.3,0.9c0.7,0.1,1.4,0.1,1.9,0.2c0.2,0.1,0.4,0.2,0.4,0.4s-0.2,0.3-0.4,0.4c-0.4,0.1-1,0.1-1.3,0.2
		c-0.1,0-0.3,0.1-0.3,0.2c0.1,0.2,0.6,0.2,0.9,0.2c0.2,0,0.6,0.2,0.6,0.4s-0.2,0.3-0.6,0.3c-0.6,0-1.2,0-1.4,0.1
		c-0.1,0-0.5,0.1-0.5,0.3c0,0.3,0.5,0.1,0.7,0.4c0.1,0.2-0.2,0.4-0.3,0.7c0,0.1,0.1,0.2,0.2,0.2c0.4,0.2,0.9,0.2,1.3,0.1
		c0.4-0.1,0.6,0.5,0.5,0.5c-0.5,0.3-1.7,0-2,0.2c-0.4,0.2,0.6,0.8,0.6,0.9c0,0.1-0.2,0.3-0.2,0.3c-0.5,0.2-1.2-0.2-1.6,0
		c-0.3,0.2-0.2,0.7-0.4,1s-0.8,0.2-1.1,0.4s-0.3,0.8,0,1.1s0.5,0.4,0.9,0.6c1.6,0.8,3.3,1.6,4.8,1.5c0.8,0,2.1-0.1,2.8,0.1
		c0.9,0.2,1.9,1,2.4,1.3c0.4,0.2,1.1,0.3,1.6,0.1c0.4-0.1,0.6-0.6,0.5-0.9c-0.2-1.2-2.3-1.6-2.3-2.9c0-1.4-0.2-2.2-0.6-3.1
		c-0.2-0.3-0.2-1.1,0.2-1.2c0.3-0.1,0.4,0.4,0.7,0.3c1.2-0.5,1.2-2.4,2.5-2.7c0.7-0.2,3.2-0.2,3-0.5c-0.5-0.7-0.3-1.6,0-2
		c0.2-0.2,0.7-0.5,0.9-0.2c0.3,0.3-0.4,0.7-0.4,1.2c0,0.4,0.7,1.3,0.2,1.8c-0.3,0.3-2.5,0.4-3.2,1.4c-0.4,0.6-0.4,1.1,0,1
		c0.4,0,0.7-0.5,1.1-0.8c0.6-0.5,1.1-0.7,1.5-0.3c0.2,0.2-0.1,0.5-0.4,0.6s-1,0.8-0.8,1c0.3,0.3,1.8-1.1,2.2-0.8
		c0.2,0.2-0.8,1.1-0.6,1.4c0.2,0.3,0.9-0.2,1.1,0.1c0.3,0.4-0.5,1.1-1,1.4c-0.4,0.2-0.2,1.1-0.7,1.4c-0.6,0.3-0.8,0.8-0.8,0.9
		c0.1,0.1,0.2,0.2,0.4,0.1c0.6-0.4,1.4-0.9,1.7-0.8c0.2,0.1-0.1,1-0.3,1.4c-0.2,0.4,0.9,0.2,0.8,0.5s-0.2,0.7-0.1,1
		c0.1,0.5-1.3,0.6-1.4,0.9c-0.1,0.4,0.1,0.5,0.3,0.5c0.8,0.1,0.7,0.9,0.4,1.2c-0.4,0.4-1.2,0.6-1.8,0.5c-0.6-0.1-1.8-0.3-2.6-0.9
		c-0.2-0.2-0.6,0-0.6,0.2c0,0.3,0.2,0.7,0.4,1.1c0.2,0.6,0.1,1.4-0.1,2c-0.4,1.2-1.6,2.2-1.9,3.7c-0.1,0.4,0,0.9,0.2,1.2
		c0.3,0.8,0.8,1.6,1.4,2.2c0.1,0.2,0.2,0.5,0.1,0.7c-0.1,0.3-1.1,1-1.4,1.2c-0.9,0.8-1.6,1.9-1.8,3c-0.1,0.4-1,0.8-1.6,1
		c-0.4,0.1-0.9,0.2-1.3,0.5c0,0.3,0.2,0.6,0.2,1c0.1,0.6-0.7,0.9-1.2,1.1c-0.3,0.1-0.5,0.2-0.9,0.2c-0.1,0-0.1-0.2-0.1-0.3
		c0.2-0.8,0.3-1.5,0.6-2.1c0.1-0.2,0.3-0.4,0.5-0.6l2.2-1.9l1.7-2.5c0.2-0.2,0.2-0.4,0.2-0.6c0-0.5-0.2-0.9-0.5-1.2
		c-0.4-0.4-1.1-0.4-1.5-0.7c-0.6-0.3-1.5-1.2-1.6-1.2c-0.3-0.2-0.5,0.4-0.6,0.8c-0.1,0.5,0.1,1.1,0.1,1.6c0,0.2,0,0.4-0.2,0.5
		c-1.5,0.8-3.3,1.1-4.3,2.5c-0.2,0.2-0.4,0.5-0.6,0.7c-0.6,0.4-1.6-0.1-2.1,0.6c-0.2,0.3,0,0.7,0,1c0,0.2-0.4,0.4-0.7,0.6
		c-0.4,0.2-0.8,0.3-1.2,0.3c-0.4-0.2-0.2-0.9,0-1.3c0.2-0.5,0.4-0.9,0.7-1.2c0.5-0.5,1.2-1.1,1.6-1.3c0.4-0.2,0.9-0.2,1.3-0.3
		c0.5-0.1,0.9-0.3,1.3-0.6c0.6-0.4,1.2-0.9,1.6-1.6c0.4-0.8,0.4-1.8-0.2-2.5c-0.5-0.6-1-1.2-1.3-1.9c-0.2-0.4,0-0.9,0.2-1.2
		c0,0-0.2-0.1-0.3-0.1c-2.2,0.1-4.5-0.2-6.5-1c-0.5-0.2-1.1-0.9-1.5-1c-0.4,0-0.6,0.4-0.9,0.5c-0.6,0.2-1.3,0.1-2,0
		c-0.8-0.1-2.4-0.4-3.5-0.8c-0.2,0-0.4,0.1-0.6,0.2c-0.2,0.2-0.3,0.5-0.3,0.9s0.1,0.8,0,1.2c0,0.2-0.1,0.4-0.1,0.7
		c0.1,0.2,0.3,0.4,0.5,0.5c0.3,0.3,0.3,0.8,0.3,1.2c0,0.5-0.2,1.1,0.2,1.4c0.2,0.2,0.6-0.1,0.9,0c0.3,0.1,0.4,0.5,0.5,0.8
		c0,0.4-0.3,1.2-0.5,1.4c-0.1,0.1-0.4,0-0.5,0c-0.4-0.2-0.9-0.5-1.1-1c-0.1-0.2-0.1-0.4-0.2-0.6c-0.2-0.3-0.5-0.5-0.8-0.8
		c-0.4-0.3-0.4-0.8-0.5-1.2c0-0.4,0-0.8,0.1-1.2c0.1-0.8,0-1.7-0.2-2.5c-0.1-0.6-0.5-1.2-0.3-1.9c0.1-0.3,0.3-0.6,0.6-0.7
		c1.5-0.1,3-0.3,4.4-0.8l-0.9-0.9c-0.2,0-0.4,0.2-0.7,0.2c-0.2,0-0.6-0.4-0.7-0.5c-0.5-0.7-0.8-1.5-1-2.4c-0.2-0.3-0.4-0.6-0.8-0.8
		c-0.3-0.1-0.5-0.2-0.8-0.2c-0.8,0.3-1.5,1-1.5,1.9c0,0.2,0.1,0.4,0.1,0.6c0,0.4-0.3,0.6-0.6,0.9c-0.3,0.3-0.5,0.5-0.6,0.9
		c-0.1,0.3,0,0.6,0.2,0.9c0.1,0.2,0.2,0.4,0.1,0.6c-0.2,0.5-1.4,1-1.8,1c-0.1,0-0.2-0.2-0.3-0.3c-0.1-0.5-0.1-1,0-1.4
		c0.3-0.4,0.6-0.8,0.7-1.2c0.2-0.6,0.1-1.3,0.4-1.9c0.8-1.3,2.8-3.9,3.1-4.3c0.2-0.2,0.6-0.3,0.8-0.2c0.8,0.5,1.3,1.2,2.1,1.6
		c0.4,0.2,1,0.5,1.4,0.2s0.4-2.4,0.7-2.9C240.6,213.8,241.9,212.6,242.8,211.6L242.8,211.6z M258.2,198.7l-0.3,1.3h-1.2l1.6-6.1h1.4
		l1.5,6.1H260l-0.3-1.3H258.2L258.2,198.7z M259.4,197.6l-0.6-2.4l-0.5,2.4H259.4L259.4,197.6z M254.9,195.7c0-0.4-0.1-0.9-0.4-1.1
		c-0.3-0.1-0.7,0-0.9,0.2c-0.3,0.4-0.3,1-0.2,1.9c0,0.5,0,1.3,0.1,1.7c0.3,0.8,1,0.9,1.3,0.4c0.2-0.2,0.2-0.7,0.2-1.2h-0.7v-0.9h1.8
		v3.3h-0.9v-0.4c0,0-0.4,0.3-0.6,0.4c-0.3,0.1-0.9,0.1-1.4-0.1c-0.4-0.2-0.8-0.7-1-1.4s-0.1-1.7-0.1-2.5c0-0.9,0.5-1.8,1.1-2.2
		c0.4-0.2,1.2-0.2,1.7-0.1c0.6,0.2,1.1,1.1,1,1.9h-1L254.9,195.7L254.9,195.7z M234.2,194c0.5,0.3,0.8,0.9,0.7,1.5h-1
		c0-0.6-0.3-0.9-0.8-0.9c-0.3,0-0.7,0.4-0.7,0.6c0,0.8,0.7,1,1.2,1.1c0.4,0.1,0.8,0.3,1,0.7c0.4,0.6,0.4,1.2,0.1,2
		c-0.2,0.4-0.7,0.9-1.2,1c-0.6,0.1-1.2,0.1-1.8-0.4c-0.4-0.3-0.7-1-0.6-1.6h1.1c0,0.3,0,0.5,0.2,0.7c0.1,0.1,0.3,0.3,0.6,0.3
		c0.4,0,0.8-0.3,0.9-0.7v-0.1c-0.1-0.9-1.6-1-2.2-1.6c-0.7-0.7-0.4-1.9,0.1-2.4C232.4,193.5,233.4,193.5,234.2,194L234.2,194z
		 M265.4,198.1c0,0.2,0,1.1,0.1,1.6c0,0.2,0.2,0.4,0.2,0.4h-1.2c-0.2,0-0.2-0.3-0.2-0.5c0-0.6,0-2.1-0.6-2.1H263v2.6h-1.2v-6h2.1
		c1.1,0,1.6,0.6,1.6,1.4c0,0.5,0,1.2-0.6,1.4C265.2,197.1,265.4,197.6,265.4,198.1z M263.8,194.8H263v1.6h0.6
		C264.7,196.4,264.7,194.8,263.8,194.8z M237.7,200h-1.2v-5.1h-1.3v-1h3.8v1h-1.3V200L237.7,200z M245.2,200v-5.1h-1.3v-1h3.9v1
		h-1.4v5.1H245.2L245.2,200z M248.2,193.9h3.9v1h-1.4v5.1h-1.2v-5.1h-1.3V193.9z M268.4,194.9v5.1h-1.2v-5.1h-1.3v-1h3.8v1H268.4z
		 M242.1,198.3V194h1.1v4.2c0,2.5-3.7,2.5-3.7,0.1V194h1.1v4.4C240.7,199.2,242.1,199.2,242.1,198.3L242.1,198.3z M244.7,202.8
		c0.3-0.3,0.8-0.7,1.4-1.1c0.5-0.3-0.1,0.4-0.1,0.7c-0.1,0.8-0.7,0.9-1.4,0.8C244.4,203.2,244.5,203,244.7,202.8L244.7,202.8z
		 M273.8,222.3h29.6l1.3-16.3h-30.9V222.3L273.8,222.3z M248.9,273.3l-30.5-0.1c6.3,5.7,20.8,16.2,30.4,20.5L248.9,273.3
		L248.9,273.3z M226.8,205.5c-0.6,0.5-1.8,1.8-2,2.4c0.5,0.2,1.5,0.6,2,1V205.5L226.8,205.5z"/>
</g>
</svg>
