<?xml version="1.0" encoding="utf-8"?>
<!-- Generator: Adobe Illustrator 24.1.2, SVG Export Plug-In . SVG Version: 6.00 Build 0)  -->
<svg version="1.1" id="Layer_1" xmlns="http://www.w3.org/2000/svg" xmlns:xlink="http://www.w3.org/1999/xlink" x="0px" y="0px"
	 viewBox="0 0 250 250" style="enable-background:new 0 0 250 250;" xml:space="preserve">
<style type="text/css">
	.st0{fill:#FFFFFF;}
</style>
<g>
	<rect x="31.5" y="138.6" class="st0" width="0.8" height="6.4"/>
	<polygon class="st0" points="43.8,143.5 39.1,138.4 39.1,145 39.8,145 39.8,140.2 44.5,145.3 44.5,138.6 43.8,138.6 	"/>
	<path class="st0" d="M53.7,141.5l-1-0.4c-0.3-0.1-0.5-0.3-0.7-0.4c-0.3-0.4-0.3-0.9,0-1.3c0.2-0.2,0.5-0.3,0.7-0.3
		c0.2,0,0.5,0.1,0.6,0.2c0.2,0.1,0.3,0.4,0.5,0.6l0.7-0.4c-0.2-0.3-0.3-0.6-0.7-0.7c-0.3-0.1-0.7-0.3-1-0.3c-0.5,0-1,0.1-1.3,0.4
		s-0.5,0.7-0.5,1.1c0,0.4,0.1,0.7,0.3,1c0.3,0.3,0.5,0.6,1,0.7l0.8,0.4c0.3,0.1,0.5,0.3,0.8,0.5c0.2,0.2,0.3,0.4,0.3,0.8
		c0,0.4-0.1,0.6-0.3,0.9c-0.3,0.2-0.6,0.4-0.9,0.4c-0.3,0-0.6-0.1-0.8-0.3c-0.3-0.3-0.4-0.6-0.5-0.9l-0.7,0.4
		c0.1,0.4,0.3,0.9,0.7,1.1c0.8,0.6,2,0.5,2.8-0.1c0.4-0.4,0.6-0.9,0.6-1.4c0-0.4-0.1-0.8-0.3-1.1C54.3,141.8,54,141.6,53.7,141.5z"
		/>
	<path class="st0" d="M64.6,139.5c-0.1-0.3-0.3-0.4-0.5-0.6c-0.1-0.1-0.2-0.1-0.3-0.1s-0.2-0.1-0.3-0.1c-0.2-0.1-0.3-0.1-0.4-0.1
		c-0.2,0-0.4,0-0.6,0h-1.3v6.4H62v-2.9l0,0h0.6c0.3,0,0.7,0,1-0.1c0.2-0.1,0.4-0.1,0.6-0.3c0.2-0.1,0.3-0.4,0.5-0.6
		c0.1-0.3,0.2-0.6,0.2-0.9c0-0.1,0-0.3-0.1-0.4C64.8,139.8,64.7,139.6,64.6,139.5z M63.7,141.2c-0.4,0.2-0.8,0.3-1.3,0.3H62v-2.1
		h0.4c0.5-0.1,0.9,0.1,1.3,0.3c0.3,0.2,0.4,0.6,0.3,0.9C64,140.7,63.9,141,63.7,141.2z"/>
	<rect x="71.1" y="138.6" class="st0" width="0.8" height="6.4"/>
	<path class="st0" d="M80.4,142c0.4,0.1,0.9-0.1,1.3-0.4c0.3-0.3,0.4-0.8,0.4-1.2c0-0.3-0.1-0.6-0.2-0.9c-0.1-0.3-0.3-0.4-0.4-0.6
		c-0.2-0.1-0.3-0.2-0.5-0.3c-0.3-0.1-0.7-0.1-0.9-0.1h-1.5v6.4h0.8V142h0.1l2.3,3.1h0.9L80.4,142L80.4,142z M79.9,141.4h-0.6v-2.1
		h0.6c0.4-0.1,0.8,0.1,1.2,0.3c0.3,0.2,0.3,0.6,0.3,0.9c0.1,0.3-0.1,0.6-0.3,0.8C80.8,141.4,80.3,141.4,79.9,141.4z"/>
	<rect x="88.7" y="138.6" class="st0" width="0.8" height="6.4"/>
	<polygon class="st0" points="100.9,143.5 96.3,138.4 96.3,145 97,145 97,140.2 101.7,145.3 101.7,138.6 100.9,138.6 	"/>
	<path class="st0" d="M114.7,141.7H112v0.6h1.8c0,0.3-0.1,0.6-0.2,0.9c-0.2,0.3-0.3,0.5-0.5,0.6c-0.4,0.4-1,0.6-1.6,0.6
		c-0.7,0-1.3-0.3-1.8-0.8c-0.5-0.5-0.8-1.2-0.7-1.9c-0.1-0.7,0.2-1.4,0.7-1.9c0.4-0.5,1.2-0.8,1.8-0.8c0.4,0,0.8,0.1,1.2,0.3
		s0.7,0.6,0.8,0.9l0.7-0.5c-0.3-0.4-0.7-0.8-1.1-1.1c-0.5-0.3-1.1-0.4-1.6-0.4c-0.4,0-0.8,0.1-1.3,0.2c-0.3,0.1-0.7,0.4-1,0.6
		c-0.3,0.3-0.6,0.7-0.8,1.1c-0.2,0.4-0.3,0.9-0.3,1.4c0,0.6,0.2,1.2,0.4,1.8c0.3,0.5,0.7,0.9,1.2,1.2c0.3,0.1,0.5,0.2,0.8,0.3
		c0.3,0.1,0.6,0.1,0.8,0.1c0.8,0.1,1.7-0.3,2.3-0.9c0.6-0.6,0.9-1.5,0.8-2.4L114.7,141.7L114.7,141.7z"/>
	<path class="st0" d="M130.3,143.2c0.1,0.4,0,0.7-0.1,1.1c-0.1,0.1-0.3,0.3-0.5,0.3c-0.1,0-0.3-0.1-0.4-0.1
		c-0.1-0.1-0.3-0.2-0.4-0.4l-0.5,0.5c0.1,0.2,0.4,0.4,0.6,0.5c0.2,0.1,0.4,0.1,0.7,0.1c0.4,0.1,0.8-0.1,1.1-0.4
		c0.3-0.4,0.4-0.8,0.4-1.2v-5h-0.8L130.3,143.2z"/>
	<polygon class="st0" points="137.8,145 141.1,145 141.1,144.3 138.5,144.3 138.5,141.9 141.1,141.9 141.1,141.1 138.5,141.1 
		138.5,139.3 141.1,139.3 141.1,138.6 137.8,138.6 	"/>
	<polygon class="st0" points="152.7,143.3 151,138.4 149.3,143.3 147.7,138.6 146.9,138.6 149.4,145.3 151,140.3 152.6,145.3 
		155.1,138.6 154.4,138.6 	"/>
	<polygon class="st0" points="161.1,145 164.5,145 164.5,144.3 161.9,144.3 161.9,141.9 164.5,141.9 164.5,141.1 161.9,141.1 
		161.9,139.3 164.5,139.3 164.5,138.6 161.1,138.6 	"/>
	<polygon class="st0" points="171.9,138.6 171.1,138.6 171.1,145 174.3,145 174.3,144.3 171.9,144.3 	"/>
	<polygon class="st0" points="181.2,138.6 180.4,138.6 180.4,145 183.6,145 183.6,144.3 181.2,144.3 	"/>
	<polygon class="st0" points="189.8,145 193.2,145 193.2,144.3 190.6,144.3 190.6,141.9 193.2,141.9 193.2,141.1 190.6,141.1 
		190.6,139.3 193.2,139.3 193.2,138.6 189.8,138.6 	"/>
	<path class="st0" d="M201.6,142c0.4,0.1,0.9-0.1,1.3-0.4c0.3-0.3,0.4-0.8,0.4-1.2c0-0.3-0.1-0.6-0.1-0.9c-0.1-0.3-0.3-0.4-0.4-0.6
		c-0.1-0.1-0.4-0.2-0.5-0.3c-0.3-0.1-0.6-0.1-0.9-0.1h-1.5v6.4h0.8V142h0.1l2.4,3.1h0.9L201.6,142L201.6,142z M201.1,141.4h-0.6
		v-2.1h0.6c0.4-0.1,0.8,0.1,1.2,0.3c0.3,0.2,0.4,0.6,0.3,0.9c0.1,0.3-0.1,0.6-0.3,0.8C201.9,141.4,201.5,141.4,201.1,141.4z"/>
	<polygon class="st0" points="211.6,141.4 209.9,138.6 209.1,138.6 211.3,142.1 211.3,145 212,145 212,142.1 214.1,138.6 
		213.3,138.6 	"/>
	<path class="st0" d="M6.7,117.8c2,0,3.6-0.5,4.7-1.4c1.1-1,1.6-2.4,1.6-4.3c0-1.1-0.2-2.1-0.6-3.1c-0.4-0.8-0.9-1.6-1.6-2.2
		c-0.5-0.5-1.2-0.8-1.9-0.9c-1.1-0.2-2.3-0.3-3.4-0.3H0v23.1h2.7v-11.1h0.4l8.4,11.1H15l-8.9-11H6.7z M2.7,115.8V108h2.1
		c2.1,0,3.6,0.3,4.3,0.9s1.1,1.6,1.1,3.1c0,1.4-0.4,2.4-1.1,2.9c-0.8,0.6-2.2,0.8-4.3,0.8L2.7,115.8L2.7,115.8z"/>
	<path class="st0" d="M41,117.3L41,117.3L41,117.3L41,117.3z"/>
	<path class="st0" d="M41,117.3c0-1.6-0.3-3.2-0.9-4.7c-0.6-1.5-1.5-2.8-2.7-3.9c-1.2-1.2-2.5-2-4-2.6c-3-1.2-6.4-1.2-9.5,0
		c-1.5,0.6-2.9,1.5-4,2.6s-2,2.4-2.6,3.9c-1.3,3-1.3,6.3,0,9.3c0.6,1.5,1.5,2.8,2.7,3.9c4.9,4.8,12.6,4.8,17.5,0
		c1.2-1.1,2-2.4,2.7-3.9C40.7,120.5,41,118.9,41,117.3z M37.4,121c-1,2.3-2.8,4.2-5.2,5.2c-1.1,0.5-2.4,0.7-3.6,0.7h0
		c-1.3,0-2.5-0.3-3.6-0.8c-1.1-0.5-2.2-1.2-3.1-2.1s-1.6-1.9-2-3.1c-0.5-1.2-0.7-2.4-0.7-3.6c0-1.3,0.3-2.6,0.8-3.8
		c0.5-1.2,1.2-2.2,2-3.1c0.9-0.9,1.9-1.6,3-2.1s2.4-0.7,3.6-0.7c1.3,0,2.5,0.3,3.6,0.8c1.2,0.5,2.2,1.2,3,2.1c0.9,0.9,1.6,1.9,2,3.1
		c0.5,1.2,0.8,2.4,0.7,3.7C38.2,118.6,37.9,119.8,37.4,121z"/>
	<path class="st0" d="M55,116.6c1-0.3,2-0.8,2.5-1.7c0.6-0.9,0.9-2,0.8-3.1c0-0.9-0.2-1.9-0.6-2.8c-0.4-0.8-1-1.6-1.7-2.1
		c-0.6-0.4-1.3-0.8-2-0.9c-0.5-0.1-1-0.2-1.5-0.2c-0.7-0.1-1.3-0.1-2.2-0.1h-4.8v23.1h4.8c1.6,0.1,3.3-0.1,4.8-0.4
		c0.9-0.3,1.8-0.7,2.4-1.3c0.6-0.6,1.1-1.3,1.5-2.2c0.3-0.8,0.5-1.8,0.5-2.7c0-1.4-0.4-2.8-1.2-3.8C57.5,117.4,56.3,116.7,55,116.6z
		 M48.2,108.1h2.2c2.1,0.1,3.5,0.3,4.3,0.9s1.1,1.6,1.1,3.1c0,0.6-0.1,1.2-0.3,1.8c-0.2,0.4-0.5,0.8-0.9,1.2
		c-0.8,0.6-2.2,0.8-4.2,0.8h-2.2C48.2,115.9,48.2,108.1,48.2,108.1z M56.1,124.2c-0.3,0.6-0.6,1.1-1.1,1.4c-0.5,0.3-1,0.5-1.5,0.6
		c-1,0.2-2.2,0.2-3.2,0.2h-2.2V118h3c0.8,0,1.5,0.1,2.3,0.2c0.5,0.1,0.8,0.3,1.3,0.5c0.6,0.3,1.1,0.8,1.5,1.4
		C56.7,121.4,56.7,122.9,56.1,124.2z"/>
	<polygon class="st0" points="63.7,128.8 75.8,128.8 75.8,126.3 66.4,126.3 66.4,117.4 75.8,117.4 75.8,114.8 66.4,114.8 
		66.4,108.2 75.8,108.2 75.8,105.7 63.7,105.7 	"/>
	<path class="st0" d="M87.2,117.8c2.1,0,3.6-0.5,4.7-1.4c1.1-1,1.6-2.4,1.6-4.3c0-1.1-0.2-2.1-0.6-3.1c-0.3-0.8-0.9-1.6-1.6-2.2
		c-0.6-0.4-1.2-0.8-1.9-0.9c-1.1-0.2-2.3-0.3-3.4-0.3h-5.4v23.1h2.7v-11.1h0.4l8.4,11h3.5l-8.8-11L87.2,117.8L87.2,117.8z
		 M83.2,115.8V108l2.1,0.1c2.1,0,3.6,0.3,4.3,0.9s1.1,1.6,1.1,3.1c0,1.4-0.3,2.3-1.1,2.9c-0.7,0.6-2.2,0.8-4.3,0.8L83.2,115.8
		L83.2,115.8z"/>
	<polygon class="st0" points="111.2,105.7 95.3,105.7 95.3,108.3 101.8,108.3 101.8,128.8 104.6,128.8 104.6,108.3 111.2,108.3 	"/>
	<path class="st0" d="M137.9,117.3L137.9,117.3L137.9,117.3L137.9,117.3z"/>
	<path class="st0" d="M136.9,112.6c-0.6-1.5-1.5-2.8-2.6-3.9c-1.1-1.2-2.5-2-4-2.6c-3.1-1.2-6.4-1.2-9.4,0c-1.5,0.6-2.9,1.5-4.1,2.6
		s-2.1,2.4-2.7,3.9c-1.3,3-1.3,6.3,0,9.3c0.6,1.5,1.6,2.8,2.7,3.9c4.8,4.7,12.7,4.7,17.5,0c1.1-1.1,2.1-2.4,2.6-3.9
		c0.6-1.4,0.9-3.1,0.9-4.7C137.9,115.7,137.6,114.1,136.9,112.6z M134.3,121c-1,2.3-2.9,4.2-5.1,5.2c-1.1,0.5-2.4,0.7-3.6,0.7
		l0.1-0.1c-1.3,0-2.5-0.3-3.6-0.8c-1.2-0.5-2.2-1.2-3.1-2.1s-1.6-1.9-2.1-3.1c-0.4-1.2-0.7-2.4-0.7-3.6c0-1.3,0.3-2.5,0.7-3.7
		c0.5-1.2,1.2-2.2,2.1-3.1c0.8-0.9,1.9-1.6,3.1-2.1c1.2-0.4,2.4-0.7,3.6-0.7c1.3,0,2.5,0.3,3.6,0.8c1.1,0.5,2.2,1.2,3.1,2.1
		c0.9,0.9,1.6,1.9,2.1,3.1c0.5,1.2,0.8,2.4,0.7,3.7C135,118.6,134.8,119.8,134.3,121z"/>
	<path class="st0" d="M161.4,116.6c1.1-0.3,1.9-0.8,2.6-1.7c0.6-0.9,0.9-2,0.9-3.1c0-0.9-0.2-1.9-0.6-2.8c-0.4-0.8-0.9-1.6-1.7-2.1
		c-0.6-0.4-1.3-0.8-2.1-0.9c-0.5-0.1-1.1-0.2-1.6-0.2c-0.6-0.1-1.4-0.1-2.2-0.1h-4.8v23.1h4.8c1.6,0.1,3.3-0.1,4.9-0.4
		c0.9-0.3,1.8-0.7,2.4-1.3c0.6-0.6,1.1-1.3,1.4-2.2c0.4-0.8,0.5-1.8,0.5-2.7c0.1-1.4-0.4-2.8-1.2-3.8
		C163.9,117.4,162.7,116.7,161.4,116.6z M154.6,108.1h2.1c2.1,0.1,3.5,0.3,4.3,0.9s1.1,1.6,1.1,3.1c0,0.6-0.1,1.2-0.3,1.8
		c-0.2,0.4-0.5,0.8-0.9,1.2c-0.8,0.6-2.2,0.8-4.1,0.8h-2.1L154.6,108.1L154.6,108.1z M162.5,124.2c-0.3,0.6-0.6,1.1-1.1,1.4
		c-0.4,0.3-0.9,0.5-1.5,0.6c-1.1,0.2-2.1,0.2-3.2,0.2h-2.1V118h2.9c0.8,0,1.5,0.1,2.3,0.2c0.4,0.1,0.9,0.3,1.3,0.5
		c0.6,0.3,1.1,0.8,1.4,1.4C163.1,121.4,163.1,122.9,162.5,124.2z"/>
	<path class="st0" d="M184.5,128.1l-8.3-10.3h0.5c2.1,0,3.6-0.5,4.6-1.4c1.1-1,1.6-2.4,1.6-4.3c0-1.1-0.2-2.1-0.6-3.1
		c-0.4-0.8-0.9-1.6-1.6-2.2c-0.6-0.4-1.2-0.8-1.9-0.9c-1.1-0.2-2.3-0.3-3.4-0.3h-5.4v23.1h2.7v-11h0.4l8.4,11h3.5l0,0h2.1l3-7.1h9.1
		l3,7.1h3l-10.5-24L184.5,128.1z M172.8,115.8V108h2.1c2.1,0.1,3.6,0.3,4.3,0.9s1.1,1.6,1.1,3.1c0,1.4-0.4,2.3-1.1,2.9
		c-0.7,0.6-2.1,0.8-4.3,0.8L172.8,115.8L172.8,115.8z M191,119.4l3.7-8.5l3.6,8.5H191z"/>
	<polygon class="st0" points="214.2,123.4 207.4,105.7 204.4,105.7 214.2,129.7 223.9,105.7 220.9,105.7 	"/>
	<path class="st0" d="M250,117.3L250,117.3L250,117.3L250,117.3z"/>
	<path class="st0" d="M246.4,108.7c-1.1-1.2-2.5-2-4-2.6c-3.1-1.2-6.4-1.2-9.4,0c-1.5,0.6-2.9,1.5-4.1,2.6c-1.1,1.1-2.1,2.4-2.6,3.9
		c-1.3,3-1.3,6.3,0,9.3c0.6,1.5,1.6,2.8,2.7,3.9c4.9,4.7,12.6,4.7,17.5,0c1.1-1.1,2.1-2.4,2.6-3.9c0.6-1.4,0.9-3.1,0.9-4.7
		s-0.3-3.2-0.9-4.7C248.4,111.2,247.6,109.8,246.4,108.7z M246.4,121c-1,2.3-2.9,4.2-5.1,5.2c-1.1,0.5-2.4,0.7-3.6,0.7l0.1-0.1
		c-1.3,0-2.5-0.3-3.6-0.8c-1.1-0.5-2.2-1.2-3.1-2.1c-0.9-0.9-1.6-1.9-2.1-3.1s-0.7-2.4-0.7-3.6c0-1.3,0.3-2.5,0.7-3.7
		c0.5-1.2,1.2-2.2,2.1-3.1s1.9-1.6,3.1-2.1c1.1-0.4,2.4-0.7,3.6-0.7c1.3,0,2.5,0.3,3.6,0.8c1.1,0.5,2.2,1.2,3.1,2.1
		c0.9,0.9,1.6,1.9,2.1,3.1c0.5,1.2,0.8,2.4,0.7,3.7C247.1,118.6,246.9,119.8,246.4,121z"/>
</g>
</svg>
