<?xml version="1.0" encoding="utf-8"?>
<!-- Generator: Adobe Illustrator 24.1.2, SVG Export Plug-In . SVG Version: 6.00 Build 0)  -->
<svg version="1.1" id="Layer_1" xmlns="http://www.w3.org/2000/svg" xmlns:xlink="http://www.w3.org/1999/xlink" x="0px" y="0px"
	 viewBox="0 0 250 250" style="enable-background:new 0 0 250 250;" xml:space="preserve">
<style type="text/css">
	.st0{fill-rule:evenodd;clip-rule:evenodd;fill:#FFFFFF;}
</style>
<g>
	<path class="st0" d="M210.7,201.2V168H197v33.2H210.7z M138.2,187.4v-18.9h-13.3v14.4c0,4.2-0.1,5.4-0.4,6.4
		c-0.9,3.1-4.1,4.3-7.4,4.3c-4.5,0-6.6-1.7-7.5-4.5c-0.2-0.9-0.3-1.9-0.4-2.9c-0.1-1,0-2.2,0-3.5v-14.3H95.6v19
		c0,4.3,1.4,7.5,3.8,9.6c4,3.9,10.8,5.1,17.1,5.1c7.6,0,13.5-1.1,17.7-5.2C136.6,195,138.2,192.2,138.2,187.4L138.2,187.4z
		 M73,185.1c-0.6,0-1.3-0.1-2-0.1h-15c-0.7,0-1.6,0.1-2,0.1c0.2-0.2,0.7-0.7,1.2-1.4l6.8-11.2c0.9-1.5,1.3-2.5,1.5-2.9
		c0.1,0.4,0.5,1.4,1.4,3l7,11.4C72.2,184.3,72.7,184.8,73,185.1L73,185.1z M98.3,201.2L68,155.9H51.1l4.4,5.3
		c0.1,0.1,0.2,0.1,0.4,0.2c-0.1,0-0.3,0.1-0.4,0.2l-26.4,39.5h15.3l4.1-6.8c0.1-0.4,0.2-0.7,0.2-0.9c0.1,0,0.5,0.2,1,0.2H77
		c0.4,0,0.7-0.1,0.9-0.2c0,0.2,0,0.4,0.2,0.7l4.3,6.9L98.3,201.2L98.3,201.2L98.3,201.2L98.3,201.2z M193.3,184.1
		c0-3.6-1.5-8-6.1-13.9l-11.4-14.3H160l8.9,10.1c1.5,1.7,3.4,3.2,3.4,3.2c-2.2-1.2-4.9-1.7-7.1-1.7c-5.2,0-10.5,1.1-15.2,3.7
		c-5,2.7-8.4,7.4-8.4,13.5c0,4.7,2.1,8.3,4.8,11.1c6,6,17,6.7,21.1,6.7c6,0,15.3-1.3,20.6-6.1C191.2,193.3,193.3,189.4,193.3,184.1
		L193.3,184.1z M180.2,184.5c0,3.4-2.2,6-5.1,7.5c-2.3,1.2-5.1,1.6-7.5,1.6c-2.4,0-5.3-0.5-7.6-1.7c-2.8-1.4-5-4.2-5-7.2
		c0-3.6,2.7-6.5,6-7.9c2-0.9,4.4-1.2,6.3-1.2c1.9,0,4.6,0.2,6.7,1C177.7,178.3,180.2,181.3,180.2,184.5L180.2,184.5z M206.3,47.7
		c-9.8,0-19.4,3.3-27.1,9.4c-7.7-6-17.2-9.4-27.1-9.4c-9.9,0-19.4,3.3-27.1,9.4c-7.7-6-17.2-9.4-27.1-9.4c-9.8,0-19.4,3.3-27.1,9.4
		c-7.7-6-17.2-9.4-27.1-9.4c-24.1,0-43.6,19.5-43.6,43.7c0,24.1,19.5,43.7,43.7,43.7c9.8,0,19.4-3.3,27.1-9.4
		c7.7,6.1,17.2,9.4,27.1,9.4c9.9,0,19.4-3.3,27.1-9.4c7.7,6.1,17.2,9.4,27.1,9.4c9.8,0,19.4-3.3,27.1-9.4c7.7,6.1,17.2,9.4,27.1,9.4
		c24.2,0,43.7-19.6,43.7-43.7C250,67.3,230.5,47.7,206.3,47.7L206.3,47.7z M63.7,118.6c-5.6,4-12.6,6.5-19.9,6.5
		c-18.6,0-33.7-15.1-33.7-33.7s15-33.7,33.7-33.7c7.3,0,14.3,2.5,19.9,6.5c-6.1,7.7-9.4,17.2-9.4,27.1
		C54.3,101.3,57.6,110.8,63.7,118.6L63.7,118.6z M70.8,111.4c-4.3-5.8-6.6-12.8-6.6-19.9c0-7.2,2.3-14.2,6.6-20
		c4.3,5.8,6.6,12.8,6.6,20C77.4,98.6,75.1,105.6,70.8,111.4L70.8,111.4z M117.9,118.6c-5.8,4.2-12.8,6.5-19.9,6.5
		c-7.1,0-14.1-2.3-19.9-6.5c6.1-7.7,9.4-17.3,9.4-27.1c0-9.9-3.3-19.4-9.4-27.1c5.8-4.3,12.8-6.5,19.9-6.5c7.5,0,14.4,2.4,19.9,6.5
		c-6.1,7.7-9.4,17.2-9.4,27.1C108.4,101.3,111.8,110.8,117.9,118.6L117.9,118.6z M125,111.4c-4.3-5.8-6.5-12.8-6.5-19.9
		c0-7.2,2.2-14.2,6.5-20c4.3,5.8,6.6,12.8,6.6,20C131.6,98.6,129.3,105.6,125,111.4L125,111.4z M172,118.6
		c-5.5,4.1-12.4,6.5-19.9,6.5c-7.5,0-14.3-2.4-19.9-6.5c6.1-7.7,9.4-17.3,9.4-27.1c0-9.9-3.3-19.4-9.4-27.1
		c5.6-4.1,12.4-6.5,19.9-6.5c7.4,0,14.3,2.4,19.9,6.5c-6.1,7.7-9.4,17.2-9.4,27.1C162.6,101.3,166,110.8,172,118.6L172,118.6z
		 M179.2,111.4c-4.3-5.8-6.6-12.8-6.6-19.9c0-7.2,2.3-14.2,6.6-20c4.3,5.8,6.6,12.8,6.6,20C185.8,98.6,183.5,105.6,179.2,111.4
		L179.2,111.4z M206.3,125.1c-7.3,0-14.3-2.5-19.9-6.5c6.1-7.7,9.4-17.3,9.4-27.1c0-9.9-3.3-19.4-9.4-27.1c5.6-4,12.5-6.5,19.9-6.5
		c18.6,0,33.7,15,33.7,33.7C240,110,224.9,125.1,206.3,125.1L206.3,125.1z"/>
</g>
</svg>
