<?xml version="1.0" encoding="utf-8"?>
<!-- Generator: Adobe Illustrator 24.1.2, SVG Export Plug-In . SVG Version: 6.00 Build 0)  -->
<svg version="1.1" id="Layer_1" xmlns="http://www.w3.org/2000/svg" xmlns:xlink="http://www.w3.org/1999/xlink" x="0px" y="0px"
	 viewBox="0 0 250 250" style="enable-background:new 0 0 250 250;" xml:space="preserve">
<style type="text/css">
	.st0{fill:#FFFFFF;}
</style>
<g>
	<path class="st0" d="M125.1,193.2c-37.4,0-68-30.8-68-68.1c0-8.5,1.5-16.4,4.4-23.9l39.8,80c0.5,1.1,1.2,2,2.4,2c1.2,0,2-0.8,2.4-2
		l18.4-41c0.1-0.5,0.5-0.8,0.8-0.8s0.7,0.5,0.8,0.8l18.4,41c0.5,1.1,1.2,2,2.4,2s2-0.8,2.4-2l39.7-80c2.8,7.5,4.4,15.4,4.4,23.9
		C193,162.4,162.4,193.2,125.1,193.2L125.1,193.2z M125.1,109.5c-0.5,0-0.7-0.5-1-0.8l-21.3-48c7-2.5,14.5-3.9,22.3-3.9
		s15.3,1.4,22.1,3.9l-21.3,48C125.6,109.3,125.5,109.5,125.1,109.5L125.1,109.5z M103.2,159c-0.5,0-0.5-0.5-0.8-0.8L67.9,88.5
		C74,79,82.3,71,92.4,65.5l24.9,55.3c0.3,0.8,1.1,1.2,1.7,1.2h12.1c0.8,0,1.5-0.1,2-1.2l24.8-55.4c9.9,5.6,18.4,13.5,24.5,23
		L147.6,158c-0.1,0.5-0.5,0.8-0.8,0.8c-0.5,0-0.7-0.5-1-0.8l-13.1-29.7c-0.5-1.1-1-1.2-2-1.2h-11.9c-1,0-1.5,0.1-2,1.2l-12.6,29.8
		C104,158.5,103.8,159,103.2,159L103.2,159z M125.1,200c41.5,0,74.9-33.5,74.9-74.9c0-41.6-33.4-75.1-74.9-75.1
		C83.5,50,50,83.5,50,125.1C50,166.6,83.5,200,125.1,200L125.1,200z"/>
</g>
</svg>
