<?xml version="1.0" encoding="utf-8"?>
<!-- Generator: Adobe Illustrator 24.1.2, SVG Export Plug-In . SVG Version: 6.00 Build 0)  -->
<svg version="1.1" id="Layer_1" xmlns="http://www.w3.org/2000/svg" xmlns:xlink="http://www.w3.org/1999/xlink" x="0px" y="0px"
	 viewBox="0 0 250 250" style="enable-background:new 0 0 250 250;" xml:space="preserve">
<style type="text/css">
	.st0{fill:#FFFFFF;}
</style>
<g>
	<path class="st0" d="M93.2,93.3c2.7-10.9,10.9-19.8,21.6-23.3c4.6,14.2,17.9,24.4,33.6,24.4c2.9,0,5.8-0.4,8.4-1.1
		c-3.7,14.1-16.5,24.5-31.8,24.5C109.7,117.8,96.9,107.4,93.2,93.3 M206.6,196.1c0-0.4-0.1-0.9-0.3-1.3c-0.1-0.4-0.3-0.8-0.6-1.1
		c-0.3-0.3-0.6-0.6-1-0.8c-0.4-0.2-0.9-0.3-1.4-0.3s-0.9,0.1-1.4,0.3c-0.4,0.2-0.8,0.4-1,0.8c-0.3,0.3-0.5,0.7-0.6,1.1
		c-0.2,0.4-0.3,0.8-0.3,1.3c0,0.5,0.1,0.9,0.3,1.3c0.1,0.4,0.3,0.8,0.6,1.1c0.3,0.3,0.6,0.6,1,0.8c0.4,0.2,0.9,0.3,1.4,0.3
		s0.9-0.1,1.4-0.3c0.4-0.2,0.8-0.4,1-0.8c0.3-0.3,0.5-0.7,0.6-1.1C206.5,197,206.6,196.6,206.6,196.1 M165.4,160.5
		c0-2.4-0.4-4.8-1.3-7.1c-0.8-2.2-1.9-4.1-3.4-5.9c-1.5-1.6-3.4-3-5.6-4.1c-2.1-0.9-4.6-1.4-7.3-1.4c-2.8,0-5.1,0.5-7.4,1.4
		c-2.1,1-3.9,2.4-5.5,4.1c-1.5,1.7-2.6,3.6-3.4,5.9c-0.8,2.3-1.2,4.6-1.2,7.1c0,2.4,0.4,4.8,1.2,7s1.9,4.1,3.4,5.9
		c1.5,1.7,3.4,3,5.5,4.1c2.2,1,4.6,1.5,7.4,1.5c2.7,0,5.1-0.5,7.3-1.5c2.2-1,4.1-2.4,5.6-4.1c1.4-1.7,2.6-3.6,3.4-5.9
		C164.9,165.3,165.4,162.9,165.4,160.5 M92.1,84.9c0-14.1,8.8-26,21.3-30.8c-0.2,1.7-0.3,3.2-0.3,4.9c0,2.9,0.4,5.8,1.1,8.5
		c-9.9,3.3-18,10.9-21.8,20.6C92.2,87.2,92.1,86.1,92.1,84.9 M124.9,52.1c18.2,0,32.9,14.7,32.9,32.8c0,0.9-0.1,1.9-0.1,2.8
		c-5.3-12.8-17.9-21.9-32.7-21.9c-2.9,0-5.8,0.4-8.7,1.1c-0.7-2.5-1-5.1-1-7.8c0-2,0.2-3.9,0.5-5.8
		C118.8,52.6,121.9,52.1,124.9,52.1 M148.4,91.9c-14.6,0-27-9.5-31.3-22.7c2.6-0.7,5.3-0.9,8-0.9c14.6,0,26.9,9.5,31.3,22.6
		C153.8,91.6,151.1,91.9,148.4,91.9 M160.3,84.9c0-7.3-2.2-14-6-19.6c-6.4-9.5-17.1-15.7-29.4-15.7s-23,6.3-29.3,15.7
		c-3.8,5.6-6,12.3-6,19.6c0,19.6,15.8,35.3,35.3,35.3C144.5,120.2,160.3,104.5,160.3,84.9L160.3,84.9z M218.2,198.8L218.2,198.8
		v-6.8h0.8v8h-1l-4.6-6.9l0,0v6.9h-0.9v-8h1L218.2,198.8z M207.4,196.1c0,0.6-0.1,1.2-0.3,1.7c-0.2,0.5-0.5,0.9-0.9,1.3
		c-0.4,0.4-0.8,0.7-1.3,0.9s-1.1,0.3-1.6,0.3c-0.6,0-1.1-0.1-1.6-0.3s-0.9-0.5-1.3-0.9c-0.4-0.4-0.7-0.8-0.9-1.3s-0.3-1.1-0.3-1.7
		c0-0.6,0.1-1.1,0.3-1.6c0.2-0.5,0.5-0.9,0.9-1.3c0.4-0.4,0.8-0.7,1.3-0.9s1.1-0.3,1.6-0.3c0.6,0,1.1,0.1,1.6,0.3
		c0.5,0.2,0.9,0.5,1.3,0.9c0.4,0.4,0.7,0.8,0.9,1.3C207.3,194.9,207.4,195.5,207.4,196.1L207.4,196.1z M193.9,200.1h-0.8v-8h0.8
		V200.1z M187,193.4c-0.3-0.5-0.9-0.8-1.5-0.8c-0.3,0-0.4,0-0.6,0.1s-0.4,0.1-0.6,0.3c-0.1,0.1-0.3,0.3-0.4,0.4
		c-0.1,0.2-0.1,0.4-0.1,0.7c0,0.3,0.1,0.6,0.3,0.8c0.3,0.2,0.5,0.4,0.8,0.5c0.3,0.1,0.6,0.3,1,0.3c0.4,0.1,0.7,0.3,1,0.4
		c0.3,0.1,0.5,0.4,0.8,0.6c0.2,0.3,0.3,0.7,0.3,1.1c0,0.4-0.1,0.7-0.3,1c-0.2,0.3-0.4,0.5-0.6,0.7s-0.5,0.4-0.8,0.5
		c-0.3,0.1-0.6,0.1-0.9,0.1c-0.5,0-0.9-0.1-1.4-0.3s-0.8-0.5-1.1-0.9l0.8-0.5c0.2,0.3,0.4,0.5,0.7,0.7s0.7,0.3,1.1,0.3
		c0.2,0,0.4,0,0.6-0.1c0.2-0.1,0.4-0.2,0.6-0.3c0.1-0.1,0.3-0.3,0.4-0.4s0.2-0.4,0.2-0.6s-0.1-0.5-0.2-0.7s-0.3-0.3-0.5-0.4
		c-0.2-0.1-0.4-0.3-0.6-0.3s-0.5-0.2-0.8-0.3s-0.5-0.2-0.8-0.3c-0.3-0.1-0.4-0.3-0.6-0.4c-0.2-0.1-0.4-0.4-0.5-0.6
		c-0.1-0.3-0.1-0.6-0.1-0.9s0.1-0.7,0.2-1c0.2-0.3,0.4-0.5,0.6-0.7c0.3-0.2,0.6-0.3,0.9-0.4c0.3-0.1,0.6-0.1,0.9-0.1
		c0.4,0,0.8,0.1,1.2,0.2c0.4,0.2,0.7,0.4,1,0.8L187,193.4z M177.2,193.4c-0.4-0.5-0.9-0.8-1.5-0.8c-0.3,0-0.4,0-0.6,0.1
		c-0.3,0.1-0.4,0.1-0.6,0.3c-0.2,0.1-0.3,0.3-0.4,0.4c-0.1,0.2-0.1,0.4-0.1,0.7c0,0.3,0.1,0.6,0.3,0.8c0.3,0.2,0.5,0.4,0.8,0.5
		c0.3,0.1,0.6,0.3,1,0.3c0.4,0.1,0.7,0.3,1,0.4c0.3,0.1,0.5,0.4,0.8,0.6c0.2,0.3,0.3,0.7,0.3,1.1c0,0.4-0.1,0.7-0.2,1
		c-0.2,0.3-0.4,0.5-0.6,0.7s-0.5,0.4-0.8,0.5c-0.3,0.1-0.6,0.1-0.9,0.1c-0.5,0-0.9-0.1-1.4-0.3s-0.8-0.5-1.1-0.9l0.8-0.5
		c0.1,0.3,0.4,0.5,0.7,0.7s0.7,0.3,1.1,0.3c0.3,0,0.4,0,0.6-0.1s0.4-0.2,0.6-0.3c0.1-0.1,0.3-0.3,0.4-0.4s0.1-0.4,0.1-0.6
		s0-0.5-0.1-0.7s-0.3-0.3-0.5-0.4s-0.4-0.3-0.6-0.3s-0.5-0.2-0.8-0.3s-0.5-0.2-0.8-0.3c-0.3-0.1-0.4-0.3-0.6-0.4
		c-0.2-0.1-0.4-0.4-0.5-0.6c-0.1-0.3-0.1-0.6-0.1-0.9s0.1-0.7,0.2-1c0.1-0.3,0.4-0.5,0.6-0.7c0.3-0.2,0.6-0.3,0.9-0.4
		c0.3-0.1,0.6-0.1,0.9-0.1c0.4,0,0.8,0.1,1.2,0.2c0.4,0.2,0.7,0.4,1,0.8L177.2,193.4z M163.1,197.3h3.4l-1.7-4.2L163.1,197.3z
		 M162,200.1h-0.9l3.4-8h0.8l3.4,8h-0.9l-0.9-2.1h-4.1L162,200.1z M153.4,195.6h1.3c0.4,0,0.7,0,0.9-0.1c0.3-0.1,0.4-0.1,0.6-0.3
		c0.2-0.1,0.3-0.3,0.4-0.4c0.1-0.2,0.1-0.4,0.1-0.6c0-0.2,0-0.4-0.1-0.5c-0.1-0.2-0.2-0.4-0.4-0.5c-0.1-0.1-0.3-0.2-0.6-0.3
		s-0.6-0.1-0.9-0.1h-1.3V195.6z M152.7,192.1h2.3c0.8,0,1.4,0.2,1.9,0.6c0.4,0.3,0.7,0.9,0.7,1.6c0,0.7-0.3,1.3-0.7,1.6
		c-0.5,0.4-1.1,0.6-1.9,0.6h-1.5v3.7h-0.8V192.1z M138.3,192.1h0.8v3.4h4.4v-3.4h0.8v8h-0.8v-3.8h-4.4v3.8h-0.8V192.1z M131,200.1
		h-0.8v-7.3h-2.7v-0.8h6.2v0.8H131V200.1z M122.7,200.1h-0.8v-8h0.8V200.1z M109.4,199L109.4,199l2-6.9h0.9l2,6.9l0,0l1.9-6.9h0.9
		l-2.4,8h-0.9l-2-6.9l0,0l-2,6.9h-0.9l-2.3-8h0.9L109.4,199z M97.6,200.1h-0.8v-3.4l-2.9-4.6h1l2.4,3.8l2.3-3.8h1l-2.9,4.6
		L97.6,200.1L97.6,200.1z M85.5,195.6H87c0.4,0,0.7,0,0.9-0.1c0.3-0.1,0.4-0.1,0.6-0.3c0.2-0.1,0.3-0.3,0.3-0.4
		c0.1-0.2,0.2-0.4,0.2-0.6c0-0.2-0.1-0.4-0.2-0.5c-0.1-0.2-0.2-0.4-0.3-0.5c-0.2-0.1-0.3-0.2-0.6-0.3s-0.6-0.1-0.9-0.1h-1.4V195.6z
		 M85.5,200.1h-0.8v-8h2.4c0.8,0,1.4,0.2,1.9,0.6c0.4,0.3,0.7,0.9,0.7,1.6c0,0.6-0.2,1-0.5,1.4c-0.4,0.4-0.9,0.6-1.5,0.7l2.3,3.8h-1
		l-2.2-3.7h-1.4L85.5,200.1L85.5,200.1z M76.3,199.3H80v0.8h-4.5v-8h0.8L76.3,199.3L76.3,199.3z M66.1,199.3h4.3v0.8h-5.1v-8h4.9
		v0.8h-4.2v2.7H70v0.8h-3.9V199.3z M52.8,199L52.8,199l2-6.9h1l2,6.9h0l1.9-6.9h0.9l-2.3,8h-1l-2-6.9h0l-2,6.9h-1l-2.4-8h0.9
		L52.8,199z M41.6,199.3h4.2v0.8h-5.1v-8h4.9v0.8h-4.1v2.7h3.9v0.8h-3.8V199.3z M31.8,198.5c0,0.3,0.2,0.6,0.5,0.8
		c0.2,0.2,0.5,0.3,0.8,0.3c0.3,0,0.5-0.1,0.7-0.2c0.2-0.1,0.4-0.3,0.5-0.4c0.2-0.2,0.2-0.4,0.3-0.6c0-0.3,0-0.4,0-0.7v-5.5h0.8v5.8
		c0,0.3,0,0.6,0,0.8c0,0.3-0.2,0.6-0.4,0.8c-0.2,0.3-0.5,0.4-0.7,0.6c-0.3,0.2-0.7,0.3-1,0.3c-0.5,0-1-0.1-1.4-0.4
		c-0.4-0.3-0.5-0.7-0.7-1.2L31.8,198.5z M182.4,157.9h7.8c1.9,0,3.6-0.2,4.9-0.6c1.4-0.4,2.4-0.9,3.3-1.6c0.8-0.6,1.4-1.4,1.7-2.4
		c0.4-0.9,0.6-1.9,0.6-2.9s-0.2-1.9-0.6-2.9c-0.3-0.9-0.9-1.7-1.7-2.4c-0.8-0.7-1.9-1.3-3.3-1.6c-1.3-0.4-2.9-0.6-4.9-0.6h-7.8
		V157.9z M182.4,181.8H178v-42.7h13.1c4.4,0,7.8,0.9,10.3,2.9c2.5,1.9,3.8,4.7,3.8,8.6c0,2.9-0.9,5.5-2.9,7.5s-4.6,3.2-8.1,3.6
		l12.3,20.2h-5.4l-11.6-19.9h-7.3L182.4,181.8L182.4,181.8z M170,160.5c0,3.2-0.6,6.3-1.7,8.9s-2.6,5.1-4.6,7.1
		c-1.9,2-4.3,3.6-7,4.6s-5.6,1.7-8.8,1.7c-3.2,0-6.1-0.6-8.8-1.7s-5.1-2.6-7.1-4.6c-1.9-1.9-3.6-4.4-4.7-7.1
		c-1.2-2.7-1.7-5.8-1.7-8.9c0-3.3,0.5-6.3,1.7-9c1.2-2.7,2.7-5.1,4.7-7.1c2-1.9,4.4-3.6,7.1-4.6c2.7-1.1,5.6-1.6,8.8-1.6
		c3.1,0,6.1,0.5,8.8,1.6s5.1,2.7,7,4.6c2,2,3.6,4.4,4.6,7.1C169.4,154.2,170,157.2,170,160.5L170,160.5z M99.6,175.3h0.2l14-36.2
		h4.7l-16.7,42.6h-4.3l-16.2-42.6H86L99.6,175.3z M44.6,166.6h18.5l-9.2-22.4L44.6,166.6z M38.3,181.8h-5l18.6-42.7H56l18.6,42.6
		h-5.1l-4.7-11.2H43L38.3,181.8z M4.3,181.8H0v-42.7h25.7v3.9H4.3v14.6h19.9v3.9H4.3V181.8z M234,181.8h-4.3v-18.4l-16-24.3h5.4
		l12.7,20.1l12.7-20.1h5.5l-16,24.3L234,181.8L234,181.8z"/>
</g>
</svg>
