<?xml version="1.0" encoding="utf-8"?>
<!-- Generator: Adobe Illustrator 24.1.2, SVG Export Plug-In . SVG Version: 6.00 Build 0)  -->
<svg version="1.1" id="Layer_1" xmlns="http://www.w3.org/2000/svg" xmlns:xlink="http://www.w3.org/1999/xlink" x="0px" y="0px"
	 viewBox="0 0 250 250" style="enable-background:new 0 0 250 250;" xml:space="preserve">
<style type="text/css">
	.st0{fill-rule:evenodd;clip-rule:evenodd;fill:#FFFFFF;}
</style>
<g>
	<path class="st0" d="M72,124.6v0.7c0,41.9-72.1,41.9-72.1,0v-0.7C0,82.7,72,82.7,72,124.6L72,124.6z M110.3,137.7
		c-7.3,6.2-19.6,6.8-26.1-0.1c-6.6-7-6.6-17.8,0-24.7c6.5-6.9,17.2-7.5,24.5-1.5c0.3,0.3,0.5,0.5,0.5,1c0,0.8-0.8,1.6-1.5,2.4
		c-0.3,0.3-1.3,1.8-1.7,1.8c-1,0-1-0.3-1.7-0.8c-0.2-0.2-0.3-0.2-0.4-0.3c-4.8-3.3-11.9-3-15.5,1.8c-2.4,3-3.4,7-2.5,10.6
		c1.5,6.5,6.3,9.9,12.9,9c1.8-0.2,3.5-0.7,4.6-1.4c0.3-0.1,1.5-0.8,1.5-1.1v-5.7c0-0.4-0.7-0.3-1-0.3h-6.2c-0.8,0-1.5-0.2-1.5-1
		v-3.4c0-0.5,0.4-1,0.9-1h12.9c0.5,0,0.8,0.4,0.8,1v12.9C110.9,136.8,110.3,137.7,110.3,137.7L110.3,137.7z M237.4,125.5H230v-11.2
		c0-0.5,0.6-0.7,1-0.7c1.5,0,7.1-0.1,8.4,0.4c3.2,1,4.5,2.6,4.5,5.9C243.8,123.1,240.4,125.5,237.4,125.5L237.4,125.5z M249.8,122.2
		c-0.9,5.4-6.2,8-11,8.7c-1.5,0.2-6.4,0.1-8.3,0.1c-0.6,0-0.5,0.1-0.5,0.6v9.3c-0.1,0.6-0.6,0.9-1.2,0.9h-3.3c-1,0-1.8-0.8-1.8-1.5
		v-31.1c0-0.7,0.8-1.3,1.3-1.3h13.1c2.7,0,4.9,1.1,7.3,2.3c0.2,0.2,0.4,0.3,0.6,0.4C249.8,113.9,250.4,117.8,249.8,122.2
		L249.8,122.2z M188.3,109.8c0,1.4-0.1,11,0,16.5c0,2.8,0.1,3.7,0.8,6.3c1.6,5.6,3.8,7.5,9.2,9.3c2.4,0.4,3.2,0.5,5.6,0.5
		c0.8-0.1,2.9-0.3,3.6-0.5c4.6-1.2,7.5-3.9,9-8.3c0.1-0.2,0.1-0.2,0.1-0.4c0.3-0.9,0.8-3.3,0.8-4.2c0-1.3,0.1-2.5,0.1-3.9v-15
		c0-0.4,0-1.2-0.3-1.5c-0.1-0.3-0.6-0.7-1-0.7h-4.2c-0.2,0-0.5,0.3-0.7,0.5c-0.2,0.3-0.1,0.6-0.1,1.1v16c0,1.6-0.1,2.9-0.1,4.3
		c-0.1,0.4-0.7,2.2-0.8,2.7c-1.8,3.7-4.8,4.2-8.5,4.2c-1.5,0-3.7-1.1-4.7-2.2c-2.7-2.7-2.5-5.7-2.5-9.1v-16c0-0.4,0-0.7-0.2-1
		c-0.2-0.3-0.4-0.5-0.8-0.5h-4C188.8,108.1,188.3,108.8,188.3,109.8L188.3,109.8z M154.7,125.9c0-3.6,0.5-6.4,3-9.2
		c0.8-0.9,2.2-1.9,3.2-2.5c2.9-1.3,7.3-1.6,10.1,0.2c0.8,0.5,0.8,0.4,1.8,1.2c3.3,2.6,5.1,7.4,4.2,11.5c-0.7,3.1-1.1,4-3.2,6.6
		c-1.6,1.6-4.3,3.2-6.6,3.2c-5.1-0.1-9.7-1.6-11.6-6.8c-0.1-0.3-0.1-0.3-0.2-0.5C155.2,128.8,154.7,126.5,154.7,125.9L154.7,125.9z
		 M148.2,124.8c0,10.5,8,17.6,18.2,17.6c11.4-1.1,16.4-7.4,17.3-17.5c0-6-3.2-11.9-8.3-15c-4.5-2.7-10.7-3.3-15.6-1.5
		C153,111.1,148.2,117.5,148.2,124.8L148.2,124.8z M122.9,124.6c-0.2-0.9-0.1-8.7-0.1-10.3c0-0.5,0.5-0.8,1-0.8
		c1.4,0,9.1-0.1,10.2,0.4c6.3,2.5,5.1,9.5-0.8,10.5C132.1,124.8,124,124.6,122.9,124.6L122.9,124.6z M116.6,109.4v31.1
		c0,0.5,0.4,1,0.8,1.2c0,0,0.3,0.1,0.3,0.1c0.6,0.3,3.1,0.1,3.9,0.1c0.4,0,0.7-0.1,1-0.3c0.3-0.3,0.3-0.4,0.3-1v-7.5
		c0-0.8-0.1-1.8,0-2.5c0-0.6,0.3-0.4,0.8-0.4h6.4c0.1,0.3,1.4,2,1.6,2.4l3,4.2c0.5,0.7,3.3,4.7,3.7,5c0.3,0.1,0.7,0.3,1.1,0.3h4.4
		c0.5,0,1.4-0.6,0.9-1.4l-8-11.3c0-0.6,7.8-2,7.8-10.5c0-4.5-2.5-8.3-6.8-9.8l-1-0.3c-1-0.3-2.7-0.6-3.7-0.6H118
		C117.4,108.1,116.6,108.8,116.6,109.4L116.6,109.4z M24.5,135.4H33c2,0,3.6-1.7,3.6-3.6c0-2-1.7-3.6-3.6-3.6c-2.8,0-5.6,0-8.4,0
		c-0.7,0-1.2,0.6-1.2,1.3c0,1.6,0,3.2,0,4.7C23.5,134.8,23.9,135.3,24.5,135.4L24.5,135.4z M54.3,108.1c0.7,0,1.3,0.5,1.3,1.2v31.3
		c0,0.7-0.6,1.3-1.3,1.3c-1.5,0-3.1,0-4.6,0c-0.7,0-1.3-0.6-1.3-1.3v-31.3c0-0.7,0.6-1.2,1.3-1.2C51.2,108.1,52.8,108.1,54.3,108.1
		L54.3,108.1z M23.5,120.5c0,0.7,0.5,1.2,1.2,1.2c2.2,0,4.4,0,6.6,0c2,0,3.6-1.7,3.6-3.6s-1.6-3.6-3.6-3.6c-2.2,0-4.4,0-6.6,0
		c-0.7,0-1.2,0.6-1.2,1.3C23.5,117.3,23.5,118.9,23.5,120.5L23.5,120.5z M17.5,141.9c-0.7,0-1.3-0.6-1.3-1.3v-31.3
		c0-0.7,0.6-1.2,1.3-1.2c4.6,0,9.1-0.1,13.7-0.1c10.5-0.5,13.4,11.9,6.5,16c10,4.2,6.3,17.4-4.3,17.8
		C28.1,141.9,22.8,141.9,17.5,141.9L17.5,141.9z"/>
</g>
</svg>
