<?xml version="1.0" encoding="utf-8"?>
<!-- Generator: Adobe Illustrator 24.1.2, SVG Export Plug-In . SVG Version: 6.00 Build 0)  -->
<svg version="1.1" id="Layer_1" xmlns="http://www.w3.org/2000/svg" xmlns:xlink="http://www.w3.org/1999/xlink" x="0px" y="0px"
	 viewBox="0 0 250 250" style="enable-background:new 0 0 250 250;" xml:space="preserve">
<style type="text/css">
	.st0{fill-rule:evenodd;clip-rule:evenodd;fill:#FFFFFF;}
</style>
<g>
	<path class="st0" d="M0.1,76.6h124.4v96.9H0.1V76.6z M135.5,123.6V99.1h9.2c1.8,0,3.3,0.2,4.4,0.7c1.1,0.5,2,1.2,2.6,2.2
		c0.7,1,1,2.1,1,3.3c0,1-0.3,2-0.9,2.9c-0.5,0.9-1.4,1.7-2.6,2.2c1.5,0.4,2.6,1.2,3.4,2.2c0.7,1,1.2,2.3,1.2,3.7
		c0,1.2-0.2,2.2-0.7,3.2c-0.5,1-1,1.7-1.7,2.3c-0.7,0.5-1.6,0.9-2.7,1.2c-1,0.2-2.4,0.4-3.9,0.4L135.5,123.6L135.5,123.6z
		 M138.8,109.5h5.3c1.4,0,2.5-0.1,3.1-0.3c0.9-0.2,1.4-0.6,1.9-1.2c0.4-0.5,0.6-1.3,0.6-2.1c0-0.8-0.2-1.5-0.5-2.2
		c-0.4-0.6-0.9-1-1.7-1.2c-0.7-0.2-1.9-0.3-3.7-0.3h-4.9L138.8,109.5L138.8,109.5z M138.8,120.8h6.1c1,0,1.7,0,2.2-0.1
		c0.7-0.1,1.4-0.4,1.9-0.7c0.5-0.3,0.9-0.7,1.2-1.4c0.3-0.5,0.4-1.2,0.4-2.1c0-0.9-0.2-1.7-0.7-2.4c-0.4-0.6-1.1-1.1-1.9-1.4
		c-0.8-0.3-2-0.4-3.6-0.4h-5.6V120.8z M171,117.9l3.1,0.4c-0.4,1.8-1.4,3.3-2.7,4.2c-1.3,1-3,1.5-5,1.5c-2.6,0-4.6-0.7-6.1-2.4
		c-1.5-1.5-2.2-3.8-2.2-6.7c0-3,0.7-5.3,2.2-7c1.5-1.6,3.5-2.4,6-2.4c2.4,0,4.3,0.8,5.8,2.4c1.5,1.5,2.2,3.8,2.2,6.8
		c0,0.2,0,0.4,0,0.7H161c0,1.9,0.6,3.4,1.6,4.4c1,1,2.2,1.5,3.7,1.5c1,0,2-0.3,2.8-0.9C169.9,120.1,170.5,119.2,171,117.9L171,117.9
		z M161.1,113.1h9.9c-0.2-1.4-0.5-2.6-1.1-3.3c-1-1.2-2.2-1.7-3.8-1.7c-1.4,0-2.5,0.5-3.4,1.4C161.7,110.3,161.2,111.5,161.1,113.1
		L161.1,113.1z M185.1,121l0.4,2.6c-0.8,0.2-1.5,0.2-2.2,0.2c-1,0-1.9-0.2-2.5-0.5c-0.5-0.4-1-0.8-1.2-1.4s-0.4-1.7-0.4-3.5v-10.2
		h-2.2v-2.3h2.2v-4.4l3-1.7v6.1h3v2.3h-3v10.4c0,0.9,0,1.4,0.2,1.7c0.1,0.2,0.2,0.4,0.5,0.5c0.2,0.1,0.5,0.2,1,0.2
		C184.1,121.1,184.6,121.1,185.1,121L185.1,121z M187.7,114.8c0-3.3,0.9-5.7,2.7-7.3c1.5-1.3,3.4-1.9,5.6-1.9c2.4,0,4.4,0.8,6,2.4
		c1.5,1.5,2.3,3.8,2.3,6.6c0,2.2-0.4,4.1-1,5.4c-0.7,1.2-1.6,2.3-2.9,3c-1.3,0.7-2.7,1-4.3,1c-2.5,0-4.5-0.7-6-2.4
		C188.4,120,187.7,117.8,187.7,114.8L187.7,114.8z M190.8,114.8c0,2.2,0.5,3.9,1.5,5.1s2.2,1.7,3.8,1.7c1.4,0,2.7-0.5,3.7-1.7
		c1-1.1,1.5-2.8,1.5-5.1c0-2.2-0.5-3.8-1.5-5c-1-1.1-2.2-1.7-3.7-1.7c-1.5,0-2.7,0.5-3.8,1.7C191.3,110.8,190.8,112.5,190.8,114.8
		L190.8,114.8z M208.6,123.6v-17.7h2.7v2.5c1.2-1.9,3.1-2.9,5.6-2.9c1,0,2.1,0.2,2.9,0.5c0.9,0.4,1.5,0.9,2,1.5
		c0.4,0.6,0.7,1.4,0.9,2.2c0.1,0.5,0.2,1.5,0.2,2.9v10.9h-3v-10.7c0-1.2-0.1-2.1-0.4-2.7c-0.2-0.5-0.6-1-1.2-1.4
		c-0.6-0.4-1.3-0.5-2.1-0.5c-1.2,0-2.3,0.4-3.3,1.2s-1.4,2.3-1.4,4.6v9.7L208.6,123.6L208.6,123.6z M134.6,154l3-0.3
		c0.1,1.2,0.5,2.2,1,3.1c0.5,0.7,1.4,1.4,2.4,1.9c1.1,0.5,2.4,0.7,3.8,0.7c1.2,0,2.3-0.2,3.3-0.5c0.9-0.4,1.6-0.9,2.1-1.5
		c0.4-0.7,0.7-1.4,0.7-2.1s-0.2-1.4-0.7-2c-0.4-0.5-1.2-1-2.2-1.4c-0.6-0.2-2.1-0.6-4.3-1.1c-2.2-0.5-3.8-1-4.7-1.5
		c-1.2-0.6-2.1-1.4-2.6-2.2c-0.5-0.9-0.9-1.9-0.9-3.1c0-1.2,0.4-2.4,1-3.4c0.7-1,1.7-1.9,3.1-2.4c1.3-0.5,2.8-0.8,4.5-0.8
		c1.7,0,3.4,0.3,4.8,0.9c1.4,0.5,2.4,1.4,3.2,2.6s1.1,2.4,1.2,3.8l-3.1,0.2c-0.1-1.5-0.7-2.7-1.7-3.5c-0.9-0.7-2.4-1.1-4.2-1.1
		c-2,0-3.4,0.3-4.3,1c-0.9,0.7-1.3,1.5-1.3,2.6c0,0.9,0.3,1.5,0.9,2.2c0.6,0.5,2.2,1.1,4.9,1.7c2.6,0.6,4.4,1.1,5.4,1.5
		c1.4,0.7,2.4,1.5,3.1,2.5s1,2.1,1,3.4s-0.4,2.5-1.1,3.6c-0.7,1.2-1.7,2.1-3.2,2.7c-1.4,0.6-2.9,0.9-4.7,0.9c-2.2,0-4-0.3-5.5-0.9
		c-1.5-0.6-2.6-1.6-3.5-2.9C135.1,157.1,134.7,155.7,134.6,154L134.6,154z M171,156.1l3.1,0.4c-0.4,1.8-1.4,3.2-2.7,4.2
		s-3,1.5-5,1.5c-2.6,0-4.6-0.8-6.1-2.4c-1.5-1.6-2.2-3.8-2.2-6.7c0-2.9,0.7-5.3,2.2-6.9c1.5-1.6,3.5-2.4,6-2.4
		c2.4,0,4.3,0.7,5.8,2.4s2.2,3.9,2.2,6.8c0,0.2,0,0.4,0,0.8H161c0,1.9,0.6,3.4,1.6,4.4c1,1,2.2,1.5,3.7,1.5c1,0,2-0.3,2.8-0.9
		C169.9,158.3,170.5,157.4,171,156.1L171,156.1z M161.1,151.3h9.9c-0.2-1.5-0.5-2.6-1.1-3.4c-1-1.1-2.2-1.7-3.8-1.7
		c-1.4,0-2.5,0.4-3.4,1.4C161.7,148.5,161.2,149.7,161.1,151.3L161.1,151.3z M178.6,161.9v-17.7h2.6v2.7c0.7-1.2,1.4-2.1,1.9-2.5
		s1.2-0.5,1.9-0.5c1,0,2,0.3,3.1,0.9l-1,2.7c-0.7-0.4-1.4-0.6-2.2-0.6c-0.6,0-1.2,0.2-1.7,0.5c-0.5,0.4-0.9,0.9-1.1,1.7
		c-0.3,1-0.5,2.2-0.5,3.4v9.3L178.6,161.9L178.6,161.9z M195.5,161.9l-6.7-17.7h3.2l3.8,10.6c0.4,1.1,0.8,2.3,1.2,3.5
		c0.2-0.9,0.6-2,1-3.3l3.9-10.8h3.1l-6.7,17.7L195.5,161.9L195.5,161.9z M208.5,140.8v-3.4h3v3.4H208.5z M208.5,161.9v-17.7h3v17.7
		H208.5z M228.5,155.3l2.9,0.4c-0.3,2-1.1,3.6-2.4,4.7c-1.3,1.2-2.9,1.7-4.9,1.7c-2.4,0-4.3-0.8-5.8-2.4c-1.4-1.5-2.2-3.8-2.2-6.8
		c0-1.9,0.3-3.6,0.9-5c0.6-1.4,1.6-2.5,2.9-3.2c1.3-0.7,2.7-1,4.3-1c1.9,0,3.4,0.4,4.7,1.4c1.2,0.9,2,2.3,2.3,4.1l-2.9,0.4
		c-0.3-1.2-0.7-2.1-1.5-2.7c-0.7-0.5-1.5-0.9-2.6-0.9c-1.5,0-2.7,0.5-3.6,1.6c-0.9,1-1.4,2.7-1.4,5.1c0,2.4,0.4,4.1,1.4,5.2
		c0.9,1,2.1,1.6,3.6,1.6c1.1,0,2.1-0.4,2.9-1.1C227.7,158,228.2,156.8,228.5,155.3L228.5,155.3z M246.8,156.1l3.1,0.4
		c-0.4,1.8-1.4,3.2-2.7,4.2s-3,1.5-5,1.5c-2.6,0-4.6-0.8-6.1-2.4c-1.5-1.6-2.3-3.8-2.3-6.7c0-2.9,0.8-5.3,2.3-6.9
		c1.5-1.6,3.5-2.4,6-2.4c2.3,0,4.3,0.7,5.8,2.4c1.5,1.6,2.2,3.9,2.2,6.8c0,0.2,0,0.4,0,0.8h-13.3c0.1,1.9,0.7,3.4,1.7,4.4
		c0.9,1,2.2,1.5,3.7,1.5c1,0,2-0.3,2.7-0.9C245.7,158.3,246.3,157.4,246.8,156.1L246.8,156.1z M236.9,151.3h9.9
		c-0.1-1.5-0.5-2.6-1.1-3.4c-0.9-1.1-2.2-1.7-3.7-1.7c-1.4,0-2.5,0.4-3.4,1.4C237.6,148.5,237,149.7,236.9,151.3L236.9,151.3z
		 M13.1,161.1V90c5.2-0.8,13.1-1.2,23.8-1.2c7.2,0,12.9,1.9,17.1,5.9c4.2,3.9,6.3,8.6,6.3,14.1c0,6.7-2.6,11.9-7.9,15.7
		c6.4,3.5,9.6,9,9.6,16.7c0,5.7-2.1,10.7-6.2,14.8c-4.1,4.1-10.4,6.1-18.7,6.1C27,162.3,19,161.9,13.1,161.1L13.1,161.1z M24.5,121
		h17.8c0.7-0.6,1.3-1,1.7-1.4c0.4-0.4,0.9-0.8,1.4-1.4c0.5-0.6,1-1.3,1.4-2.1c0.9-1.8,1.4-3.8,1.4-6c0-8.2-4.8-12.3-14.4-12.3
		c-2.1,0-5.2,0.1-9.4,0.4L24.5,121L24.5,121z M24.5,152.7c5.4,0.4,9.1,0.6,11.1,0.6c5.3,0,9-1,11.2-3.2c2.1-2.1,3.2-5.1,3.2-9
		c0-3.9-1-7-3.3-9c-2.2-2-6-3-11.4-3H24.5V152.7z M65.3,156.5l3.5-9.3c6.8,3.7,12.5,5.6,17.1,5.6c4.5,0,8-0.9,10.4-2.7
		c2.4-1.7,3.6-4.2,3.6-7.3c0-3.4-1.5-6.1-4.6-8.2c-1.7-1.1-3.1-1.9-4.3-2.5c-1.1-0.5-2.9-1.2-5.3-2.3c-2.4-1-4.3-1.8-5.6-2.4
		c-1.3-0.6-2.9-1.5-4.7-2.8c-1.8-1.2-3.2-2.4-4.2-3.7c-2.6-3.1-3.9-6.9-3.9-11.3c0-6.1,2.1-11.2,6.4-15c4.2-3.8,9.7-5.8,16.2-5.8
		c4,0,7.8,0.7,11.6,2c3.7,1.3,6.5,2.6,8.5,3.9l-3.9,8.7c-6.5-3.4-11.6-5.1-15.2-5.1s-6.6,0.9-8.8,2.6c-2.1,1.7-3.3,4.1-3.3,6.9
		c0,3.1,1.4,5.7,4.3,7.7c2.4,1.5,5.1,3,8.3,4.3c3.1,1.3,5.3,2.3,6.6,2.9c1.2,0.6,2.9,1.5,4.9,2.9c2,1.3,3.5,2.6,4.6,3.9
		c2.6,3.4,3.9,7.5,3.9,12.1c0,6.7-2.4,11.8-7.1,15.4c-4.7,3.5-10.9,5.3-18.7,5.3C77.9,162.3,71.1,160.4,65.3,156.5L65.3,156.5z
		 M2.9,79.4h118.6v91.2H2.9V79.4z"/>
</g>
</svg>
