<?xml version="1.0" encoding="utf-8"?>
<!-- Generator: Adobe Illustrator 24.1.2, SVG Export Plug-In . SVG Version: 6.00 Build 0)  -->
<svg version="1.1" id="Layer_1" xmlns="http://www.w3.org/2000/svg" xmlns:xlink="http://www.w3.org/1999/xlink" x="0px" y="0px"
	 viewBox="0 0 250 250" style="enable-background:new 0 0 250 250;" xml:space="preserve">
<style type="text/css">
	.st0{fill-rule:evenodd;clip-rule:evenodd;fill:#FFFFFF;}
</style>
<g>
	<path class="st0" d="M250,173.2v-3.4h-32.7v17.4H250v-3.6h-28.7V180H250v-3.4h-28.7v-3.4H250z M146.6,174.9v7.4
		c0,2.9,1.9,4.9,4.8,4.9h26.2v-3.6h-26.2c-0.5,0-0.8-0.3-0.8-0.8v-8.5c0-0.5,0.2-1.1,0.8-1.1h26.2v-3.4h-26.2
		C148,169.8,146.6,171.5,146.6,174.9L146.6,174.9z M209,176.5h-23.1v-6.8h-3.9v17.4h3.9V180H209v7.2h4.1v-17.4H209V176.5z
		 M102,169.8H73.4v17.4h3.9V182h20.3c3,0,4.2,2.5,4.3,5.1h3.9c-0.3-2.4-0.8-5-3.2-6.1c1.7-0.4,3.2-1.4,3.2-3.4v-4.6
		C105.9,171.1,104,169.8,102,169.8L102,169.8z M102,177.2c0,0.6-0.2,1.3-1,1.3H77.3v-5.3l0,0h23.1c1.2,0,1.6,0.5,1.6,1.6L102,177.2
		L102,177.2z M64.3,169.8H41.2c-2.7,0-4.6,1.6-4.6,4.4v8.7c0,2.7,2,4.4,4.6,4.4h23.3c2.7,0,4.6-1.7,4.6-4.4v-8.7
		C69.1,171.4,67.1,169.8,64.3,169.8L64.3,169.8z M65.3,181.7c0,1.4-1,1.9-2.3,1.9H42.8c-1.3,0-2.3-0.6-2.3-1.9v-6.6
		c0-1.4,1-1.9,2.3-1.9H63c1.3,0,2.3,0.6,2.3,1.9V181.7z M137.1,176.7h-21.6c-1,0-1.5-0.8-1.5-1.7c0-1,0.4-1.8,1.5-1.8H142v-3.4
		h-26.5c-3.6,0-5.4,1.9-5.4,5.4c0,2.9,1.7,5.1,4.6,5.1h22.5c1.1,0,1.3,1,1.3,1.9c0,0.8-0.4,1.6-1.3,1.6h-26.4v3.6h27.1
		c3.1,0,4.7-2.1,4.7-5.1C142.5,178.4,140.6,176.7,137.1,176.7L137.1,176.7z M28.5,169.8H0v17.4h4.1V182h23.5c3.1,0,5-2.2,5-5.3v-2
		C32.5,172.4,31.3,169.8,28.5,169.8L28.5,169.8z M28.5,177c0,1.1-0.8,1.5-1.9,1.5H4.1v-5.3h22.7c1.1,0,1.9,0.7,1.9,1.9L28.5,177
		L28.5,177L28.5,177z"/>
	<path class="st0" d="M145.9,142.1c-5.6,5.1-10.4,7.8-20.4,13.1c-9.4-4.3-15.5-8.5-20.8-12.6c-7.3-5.7-12.6-15-13.1-20.7L88,67.6
		c24.8-6.4,51.2-6.3,74,0.4l-3.7,53.7C157.8,126.6,153.4,136,145.9,142.1L145.9,142.1z M154.1,119.9l3.4-48
		c-19.6-6.3-43.2-6.3-64.8-0.7l3.4,48.5c0.3,5.1,4,12.8,10.9,18.7c4.2,3.6,12.4,9.6,18.4,11.9c7-3.6,13.4-7.9,18.4-12.3
		C149.9,132.5,153.6,125.4,154.1,119.9L154.1,119.9z M142.9,136.9c-4.8,4.1-11.3,8.9-17.6,11.8c-5.6-1.8-13.8-8.1-17.8-11.5
		c-6.9-6-9.7-12.3-10.2-18.2l-3.3-46.3c20.7-5.4,43.1-5.4,61.9,0.6l-3.3,45.8C152.1,125,149.4,130.9,142.9,136.9L142.9,136.9z
		 M95.7,73.6l0.7,8c19.7-4.9,40.3-4.4,57.4,0.8l0.8-8.2C136.8,68.7,115.2,68.4,95.7,73.6z M144.6,76.5l-4.4-0.8l-0.1,2.1l-1.4-0.2
		l0.4-5.6l1.5,0.2l-0.1,2.2l4.5,0.8l0.1-2.2l1.5,0.3l-0.4,5.6l-1.4-0.3L144.6,76.5L144.6,76.5z M123.2,74.7c-0.6,0-1-0.2-1.3-0.7
		c-0.3-0.4-0.3-1.7,0-2.1c0.3-0.5,0.8-0.7,1.2-0.7h6.3v1.3h-5.9c-0.3,0-0.3,0.7,0,0.7h4.7c0.6,0,1.1,0.3,1.2,0.8
		c0.1,0.4,0.1,1.5,0,1.9s-0.6,0.7-1.3,0.7h-6.2v-1.4h5.6c0.2,0,0.3-0.2,0.3-0.3c0-0.2-0.2-0.3-0.3-0.3L123.2,74.7L123.2,74.7z
		 M119.6,75.2c0-0.3-0.3-0.5-0.6-0.5l0,0l-4.2,0.3l0.1,2.1l-1.3,0.2l-0.3-5.4l6.2-0.4c0.8-0.1,1.3,0.6,1.3,1.1
		c0.1,0.6,0.1,1.3-0.4,1.7c0.4,0.3,0.5,0.7,0.5,1.3v1.4l-1.3,0.1L119.6,75.2L119.6,75.2z M118.7,73.4c0.6-0.1,0.5-0.8,0-0.8l-4,0.3
		l0.1,0.8L118.7,73.4z M105.6,72.7c1.3-0.3,3.9-0.7,5.3-0.8c0.7-0.1,1.1,0.3,1.2,0.8c0.2,1.1,0.3,2.3,0.2,3.8
		c-0.1,0.4-0.4,0.8-0.9,0.9c-1.8,0.4-3.8,0.6-5.2,0.8c-0.3,0.1-0.9-0.3-1.1-0.7c-0.3-1.2-0.3-2.7-0.3-3.8
		C104.8,73.2,105.2,72.8,105.6,72.7L105.6,72.7z M110.6,76c0.2-0.1,0.3-0.3,0.3-0.3c0.1-0.4,0-1.6-0.1-1.9c-0.1-0.2-0.2-0.3-0.4-0.2
		c-0.8,0.1-2.8,0.3-3.8,0.6c-0.3,0.1-0.3,0.2-0.4,0.3c-0.1,0.3,0.1,1.3,0.2,1.9c0,0.2,0.2,0.2,0.3,0.2C108,76.5,109.6,76.3,110.6,76
		L110.6,76z M132.6,72.9c-0.3,0-0.5,0.2-0.5,0.3c-0.1,0.4-0.1,1.1-0.1,1.8c0,0.1,0.1,0.4,0.3,0.4c1.4,0.2,3.9,0.4,5.4,0.5l-0.1,1.4
		c-1.9-0.1-3.8-0.4-5.8-0.5c-0.6-0.1-1.1-0.4-1.1-1.1c-0.1-1.1,0-2.6,0.2-3.6c0.1-0.6,0.6-0.8,1.3-0.8c1.9,0.1,3.3,0.3,5.8,0.6
		l-0.1,1.4C136.5,73.4,134.3,73,132.6,72.9L132.6,72.9z M102.3,73.4c1.8-0.4,2.2,2.9,0.6,3.3l-4.3,1.1l0.2,2.2l-1.3,0.3l-0.5-5.6
		L102.3,73.4L102.3,73.4z M102.2,75.5c0.4-0.1,0.4-0.9-0.1-0.8l-3.9,0.9l0.1,0.8L102.2,75.5z M148.6,77.4l-0.1,0.9l4.4,1.1l-0.1,1.3
		l-5.8-1.3l0.5-5.7l5.9,1.4l-0.1,1.3l-4.4-1.1l-0.1,0.9l4.3,1.1l-0.1,1.1L148.6,77.4L148.6,77.4z M106.7,93.4
		c-0.6,0.8-1.2,2.1-1.4,3.1c-0.1,0.3-0.1,0.5-0.1,0.7c0.6-0.3,1.3-0.5,1.8-0.7c0.2-0.4,0.3-0.8,0.4-1.2c0.3-0.6,0.4-0.8,0.6-1.2
		c0.7-1.1,2.2-2.1,3.2-2.1c-0.3,0.3-1.1,1.1-1.4,1.6c-0.3,0.4-0.4,0.8-0.7,1.3c-0.2,0.4-0.2,0.7-0.3,1c0.6-0.2,1.1-0.3,1.4-0.3
		c0.3-0.2,0.3-0.4,0.4-0.7c0.4-0.8,1.2-1.7,1.8-1.9c0.4-0.2,1-0.4,1.4-0.3c-0.4,0.3-0.9,0.9-1.2,1.3c-0.2,0.3-0.6,1.1-0.6,1.3
		c0.4,0.1,0.9,0,1.2-0.1v-1.1h11.1V79.1c-8.7,0-18.2,0.8-28.2,3.7l2.1,28.6h15v-5.6c-0.6-0.4-3.4-0.8-5.2-0.1
		c-0.4,0.2-1.8,0.8-2.4,1.3l-1.8,1.4c-0.2,0.2-0.2,0.4-0.2,0.7c0,0.5-0.6,0.9-0.9,0.8c-0.3-0.1-0.7-0.2-1-0.1s-0.7-0.4-0.7-0.7
		c-0.1-0.3,0.2-0.8,0.2-0.9s-0.1-0.7,0.4-0.9c0.2-0.2,0.5-0.2,0.8,0c0.1,0.1,0.2,0.1,0.2,0.1c0.1-0.1,0.3-0.2,0.3-0.3
		c0-0.3,0-0.8,0-1.1c0.1-0.6,0.1-0.8,0.3-1.3c0.2-0.4,0.4-1.1,0.7-1.4c0.4-0.7,1.2-1.3,1.8-1.3c-0.3,0.3-0.3,0.4-0.5,0.8
		c-0.3,0.6-0.6,1.6-0.8,2.2c-0.1,0.4-0.2,0.8-0.1,1.2c0.4-0.3,0.9-0.6,1.3-0.8c0.2-0.8,0.4-1.6,0.8-2.2c0.4-0.8,1.4-1.6,2.1-1.4
		c-0.7,0.7-1.1,1.7-1.3,2.3c-0.1,0.3-0.2,0.6-0.1,0.7c0.3-0.2,0.8-0.3,1.1-0.3c0.2-0.4,0.4-0.9,0.6-1.3c0.6-0.9,1.6-1.5,2.1-1.4
		c-0.4,0.6-0.8,1.1-1.1,1.8c-0.1,0.2-0.1,0.4-0.1,0.6c0.3-0.1,0.8-0.1,1.1-0.1c0.4-0.3,0.7-0.8,1.2-1.1c0.4-0.3,1.1-0.7,1.3-0.8
		v-4.7c0-0.1-1.3-0.2-1.8-0.1c-1.7,0.2-5.7,1.4-7.4,2.7c-0.1,0.1-0.1,0.7-0.2,0.9c-0.1,0.3-0.3,0.5-0.6,0.6
		c-0.4,0.2-0.9-0.4-1.2-0.3s-0.8,0.3-1.3-0.1c-0.3-0.2-0.3-0.7-0.3-1c0.1-0.3,0.3-0.4,0.4-0.6c0.2-0.2,0.1-0.8,0.6-1.1
		c0.4-0.3,0.9-0.1,1.3,0.2c0.1-0.1,0.2-0.1,0.2-0.2c0.1-0.2,0.2-0.7,0.2-1.1c0.1-0.4,0.1-0.7,0.3-1.1c0.3-0.9,1.1-2.3,1.8-3
		c0.6-0.6,1.6-1,2.3-0.9C107.8,92.3,106.9,93.1,106.7,93.4L106.7,93.4z M108.4,84.3c0.6-0.8,2.2-2.1,3.3-2c-0.7,0.6-1.2,1.2-1.7,1.8
		c-0.6,0.8-0.9,1.9-1.1,2.8c0.4-0.2,1.3-0.4,1.8-0.6c0.4-1.1,1.1-2.2,1.8-2.8c0.6-0.4,1.3-0.8,2.1-0.8c-0.2,0.3-0.4,0.4-0.7,0.6
		c-0.4,0.3-0.7,0.8-0.8,1.3c-0.2,0.3-0.4,1.3-0.4,1.4c0.6,0,1.5,0.1,1.7,0.1c0.7-0.8,2-2,3.7-1.8c-0.7,0.4-2,1.5-1.9,2.2
		c1.1,0.7,2.7,2.2,2.8,3.5c-0.8-0.8-1.9-1.5-2.6-1.7c-1.4-0.5-3.2-0.6-4.6-0.3c-3,0.6-5.7,1.8-8.2,3.4c-0.1,0.4-0.3,1.1-0.4,1.3
		c-0.2,0.2-0.4,0.4-0.8,0.4c-0.4,0.1-0.8-0.1-1.1-0.3c-0.2-0.1-0.8,0.1-1.1-0.2c-0.3-0.1-0.6-0.4-0.5-1c0.1-0.5,0.6-0.8,0.7-1.3
		c0.1-0.7,0.6-1,0.8-1c0.3-0.1,0.6,0.1,0.8,0.2c0.1,0.1,0.2,0.2,0.3,0.2c0.1-0.1,0.3-0.2,0.3-0.2c0-0.1,0.3-1.5,0.4-2.1
		c0.2-0.6,0.4-1.2,0.6-1.8c0.6-1.7,2.4-3.4,3.9-3.3c-0.1,0.1-0.6,0.4-1.2,1.3c-1.1,1.3-1.3,2.6-1.8,4.9c0.8-0.4,1.6-0.7,2.3-0.9
		c0.2-0.7,0.4-1.4,0.7-2.1C107.9,85.1,108.2,84.7,108.4,84.3L108.4,84.3z M153.6,86.2h-27.7v8.2h27L153.6,86.2L153.6,86.2z
		 M129.1,128.3c-0.3,0.1-0.7,0.1-0.9,0c-0.3-0.1-0.4-0.4-0.5-0.8c0-0.3,0.3-0.6,0.3-0.8c0-0.1-0.1-0.7,0.4-1
		c0.1-0.1,0.4-0.2,0.6-0.1s0.4,0.2,0.6,0.2c0.3-0.1,0.5-0.2,0.8-0.3c0.1-0.6,0.3-1.3,0.4-1.9c-1.4,0.7-3.2,1.2-4.8,1.2V147
		c6.4-3.3,13.6-8.6,16.6-11.6c4.9-4.8,8.1-9.6,8.7-16.6l0.4-6.3h-14.7c0,3.6-1.2,7.3-4.6,10.1c-0.2,0.8-0.3,2.1-0.3,2.2
		c0.4-0.2,0.9-0.3,1.3-0.5c0.1-0.1,0.6-1.3,0.9-1.6c0.6-0.9,1.4-1.7,2.3-2.2c0.6-0.3,1.3-0.6,1.9-0.3c-0.9,0.4-1.5,1.2-1.9,1.6
		c-0.4,0.4-0.8,0.9-1,1.6c-0.1,0.1-0.1,0.2-0.1,0.3c0.4-0.1,1.6-0.3,2.2-0.4c0.1,0,0.2-0.3,0.4-0.6c0.1-0.2,0.3-0.3,0.5-0.6
		c0.6-0.7,1.7-1.4,2.8-1.3c-0.6,0.3-1.2,0.9-1.7,1.8c-0.1,0.2-0.1,0.3-0.1,0.4c0.1,0.1,0.9,0,1.4,0.1c0.6-0.3,1.1-0.7,1.7-0.8
		c0.7-0.2,1.6-0.1,1.9,0.3c-0.4,0-0.8,0.1-1.2,0.2c-0.2,0.1-0.6,0.3-0.8,0.6c0.4,0.1,1.1,0.6,1.5,0.9c0.3,0.3,0.6,0.6,0.9,0.9
		c0.6,0.8,0.7,2.2,0.4,2.6c-0.1-0.3-0.2-0.5-0.3-0.7c-0.3-0.4-0.7-0.9-1.1-1.2c-1.8-1.3-4.3-1.4-6.4-1c-1.8,0.3-4.9,1.1-7.1,2.5
		c0.1,0.3-0.1,0.7-0.4,0.9C129.8,128.5,129.3,128.2,129.1,128.3L129.1,128.3z M132.6,130.8c0.3-0.4,0.5-0.9,0.6-1.1
		c0.5-0.8,1.2-1.4,1.6-1.6c0.6-0.3,1.7-0.5,2.2-0.3c-0.5,0.1-0.9,0.4-1.3,0.6c-0.4,0.3-1.1,0.9-1.3,1.2s-0.4,0.6-0.4,0.8
		c0.6-0.1,1.3-0.3,1.6-0.3c0.3-0.4,0.9-1.1,1.5-1.5c0.4-0.3,1.3-0.6,1.9-0.4c-0.6,0.1-1.5,0.9-1.9,1.4c-0.1,0.1-0.1,0.3-0.1,0.3
		c0.3,0,0.9,0.1,1.1,0.1c0.1,0,0.9-0.5,1.2-0.6c0.4-0.1,1.3-0.3,1.8,0.2c-0.4,0-0.7,0.1-0.9,0.1c-0.4,0.1-0.6,0.3-0.7,0.6
		c0.8,0.4,1.5,0.8,1.9,1.6c0.1,0.3,0.4,0.9,0.3,1.3c-0.3-0.3-0.6-0.6-0.8-0.8c-0.4-0.2-0.6-0.4-1.1-0.6c-1.4-0.5-3.2-0.6-4.6-0.4
		c-1.9,0.3-4.1,1.1-5.4,1.9c0.1,0.4-0.1,0.8-0.3,0.9c-0.4,0.2-0.9-0.1-0.9-0.1c-0.1,0.1-0.4,0.1-0.8,0.1c-0.3-0.1-0.4-0.6-0.3-0.9
		c0.1-0.2,0.4-0.6,0.4-0.6c-0.1-0.4,0.3-0.8,0.7-0.8c0.3,0,0.4,0.1,0.6,0.2c0.2-0.1,0.3-0.1,0.4-0.2c0.1-0.4,0.3-0.8,0.4-1.1
		c0.2-0.6,0.4-1.1,0.8-1.6c0.5-0.8,1.4-1.4,2.4-1.4c-0.3,0.3-0.5,0.4-0.7,0.6c-0.4,0.4-0.6,0.8-0.8,1.3c-0.2,0.4-0.4,1-0.4,1.5
		C131.6,131.2,132.1,131,132.6,130.8L132.6,130.8z M132.4,135c0.3-0.1,0.6-0.2,0.8-0.1c-0.6,0.4-1.3,1.1-1.4,1.8
		c0,0.1,0,0.3,0.1,0.3c0.2-0.1,0.6-0.1,0.8-0.2c0.1-0.1,0.3-0.4,0.4-0.6c0.4-0.6,1.1-1.3,2.1-1c-0.6,0.3-0.9,0.6-1.2,1.1
		c-0.1,0.1-0.1,0.3,0,0.3c0.1,0,0.8,0,0.9,0c0.3-0.3,1.1-0.7,1.6-0.6c-0.3,0.1-0.5,0.3-0.8,0.5c-0.1,0.1-0.1,0.1-0.1,0.3
		c0.5,0.3,0.9,0.5,1.3,0.9c0.2,0.2,0.5,0.5,0.7,1.1c-0.4-0.4-2-1.1-2.8-1.1c-0.6,0-1.2,0.1-1.6,0.1c-1.3,0.3-2.6,0.9-3.8,1.6
		c0,0.2-0.1,0.5-0.3,0.7c-0.1,0.1-0.6,0.2-0.7,0c-0.1-0.1-0.6,0-0.7-0.1c0,0-0.2-0.2-0.2-0.4s0.2-0.4,0.3-0.6
		c0.1-0.1,0.1-0.5,0.3-0.6c0.2-0.1,0.4-0.1,0.6,0.1c0.1-0.1,0.1-0.1,0.1-0.1c0.1-0.5,0.1-0.9,0.3-1.4c0.3-0.7,1.1-1.6,1.8-1.6
		c-0.5,0.6-0.9,1.3-1,1.9c-0.1,0.2-0.1,0.6-0.1,0.8c0.1-0.1,0.4-0.2,0.6-0.3c0.1-0.2,0.3-0.6,0.4-0.9
		C131.1,136,131.8,135.3,132.4,135L132.4,135z M99.2,119.7c0.1,2.7,1.2,5.9,2.7,8.2h22.5l-0.1-3.2c-2.9,0-7.3-1.9-9.1-5.1
		L99.2,119.7L99.2,119.7z M114.7,112.7c0,14.3,21,14.3,21,0.2V95.6h-20.9L114.7,112.7L114.7,112.7z M121.4,105.8
		c0.3-0.3,0.4-0.7,0.5-0.9c0.1-0.3-0.7-0.3-0.9-0.1c-0.2,0.1-0.3,0.3-0.4,0.4c-0.1,0.1-0.3,0.2-0.5,0.1c-0.2-0.2,0.1-0.4,0.1-0.6
		c0-0.3-0.4,0.1-0.7,0c-0.2-0.1-0.2-0.3-0.1-0.4c0.1-0.1,0.2-0.1,0.3-0.1c0.1-0.1,0.1-0.2,0.1-0.3c0.1-0.1,0.2-0.2,0.3-0.3
		c0.3-0.3,0.8-0.8,0.9-0.8c0.3,0,0.6,0.2,0.8,0.1c0.1,0,0.2-0.1,0.1-0.2l-0.6-0.4c0-0.2,0.1-0.3,0.2-0.3c0.3-0.3,0.7-0.1,1.1-0.2
		c0.3-0.1,0.5-0.2,0.7-0.3c0.1,0.2-0.1,0.3-0.1,0.6c0.3,0.2,0.4,0.4,0.7,0.6c0.7,0.7,0.9,1.7,1,2.5c0.1,0.4,0.1,0.8,0.1,1.4
		c0.1-0.3,0.2-0.7,0.2-1.1c0.1-1.1-0.1-2-0.7-2.8c-0.3-0.3-0.5-0.7-0.8-0.9c0.1-0.3,0.3-0.8,0.6-0.7c0.2,0.1-0.1,0.3,0.1,0.4
		s0.4,0.1,0.6,0.1c0.3-0.1,0.6-0.2,0.8-0.2c0.1,0,0.3-0.1,0.3,0.1c0.1,0.1-0.1,0.2-0.2,0.2c-0.1,0.1-0.3,0-0.3,0.1
		c-0.1,0.1-0.2,0.2-0.1,0.3s0.2,0.2,0.3,0.2c0.4-0.2,0.9-0.2,1.4-0.2c0.3,0,0.2,0.2,0.1,0.3s-0.2,0.1-0.3,0.1
		c-0.4,0.1-0.8,0.1-0.8,0.3c0.1,0.2,0.3,0,0.4,0.2s-0.1,0.2-0.1,0.3c0.1,0.3,0.6,0.3,0.8,0.2c0.2-0.1,0.5-0.2,0.6-0.1
		c0.1,0.1,0,0.3-0.1,0.3c-0.3,0.1-0.8,0.2-0.9,0.3c-0.1,0.2,0,0.4,0.2,0.4c0.3,0.1,0.7,0.1,1,0.1c0.1,0.1,0.2,0.1,0.2,0.2
		s-0.1,0.2-0.2,0.2c-0.2,0.1-0.5,0.1-0.7,0.1c-0.1,0-0.2,0.1-0.2,0.1c0.1,0.1,0.3,0.1,0.4,0.1c0.1,0,0.3,0.1,0.3,0.2
		s-0.1,0.2-0.3,0.2c-0.3,0-0.6,0-0.7,0.1c-0.1,0-0.3,0.1-0.3,0.2c0,0.2,0.3,0.1,0.3,0.2c0.1,0.1-0.1,0.2-0.2,0.3
		c0,0.1,0.1,0.1,0.1,0.1c0.2,0.1,0.4,0.1,0.7,0.1c0.2-0.1,0.3,0.3,0.3,0.3c-0.3,0.2-0.8,0-1,0.1c-0.2,0.1,0.3,0.4,0.3,0.4
		c0,0.1-0.1,0.2-0.1,0.2c-0.3,0.1-0.6-0.1-0.8,0c-0.2,0.1-0.1,0.3-0.2,0.5s-0.4,0.1-0.6,0.2s-0.2,0.4,0,0.6s0.3,0.2,0.4,0.3
		c0.8,0.4,1.7,0.8,2.4,0.8c0.4,0,1.1-0.1,1.4,0.1c0.4,0.1,0.9,0.5,1.2,0.7c0.2,0.1,0.6,0.2,0.8,0.1c0.2-0.1,0.3-0.3,0.3-0.4
		c-0.1-0.6-1.1-0.8-1.1-1.4c0-0.7-0.1-1.1-0.3-1.6c-0.1-0.2-0.1-0.6,0.1-0.6c0.1-0.1,0.2,0.2,0.4,0.2c0.6-0.3,0.6-1.2,1.3-1.3
		c0.4-0.1,1.6-0.1,1.5-0.3c-0.3-0.3-0.1-0.8,0-1c0.1-0.1,0.4-0.3,0.4-0.1c0.1,0.2-0.2,0.3-0.2,0.6c0,0.2,0.4,0.7,0.1,0.9
		c-0.1,0.2-1.3,0.2-1.6,0.7c-0.2,0.3-0.2,0.6,0,0.5c0.2,0,0.4-0.3,0.6-0.4c0.3-0.3,0.6-0.3,0.8-0.2c0.1,0.1-0.1,0.3-0.2,0.3
		s-0.5,0.4-0.4,0.5c0.1,0.2,0.9-0.6,1.1-0.4c0.1,0.1-0.4,0.6-0.3,0.7c0.1,0.2,0.4-0.1,0.6,0.1c0.1,0.2-0.3,0.6-0.5,0.7
		c-0.2,0.1-0.1,0.6-0.4,0.7c-0.3,0.2-0.4,0.4-0.4,0.4c0.1,0.1,0.1,0.1,0.2,0.1c0.3-0.2,0.7-0.4,0.9-0.4c0.1,0.1-0.1,0.5-0.1,0.7
		c-0.1,0.2,0.4,0.1,0.4,0.3s-0.1,0.3-0.1,0.5c0.1,0.3-0.6,0.3-0.7,0.4c-0.1,0.2,0.1,0.3,0.1,0.3c0.4,0.1,0.4,0.4,0.2,0.6
		c-0.2,0.2-0.6,0.3-0.9,0.3c-0.3-0.1-0.9-0.2-1.3-0.4c-0.1-0.1-0.3,0-0.3,0.1c0,0.2,0.1,0.3,0.2,0.6c0.1,0.3,0.1,0.7-0.1,1
		c-0.2,0.6-0.8,1.1-0.9,1.8c-0.1,0.2,0,0.4,0.1,0.6c0.1,0.4,0.4,0.8,0.7,1.1c0.1,0.1,0.1,0.3,0.1,0.3c-0.1,0.2-0.6,0.5-0.7,0.6
		c-0.4,0.4-0.8,0.9-0.9,1.5c-0.1,0.2-0.5,0.4-0.8,0.5c-0.2,0.1-0.4,0.1-0.6,0.3c0,0.2,0.1,0.3,0.1,0.5c0.1,0.3-0.4,0.4-0.6,0.6
		c-0.1,0.1-0.3,0.1-0.4,0.1c-0.1,0-0.1-0.1-0.1-0.2c0.1-0.4,0.1-0.8,0.3-1.1c0.1-0.1,0.1-0.2,0.3-0.3l1.1-0.9l0.9-1.3
		c0.1-0.1,0.1-0.2,0.1-0.3c0-0.3-0.1-0.4-0.3-0.6c-0.2-0.2-0.6-0.2-0.8-0.3c-0.3-0.2-0.8-0.6-0.8-0.6c-0.1-0.1-0.3,0.2-0.3,0.4
		c-0.1,0.3,0.1,0.6,0.1,0.8c0,0.1,0,0.2-0.1,0.3c-0.8,0.4-1.7,0.6-2.2,1.3c-0.1,0.1-0.2,0.3-0.3,0.3c-0.3,0.2-0.8-0.1-1.1,0.3
		c-0.1,0.2,0,0.3,0,0.5c0,0.1-0.2,0.2-0.3,0.3c-0.2,0.1-0.4,0.2-0.6,0.2c-0.2-0.1-0.1-0.4,0-0.7c0.1-0.3,0.2-0.4,0.3-0.6
		c0.3-0.3,0.6-0.6,0.8-0.7c0.2-0.1,0.4-0.1,0.7-0.2c0.3-0.1,0.4-0.2,0.7-0.3c0.3-0.2,0.6-0.4,0.8-0.8c0.2-0.4,0.2-0.9-0.1-1.3
		c-0.3-0.3-0.5-0.6-0.7-0.9c-0.1-0.2,0-0.4,0.1-0.6c0,0-0.1-0.1-0.2-0.1c-1.1,0.1-2.3-0.1-3.3-0.5c-0.3-0.1-0.6-0.4-0.8-0.5
		c-0.2,0-0.3,0.2-0.4,0.3c-0.3,0.1-0.7,0.1-1,0c-0.4-0.1-1.2-0.2-1.8-0.4c-0.1,0-0.2,0.1-0.3,0.1c-0.1,0.1-0.2,0.3-0.2,0.4
		s0.1,0.4,0,0.6c0,0.1-0.1,0.2-0.1,0.3c0.1,0.1,0.2,0.2,0.3,0.3c0.2,0.2,0.2,0.4,0.2,0.6c0,0.3-0.1,0.6,0.1,0.7
		c0.1,0.1,0.3-0.1,0.4,0c0.2,0.1,0.2,0.3,0.3,0.4c0,0.2-0.2,0.6-0.3,0.7c-0.1,0.1-0.2,0-0.3,0c-0.2-0.1-0.4-0.3-0.6-0.5
		c-0.1-0.1-0.1-0.2-0.1-0.3c-0.1-0.2-0.3-0.3-0.4-0.4c-0.2-0.2-0.2-0.4-0.3-0.6c0-0.2,0-0.4,0.1-0.6c0.1-0.4,0-0.8-0.1-1.3
		c-0.1-0.3-0.3-0.6-0.2-0.9c0.1-0.2,0.2-0.3,0.3-0.3c0.8-0.1,1.5-0.2,2.2-0.4l-0.4-0.4c-0.1,0-0.2,0.1-0.3,0.1
		c-0.1,0-0.3-0.2-0.3-0.3c-0.3-0.3-0.4-0.8-0.5-1.2c-0.1-0.2-0.2-0.3-0.4-0.4c-0.2-0.1-0.3-0.1-0.4-0.1c-0.4,0.2-0.8,0.5-0.8,0.9
		c0,0.1,0.1,0.2,0.1,0.3c0,0.2-0.2,0.3-0.3,0.4c-0.2,0.2-0.3,0.3-0.3,0.4c-0.1,0.2,0,0.3,0.1,0.4c0.1,0.1,0.1,0.2,0.1,0.3
		c-0.1,0.3-0.7,0.5-0.9,0.5c-0.1,0-0.1-0.1-0.2-0.2c-0.1-0.3-0.1-0.5,0-0.7c0.2-0.2,0.3-0.4,0.3-0.6c0.1-0.3,0.1-0.7,0.2-0.9
		c0.4-0.7,1.4-1.9,1.6-2.2c0.1-0.1,0.3-0.2,0.4-0.1c0.4,0.3,0.7,0.6,1.1,0.8c0.2,0.1,0.5,0.3,0.7,0.1s0.2-1.2,0.3-1.4
		C120.3,106.9,120.9,106.3,121.4,105.8L121.4,105.8z M129.1,99.4L129,100h-0.6l0.8-3.1h0.7l0.8,3.1H130l-0.1-0.7H129.1L129.1,99.4z
		 M129.7,98.8l-0.3-1.2l-0.3,1.2H129.7L129.7,98.8z M127.4,97.9c0-0.2-0.1-0.4-0.2-0.6c-0.2-0.1-0.3,0-0.4,0.1
		c-0.2,0.2-0.2,0.5-0.1,0.9c0,0.3,0,0.7,0.1,0.8c0.2,0.4,0.5,0.4,0.7,0.2c0.1-0.1,0.1-0.3,0.1-0.6h-0.3v-0.4h0.9v1.7h-0.4v-0.2
		c0,0-0.2,0.2-0.3,0.2c-0.2,0.1-0.4,0.1-0.7-0.1c-0.2-0.1-0.4-0.3-0.5-0.7s-0.1-0.8-0.1-1.3c0-0.4,0.3-0.9,0.6-1.1
		c0.2-0.1,0.6-0.1,0.8-0.1c0.3,0.1,0.5,0.6,0.5,0.9L127.4,97.9L127.4,97.9L127.4,97.9z M117.1,97c0.3,0.2,0.4,0.4,0.3,0.8h-0.5
		c0-0.3-0.2-0.4-0.4-0.4c-0.2,0-0.3,0.2-0.3,0.3c0,0.4,0.3,0.5,0.6,0.6c0.2,0.1,0.4,0.2,0.5,0.3c0.2,0.3,0.2,0.6,0.1,1
		c-0.1,0.2-0.3,0.4-0.6,0.5c-0.3,0.1-0.6,0.1-0.9-0.2c-0.2-0.2-0.3-0.5-0.3-0.8h0.6c0,0.2,0,0.3,0.1,0.3c0.1,0.1,0.2,0.2,0.3,0.2
		c0.2,0,0.4-0.2,0.4-0.3v-0.1c-0.1-0.4-0.8-0.5-1.1-0.8c-0.3-0.3-0.2-0.9,0.1-1.2C116.2,96.8,116.7,96.8,117.1,97L117.1,97z
		 M132.7,99.1c0,0.1,0,0.6,0.1,0.8c0,0.1,0.1,0.2,0.1,0.2h-0.6c-0.1,0-0.1-0.2-0.1-0.3c0-0.3,0-1.1-0.3-1.1h-0.3v1.3h-0.6v-3h1.1
		c0.6,0,0.8,0.3,0.8,0.7c0,0.3,0,0.6-0.3,0.7C132.6,98.6,132.7,98.8,132.7,99.1z M131.9,97.4h-0.4v0.8h0.3
		C132.4,98.2,132.4,97.4,131.9,97.4z M118.8,100h-0.6v-2.6h-0.7V97h1.9v0.5h-0.7V100L118.8,100z M122.6,100v-2.6h-0.7V97h1.9v0.5
		h-0.7v2.6H122.6L122.6,100z M124.1,97h1.9v0.5h-0.7v2.6h-0.6v-2.6h-0.7V97z M134.2,97.5v2.6h-0.6v-2.6h-0.6V97h1.9v0.5H134.2z
		 M121.1,99.2V97h0.6v2.1c0,1.3-1.8,1.3-1.8,0.1V97h0.6v2.2C120.3,99.6,121.1,99.6,121.1,99.2L121.1,99.2z M122.3,101.4
		c0.2-0.2,0.4-0.3,0.7-0.6c0.3-0.2-0.1,0.2-0.1,0.3c-0.1,0.4-0.3,0.4-0.7,0.4C122.2,101.6,122.3,101.5,122.3,101.4L122.3,101.4z
		 M136.9,111.2h14.8l0.6-8.2h-15.4V111.2L136.9,111.2z M124.4,136.7l-15.3-0.1c3.2,2.9,10.4,8.1,15.2,10.3L124.4,136.7L124.4,136.7z
		 M113.4,102.8c-0.3,0.3-0.9,0.9-1,1.2c0.3,0.1,0.8,0.3,1,0.5V102.8L113.4,102.8z"/>
</g>
</svg>
