<?xml version="1.0" encoding="utf-8"?>
<!-- Generator: Adobe Illustrator 24.1.2, SVG Export Plug-In . SVG Version: 6.00 Build 0)  -->
<svg version="1.1" id="Layer_1" xmlns="http://www.w3.org/2000/svg" xmlns:xlink="http://www.w3.org/1999/xlink" x="0px" y="0px"
	 viewBox="0 0 250 250" style="enable-background:new 0 0 250 250;" xml:space="preserve">
<style type="text/css">
	.st0{fill-rule:evenodd;clip-rule:evenodd;fill:#FFFFFF;}
</style>
<g>
	<path class="st0" d="M213.4,135.2c0.4-1.8,0.9-3.6,1.4-5.5l1.2-4.8c0.1-0.3,0-0.5,0.3-0.5c1.7,0,9.7,0,11.1,0.1
		c1.8,0.2,0.8,2.7,0.5,4c-0.2,0.9-0.4,1.5-0.6,2.4c-0.4,1.5-0.5,3.5-1.9,4.1c-1,0.4-4.3,0.2-5.8,0.2
		C217.5,135.2,215.5,135.2,213.4,135.2L213.4,135.2z M149.3,111.7h2.1c0.1-0.4,0.5-2.7,0.7-3.3l2.2-10.1h-2.1
		c-0.2,0.4-1.4,6.1-1.5,6.7l-1.2,5.8C149.4,111.1,149.3,111.4,149.3,111.7L149.3,111.7z M239.2,100.1h4c-0.1,0.2-0.3,1.2-0.3,1.4
		c-0.1,0.5-0.2,0.9-0.3,1.4l-1.9,8.7h2.1l0.3-1.4c0-0.5,0.2-0.9,0.3-1.4l1.9-8.7h4.1l0.6-1.8h-10.2c-0.4,0-0.3,0-0.4,0.4
		C239.3,99.1,239.2,99.5,239.2,100.1L239.2,100.1z M164.4,104.9c0.4-1.6,0.7-3.3,1-4.8c2.2,0,5-0.3,5,1.9c0,1.3-0.8,2.2-1.7,2.6
		C167.6,105,165.9,104.9,164.4,104.9L164.4,104.9z M160.8,111.7h2.1l0.5-2.5c0.1-0.4,0.2-0.8,0.3-1.2c0-0.4,0.2-1,0.3-1.2
		c1.9,0,4.4,0.1,6-0.7c1.4-0.7,2.7-2.2,2.7-3.8c0-1.2,0-1.7-1-2.8c-1.1-1.1-3.4-1-5-1c-1,0-2,0-3.1,0
		C163.5,99,160.8,111.2,160.8,111.7L160.8,111.7z M201.8,111.7h8.2c0.8,0,0.6,0,0.7-0.6c0-0.4,0.2-0.7,0.2-1.2h-6.5
		c0-1,0.9-3.5,0.9-4.3h5.1c0-0.5,0.3-1.2,0.3-1.8h-5c0-0.7,0.7-2.8,0.7-3.6h6.1c0.1-0.5,0.6-1.2,0.6-1.8h-8.3
		c-0.3,0-0.2,0.3-0.3,0.6c-0.5,2.7-1.4,6.5-2,9.4L201.8,111.7z M135.3,111.9c2,0,3.1-0.3,4.4-1.2c1.1-0.9,1.5-2,1.9-3.6
		c0.3-1.5,0.6-3,0.9-4.5c0.2-0.7,0.4-1.5,0.5-2.2c0.5-2.5,1-2.1-1.7-2.1l-1.5,7.1c-0.6,3-0.8,4.7-4.4,4.7c-3,0-2.2-2.6-1.8-4.4
		l1.5-7.4c-2.5,0-2.1-0.2-2.2,0.8c-0.1,0.4-0.2,0.7-0.2,1c-0.4,1.7-1.7,7.2-1.5,8.4C131.2,110.7,132.8,111.9,135.3,111.9
		L135.3,111.9z M218.8,111.7h2.1c0.4-1.7,0.7-3.4,1-5.2c0.2-0.8,0.9-4.6,0.9-5.4l0,0l0.9,2.6c0.4,1.2,3.1,7.5,3.1,7.9h1.7
		c0.3,0,0.3,0,0.4-0.1c0,0,0.4-1.6,0.4-1.8c0.2-1.2,0.5-2.5,0.8-3.8c0.2-0.7,1.5-7,1.5-7.6c-2.4,0-1.9-0.3-2.2,1.1l-0.7,3.9
		c-0.2,0.9-0.9,4.4-0.9,5.3l-4-10.4h-2.2c-0.2,0.3-0.3,1.1-0.4,1.5c-0.7,3.3-1.5,6.8-2.2,10.1L218.8,111.7z M92.4,111.7h10.1
		c0.1-0.4,0.4-1.3,0.4-1.8H95c0-0.9,1.3-5.6,1.3-6.3h6c0.3,0,0.3-0.5,0.4-0.8c0.1-0.4,0.2-0.7,0.2-1.1h-6.1c0-0.4,0.2-0.9,0.2-1.4
		c0.1-0.4,0.2-0.9,0.3-1.4c0.1-0.7,0.5-2.4,0.5-2.9h7.4c0-0.2,0.2-0.6,0.3-0.9c0.1-0.2,0.2-0.6,0.4-0.9h-9.7
		c-0.4,0.1-0.2,0.2-0.3,0.6l-0.5,2.4c-0.1,0.5-0.2,1-0.4,1.6c-0.7,3.7-1.6,7.5-2.4,11.2C92.6,110.5,92.4,111.2,92.4,111.7
		L92.4,111.7z M116.5,110.3c-2.2,0-3.3-0.7-3.3-3.1c0-1.8,0.5-3.5,1.2-5c1.3-2.6,5-2.8,6.3-1.6c1.6,1.5,0.3,5.9-0.4,7.3
		C119.6,109.4,118.3,110.3,116.5,110.3L116.5,110.3z M110.9,106.8c0,1.2,0.1,2.3,0.8,3.3c0.2,0.2,0.3,0.4,0.5,0.6
		c2.2,1.8,3.6,0.7,5.5,1.6c0.9,0.4,2.8,1.9,3.8,2.2c0.5,0.1,1.2,0.2,1.7,0c0.4,0,0.2,0,0.4-0.3c0.2-0.3,0.5-0.7,0.6-1
		c-1.1,0-1.4,0.2-2.7-0.6l-2.2-1.4c1.2-0.2,2.6-2,3.2-3.1c0.2-0.2,0.4-0.9,0.5-1c0.2-0.4,0.3-0.8,0.4-1.2c0.4-1.6,0.7-3.5,0-5.1
		c-0.2-0.6-0.5-0.9-0.9-1.3c-1.9-1.9-5.4-1.5-7.6-0.4C112.6,100.3,110.9,103.7,110.9,106.8L110.9,106.8z M178.5,111.7h1.9l3.4-11.1
		c0,2.9,0.7,6.7,1,9.7c0,0.4,0.1,1,0.1,1.4h1.9c0.1-0.5,5-8.7,5.6-10.2l0.2-0.5c0.1-0.2,0-0.1,0.2-0.2l-1.1,8.2
		c0,0.5-0.2,2.5-0.4,2.7h2.2c0-0.5,0.1-1.1,0.1-1.6c0-0.5,0.1-1,0.2-1.7c0.1-1,0.3-2.2,0.4-3.4l0.8-6.7h-2.9c-0.3,0-0.9,1.5-1.1,1.8
		c-0.1,0.2-0.2,0.4-0.4,0.6c-1.1,2.2-2.4,4.4-3.5,6.6c-0.1,0.3-0.2,0.4-0.4,0.7c-0.1,0.3-0.1,0.5-0.4,0.7c0-2.5-0.3-5.3-0.6-7.8
		c-0.1-0.5-0.1-0.8-0.1-1.2c-0.1-0.3-0.2-1-0.2-1.3c-3.6,0-2.7-0.4-3.3,1.5c-0.2,0.6-0.4,1.1-0.5,1.7L178.5,111.7z M64.5,108.5
		c0,0.9,0,1.8,0.8,2.4c0.4,0.4,1.2,0.6,2,0.6h10.1c1.4,0,2.7-0.8,3.3-1.6c0.9-1.1,1.1-1.9,1.5-3.4c0.3-1.2,1.9-7,1.9-8.2
		c0-1.7-0.7-2.9-2.7-2.9H71.3c-1.4,0-2.7,0.8-3.3,1.6c-0.9,1-1.2,1.9-1.5,3.4C66.1,101.6,64.5,107.5,64.5,108.5L64.5,108.5z
		 M61.5,118.9c0,3-1.6,8.6-2.4,11.7l-5.5,22.5c-1.2,4.6-1.4,6.5-3.9,10.2h20.6c0-0.6-0.2-1-0.2-1.9c0-3.4,0.2-3.9,1-7.3
		c0.4-1.7,0.9-3.7,1.4-5.5c0.9-3.7,1.7-7.3,2.7-11.1c0.9-3.7,1.9-7.3,2.7-11c0.4-1.9,0.9-3.7,1.5-5.4l1-2.4l1.4-2.1H61.2
		c0,0.4,0.1,0.7,0.1,1.1C61.4,118.2,61.5,118.4,61.5,118.9L61.5,118.9z M86.6,163.3h17.6c1.6,0,3.2-0.5,4.1-1.1
		c0.7-0.5,1.4-1.4,1.9-2.1c0.2-0.4,0.4-0.5,0.5-0.9h0.1c0,0.2,0,0.7,0,1c0,0.2,0,0.7-0.1,1l-0.2,2.2h15.6c-1-2.2-0.7-4.6-0.2-6.8
		c0.4-1.9,3.6-14.8,4.2-16.3c0.5-1.5,1.2-2.6,2.3-3.8c0.2-0.4,0.7-0.9,0.9-1.2H104l-2.2,8.7c0.5,0,1.5-0.8,2.7-0.8h7
		c0,0.5-1.7,6.8-1.8,7.5c-0.6,2.4-0.8,5-4.4,5h-6.5c-3.6,0-2.4-2.6-2.1-3.9c0.1-0.7,0.3-1.4,0.5-2.1c0.3-1.4,0.6-2.7,1-4.1
		c0.7-2.7,1.4-5.5,2.1-8.2c0.6-2.7,1.3-5.5,2-8.2c0.9-3.4,1-4.6,5.7-4.6h16.2c6.3,0,7.3,1.1,8.2,1.2c0-0.8,0.1-1.5,0.2-2.2
		c0-0.4,0.1-0.7,0.1-1.1l0.3-3.3c0.1-0.8,0.2-1.4,0.2-2.2H99c-6.2,0-10.5,3.2-12.6,7.3c-0.7,1.4-1.3,2.6-1.7,4.2
		c-0.8,2.7-1.7,6.6-2.4,9.4c-0.7,3-3.1,12.3-3.6,15.2c-0.6,3.8,0,8.1,3.9,9.7C83.7,163,85.1,163.3,86.6,163.3L86.6,163.3z
		 M64.7,87.4c0,1.3-0.4,2.2-1,3.4c-0.1,0.2-0.2,0.4-0.3,0.5c-0.2,0.4-0.4,0.7-0.6,1c-0.8,1.4-1.7,2.7-2.5,4.1
		c-0.2,0.3-0.4,0.6-0.6,1c-0.2,0.4-0.4,0.7-0.6,1c-0.4,0.7-0.8,1.3-1.2,2l-5.1,8.1c-0.4,0.7-0.9,1.3-1.3,2.1l-1.9,3
		c-0.2,0.4-0.4,0.7-0.7,1c-0.2,0.3-0.4,0.6-0.6,1l-10.9,17.2c-0.2,0.4-0.4,0.6-0.6,1c-0.2,0.4-0.4,0.7-0.7,1l-2.6,4.1
		c-1.8,2.9-4,6.1-5.8,9c-0.2,0.4-0.4,0.7-0.6,1c-0.2,0.3-2.4,3.8-2.6,4c0-0.1-3.4-29.1-3.4-30.7c0-1.5,0-2.2,0.4-3.8
		c0.2-0.8,0.8-1.8,0.8-2.1H0.1c0.2,0.4,0.4,0.5,0.7,0.9c1.3,2.2,1.4,6.9,1.7,9.8c0.1,0.9,0.2,2,0.4,3c0,0.9,0.2,1.9,0.3,2.9
		c0.2,2,0.4,4.1,0.7,6c0.2,2,0.4,3.9,0.6,6l2,18h22.4c0-0.4,0.7-1.2,1-1.6c0.4-0.5,0.7-1,1-1.6c0.7-1,1.4-2.1,2.1-3.2L63,112.1
		c0.1-0.1,0,0,0.2-0.2c0-0.1,0-0.1,0.1-0.2c-1.2-1.7-0.3-4.2,0.2-6.3c0.4-1.7,1.5-6.8,2.1-8c0.9-1.9,2-3.1,4.2-3.4
		c0.8-0.1,3.9,0,5,0c0.7,0,0.6-0.2,1.4-1.2l3.6-5.1c0.2-0.2,0.4-0.5,0.6-0.7l-6,0c-0.7,0-1.2-0.1-2-0.1c-2.7,0-5.3,0-8,0
		C64.7,86.9,64.7,86.9,64.7,87.4L64.7,87.4z M162.4,155.5h-8c-0.9,0-2-0.1-2.5-0.9c-0.5-0.9,0-2.1,0.2-3c0.2-0.7,0.4-1.4,0.5-2.1
		l3.1-12.4c0.7-2.7,1.4-5.5,2.1-8.2c0.3-1.2,0.5-2.7,1.4-3.6c0.9-0.8,2.5-0.9,4.2-0.9c1.4,0,7-0.1,8.2,0.2c1.9,0.5,1.2,2.3,0.8,3.9
		l-3.4,13.8c-0.6,2.7-1.3,5.3-1.9,7.9c-0.3,1.2-0.5,2.7-1.2,3.8C165.2,155,164,155.5,162.4,155.5L162.4,155.5z M134,154.5
		c0,2.6,0.1,4.9,2.3,6.8c1.2,1,3.6,1.9,5.8,1.9h28.6c4.9,0,9-2.6,11.4-6.7c1.5-2.6,2.1-5,2.9-8l4.3-17.5c0.6-2.4,1-3.9,1-6.8
		c0-5.7-4-7.7-8.9-7.7h-27.1c-4.2,0-7,1.2-9.9,3.7l-1.3,1.5c-0.2,0.3-0.5,0.7-0.7,1c-0.8,1.2-1.8,3.4-2.3,5c-0.2,1-0.5,1.9-0.7,2.9
		l-4.3,17.5C134.8,150.1,134,152.8,134,154.5L134,154.5z M187.4,163.3H208c-0.2-0.4-0.4-1.9-0.4-2.6c0-1.7,0.4-3.2,0.7-4.6
		s3.1-12.4,3.1-13c1.2,0,2.4,0,3.6,0c0.3,0,1.6,0,1.8,0c0.1,0.1,0.1,0.5,0.2,0.7c0,0.3,0.1,0.4,0.1,0.8c0.3,2,0.7,4.1,1,6.1l1.5,9.3
		c0.1,0.5,0.2,1,0.2,1.5c0,0.4,0.2,1.2,0.2,1.6h19.8l-0.9-2.2c-0.4-1.4-1.8-8.1-2.3-10.2l-1.7-7.7c0.4,0,1.3-0.1,1.7-0.1
		c3.9-0.6,5.9-2.7,7-6.8c0.6-2.6,2.8-10.4,2.8-13c0-1.7-0.2-2.9-1.3-4.3l-0.9-0.8c-2.7-1.9-8.4-1.5-11.9-1.5c-11.2,0-22.3,0-33.5,0
		c0.9,3.9-0.6,8.4-1.6,12.4s-1.9,7.8-2.9,11.8c-1,3.9-1.9,7.9-2.9,11.8c-0.5,1.9-0.9,3.9-1.5,5.8c-0.5,1.5-1.2,3-2.1,4.3
		C187.5,163,187.4,163.1,187.4,163.3L187.4,163.3z"/>
</g>
</svg>
