<?xml version="1.0" encoding="utf-8"?>
<!-- Generator: Adobe Illustrator 25.1.0, SVG Export Plug-In . SVG Version: 6.00 Build 0)  -->
<svg version="1.1" id="Layer_1" xmlns="http://www.w3.org/2000/svg" xmlns:xlink="http://www.w3.org/1999/xlink" x="0px" y="0px"
	 viewBox="0 0 750 750" style="enable-background:new 0 0 750 750;" xml:space="preserve">
<style type="text/css">
	.st0{fill:#64798A;}
	.st1{fill:#44C4A1;}
	.st2{fill:#3EA69B;}
	.st3{fill:#E56353;}
	.st4{fill:#FCD462;}
	.st5{fill:#F6C358;}
	.st6{fill:#DC8744;}
	.st7{fill:#5A7082;}
	.st8{fill:#647989;}
	.st9{fill:#D15241;}
	.st10{fill:#CE412D;}
	.st11{fill:#31978C;}
	.st12{fill:#2B9489;}
</style>
<path class="st0" d="M375,702.4c-87.4,0-169.7-34.1-231.5-95.9S47.6,462.5,47.6,375c0-87.4,34.1-169.7,95.9-231.5
	s144-95.9,231.5-95.9c87.4,0,169.7,34.1,231.5,95.9s95.9,144,95.9,231.5c0,87.4-34.1,169.7-95.9,231.5S462.4,702.4,375,702.4z
	 M375,57.6C200,57.6,57.6,200,57.6,375S200,692.4,375,692.4S692.4,550,692.4,375S550,57.6,375,57.6z"/>
<path class="st1" d="M490.1,296l59.5,55.3c2.4,2.2,6.1,2.1,8.3-0.3l22.9-24.7c2.2-2.4,2.1-6.1-0.3-8.3L521,262.8
	c-2.4-2.2-6.1-2.1-8.3,0.3l-22.9,24.7C487.6,290.1,487.7,293.8,490.1,296z"/>
<path class="st2" d="M445.5,344l59.5,55.3c2.4,2.2,6.1,2.1,8.3-0.3l22.9-24.7c2.2-2.4,2.1-6.1-0.3-8.3l-59.5-55.3
	c-2.4-2.2-6.1-2.1-8.3,0.3l-22.9,24.7C443,338.1,443.1,341.8,445.5,344z"/>
<path class="st3" d="M262.4,285.3l-64.5,49.3c-2.6,2-6.2,1.5-8.2-1.1l-20.5-26.8c-2-2.6-1.5-6.2,1.1-8.2l64.5-49.3
	c2.6-2,6.2-1.5,8.2,1.1l20.5,26.8C265.4,279.7,264.9,283.3,262.4,285.3z"/>
<path class="st4" d="M406.5,263.9h-81.2c-3.2,0-5.8-2.6-5.8-5.8v-33.7c0-3.2,2.6-5.8,5.8-5.8h81.2c3.2,0,5.8,2.6,5.8,5.8V258
	C412.3,261.2,409.7,263.9,406.5,263.9z"/>
<path class="st5" d="M406.5,329.3h-81.2c-3.2,0-5.8-2.6-5.8-5.8v-33.7c0-3.2,2.6-5.8,5.8-5.8h81.2c3.2,0,5.8,2.6,5.8,5.8v33.7
	C412.3,326.7,409.7,329.3,406.5,329.3z"/>
<path class="st6" d="M406.5,394.8h-81.2c-3.2,0-5.8-2.6-5.8-5.8v-33.7c0-3.2,2.6-5.8,5.8-5.8h81.2c3.2,0,5.8,2.6,5.8,5.8V389
	C412.3,392.2,409.7,394.8,406.5,394.8z"/>
<path class="st7" d="M406.5,460.3h-81.2c-3.2,0-5.8-2.6-5.8-5.8v-33.7c0-3.2,2.6-5.8,5.8-5.8h81.2c3.2,0,5.8,2.6,5.8,5.8v33.7
	C412.3,457.7,409.7,460.3,406.5,460.3z"/>
<path class="st8" d="M365.9,505.6c-10.2,0-18.4-8.3-18.4-18.4c0-10.2,8.3-18.4,18.4-18.4c10.2,0,18.4,8.3,18.4,18.4
	C384.3,497.4,376,505.6,365.9,505.6z M365.9,475.8c-6.3,0-11.4,5.1-11.4,11.4c0,6.3,5.1,11.4,11.4,11.4s11.4-5.1,11.4-11.4
	C377.3,480.9,372.2,475.8,365.9,475.8z"/>
<path class="st0" d="M602.5,307.6l-72.6-67.6c-7.5-7-19.4-6.6-26.4,1l-69.3,74.5V214.5c0-10.3-8.4-18.7-18.7-18.7h-99.2
	c-10.3,0-18.7,8.4-18.7,18.7v71.4l-43.3-56.7c-6.3-8.2-18-9.7-26.2-3.5L149.4,286c-4,3-6.5,7.4-7.2,12.4c-0.7,4.9,0.6,9.8,3.7,13.8
	l152.1,198.9c1.1,6,5,11,10.4,13.6l0.9,1.2l0,0l14.8,19.3c3.7,4.8,9.2,7.3,14.9,7.3c4,0,7.9-1.2,11.3-3.8l14.2-10.9l12.8,11.9
	c3.6,3.3,8.2,5,12.7,5c5,0,10-2,13.7-5.9L603.4,334c3.4-3.7,5.2-8.4,5-13.4C608.2,315.6,606.1,311,602.5,307.6z M297.6,494.2
	L153.8,306.1c-1.4-1.8-2-4.1-1.7-6.4s1.5-4.3,3.3-5.7l78.8-60.2c1.6-1.2,3.4-1.8,5.3-1.8c2.6,0,5.2,1.2,6.9,3.4l51.3,67V494.2z
	 M315.5,516.5c-0.2,0-0.4,0-0.6-0.1c-0.1,0-0.1,0-0.2,0c-0.5-0.1-1-0.2-1.5-0.4l-0.4-0.1c-2.8-1.2-4.8-3.8-5.2-7l0-0.2
	c0-0.3,0-0.5,0-0.8V299v-84.5c0-4.8,3.9-8.7,8.7-8.7h99.2c4.8,0,8.7,3.9,8.7,8.7v111.8v181.6c0,4.8-3.9,8.7-8.7,8.7h-23.1h-16.5
	h-59.6C316,516.5,315.8,516.5,315.5,516.5z M344.1,540.8c-3.8,2.9-9.2,2.2-12.2-1.6l-9.7-12.7h40.5L357,531l0,0L344.1,540.8z
	 M396.3,542c-3.3,3.5-8.8,3.7-12.3,0.4l-11.5-10.7l6.3-4.8l0.5-0.4h31.4L396.3,542z M596.1,327.2l-161.9,174v-171l76.6-82.4
	c3.3-3.5,8.8-3.7,12.3-0.4l72.6,67.6c1.7,1.6,2.7,3.7,2.8,6C598.5,323.3,597.7,325.5,596.1,327.2z"/>
<path class="st9" d="M297.6,321.8l-14.9-19.5c-2-2.6-5.6-3.1-8.2-1.1L210,350.6c-2.6,2-3.1,5.6-1.1,8.2l20.5,26.8
	c2,2.6,5.6,3.1,8.2,1.1l60-45.9V321.8z"/>
<path class="st10" d="M297.6,366l-47.8,36.6c-2.6,2-3.1,5.6-1.1,8.2l20.5,26.8c2,2.6,5.6,3.1,8.2,1.1l20.3-15.5V366z"/>
<path class="st6" d="M297.6,448.5l-8.1,6.2c-2.6,2-3.1,5.6-1.1,8.2l9.2,12V448.5z"/>
<path class="st11" d="M468.6,446.9l22.9-24.7c2.2-2.4,2.1-6.1-0.3-8.3l-57.1-53.1v62l26.2,24.4C462.7,449.4,466.4,449.3,468.6,446.9
	z"/>
<path class="st12" d="M446.6,461.9l-12.5-11.6v33.6l12.8-13.7C449.1,467.8,449,464.1,446.6,461.9z"/>
</svg>
