<?xml version="1.0" encoding="utf-8"?>
<!-- Generator: Adobe Illustrator 25.1.0, SVG Export Plug-In . SVG Version: 6.00 Build 0)  -->
<svg version="1.1" id="Layer_1" xmlns="http://www.w3.org/2000/svg" xmlns:xlink="http://www.w3.org/1999/xlink" x="0px" y="0px"
	 viewBox="0 0 750 750" style="enable-background:new 0 0 750 750;" xml:space="preserve">
<style type="text/css">
	.st0{fill:#B1E5F2;}
	.st1{fill:#D5D6DB;}
	.st2{fill:#44C4A1;}
	.st3{fill:#3EA69B;}
	.st4{fill:#31978C;}
	.st5{fill:#2B9489;}
	.st6{fill:#FFFFFF;}
	.st7{fill:#E56353;}
	.st8{fill:#D15241;}
	.st9{fill:#CE412D;}
	.st10{fill:#DC8744;}
	.st11{fill:#EFF4F8;}
	.st12{fill:#FCD462;}
	.st13{fill:#F6C358;}
	.st14{fill:#5A7082;}
	.st15{fill:#647989;}
</style>
<circle class="st0" cx="375" cy="375" r="322.4"/>
<path class="st1" d="M308,478.5l72.6,67.6c5.5,5.1,14.2,4.8,19.3-0.7l199.8-214.8c5.1-5.5,4.8-14.2-0.7-19.3l-72.6-67.6
	c-5.5-5.1-14.2-4.8-19.3,0.7L307.3,459.2C302.1,464.7,302.5,473.4,308,478.5z"/>
<path class="st2" d="M490.1,296l59.5,55.3c2.4,2.2,6.1,2.1,8.3-0.3l22.9-24.7c2.2-2.4,2.1-6.1-0.3-8.3L521,262.8
	c-2.4-2.2-6.1-2.1-8.3,0.3l-22.9,24.7C487.6,290.1,487.7,293.8,490.1,296z"/>
<path class="st3" d="M445.5,344l59.5,55.3c2.4,2.2,6.1,2.1,8.3-0.3l22.9-24.7c2.2-2.4,2.1-6.1-0.3-8.3l-59.5-55.3
	c-2.4-2.2-6.1-2.1-8.3,0.3l-22.9,24.7C443,338.1,443.1,341.8,445.5,344z"/>
<path class="st4" d="M400.9,391.9l59.5,55.3c2.4,2.2,6.1,2.1,8.3-0.3l22.9-24.7c2.2-2.4,2.1-6.1-0.3-8.3l-59.5-55.3
	c-2.4-2.2-6.1-2.1-8.3,0.3l-22.9,24.7C398.4,386,398.5,389.7,400.9,391.9z"/>
<path class="st5" d="M356.3,439.8l59.5,55.3c2.4,2.2,6.1,2.1,8.3-0.3l22.9-24.7c2.2-2.4,2.1-6.1-0.3-8.3l-59.5-55.3
	c-2.4-2.2-6.1-2.1-8.3,0.3L356,431.6C353.8,433.9,353.9,437.6,356.3,439.8z"/>
<path class="st6" d="M426,484.5l-78.8,60.2c-6,4.6-14.6,3.4-19.2-2.6L149.8,309.1c-4.6-6-3.4-14.6,2.6-19.2l78.8-60.2
	c6-4.6,14.6-3.4,19.2,2.6l178.2,233.1C433.1,471.4,432,479.9,426,484.5z"/>
<path class="st7" d="M262.4,285.3l-64.5,49.3c-2.6,2-6.2,1.5-8.2-1.1l-20.5-26.8c-2-2.6-1.5-6.2,1.1-8.2l64.5-49.3
	c2.6-2,6.2-1.5,8.2,1.1l20.5,26.8C265.4,279.7,264.9,283.3,262.4,285.3z"/>
<path class="st8" d="M302.1,337.3l-64.5,49.3c-2.6,2-6.2,1.5-8.2-1.1l-20.5-26.8c-2-2.6-1.5-6.2,1.1-8.2l64.5-49.3
	c2.6-2,6.2-1.5,8.2,1.1l20.5,26.8C305.2,331.7,304.7,335.3,302.1,337.3z"/>
<path class="st9" d="M341.9,389.3l-64.5,49.3c-2.6,2-6.2,1.5-8.2-1.1l-20.5-26.8c-2-2.6-1.5-6.2,1.1-8.2l64.5-49.3
	c2.6-2,6.2-1.5,8.2,1.1l20.5,26.8C344.9,383.7,344.5,387.4,341.9,389.3z"/>
<path class="st10" d="M381.7,441.3l-64.5,49.3c-2.6,2-6.2,1.5-8.2-1.1l-20.5-26.8c-2-2.6-1.5-6.2,1.1-8.2l64.5-49.3
	c2.6-2,6.2-1.5,8.2,1.1l20.5,26.8C384.7,435.7,384.2,439.4,381.7,441.3z"/>
<g>
	<path class="st11" d="M415.5,521.5h-99.2c-7.5,0-13.7-6.1-13.7-13.7V214.5c0-7.5,6.1-13.7,13.7-13.7h99.2c7.5,0,13.7,6.1,13.7,13.7
		v293.4C429.2,515.4,423,521.5,415.5,521.5z"/>
	<path class="st12" d="M406.5,263.9h-81.2c-3.2,0-5.8-2.6-5.8-5.8v-33.7c0-3.2,2.6-5.8,5.8-5.8h81.2c3.2,0,5.8,2.6,5.8,5.8V258
		C412.3,261.2,409.7,263.9,406.5,263.9z"/>
	<path class="st13" d="M406.5,329.3h-81.2c-3.2,0-5.8-2.6-5.8-5.8v-33.7c0-3.2,2.6-5.8,5.8-5.8h81.2c3.2,0,5.8,2.6,5.8,5.8v33.7
		C412.3,326.7,409.7,329.3,406.5,329.3z"/>
	<path class="st10" d="M406.5,394.8h-81.2c-3.2,0-5.8-2.6-5.8-5.8v-33.7c0-3.2,2.6-5.8,5.8-5.8h81.2c3.2,0,5.8,2.6,5.8,5.8V389
		C412.3,392.2,409.7,394.8,406.5,394.8z"/>
	<path class="st14" d="M406.5,460.3h-81.2c-3.2,0-5.8-2.6-5.8-5.8v-33.7c0-3.2,2.6-5.8,5.8-5.8h81.2c3.2,0,5.8,2.6,5.8,5.8v33.7
		C412.3,457.7,409.7,460.3,406.5,460.3z"/>
	<path class="st15" d="M365.9,505.6c-10.2,0-18.4-8.3-18.4-18.4c0-10.2,8.3-18.4,18.4-18.4c10.2,0,18.4,8.3,18.4,18.4
		C384.3,497.4,376,505.6,365.9,505.6z M365.9,475.8c-6.3,0-11.4,5.1-11.4,11.4c0,6.3,5.1,11.4,11.4,11.4s11.4-5.1,11.4-11.4
		C377.3,480.9,372.2,475.8,365.9,475.8z"/>
</g>
</svg>
