<?xml version="1.0" encoding="utf-8"?>
<!-- Generator: Adobe Illustrator 25.1.0, SVG Export Plug-In . SVG Version: 6.00 Build 0)  -->
<svg version="1.1" id="Layer_1" xmlns="http://www.w3.org/2000/svg" xmlns:xlink="http://www.w3.org/1999/xlink" x="0px" y="0px"
	 viewBox="0 0 750 750" style="enable-background:new 0 0 750 750;" xml:space="preserve">
<style type="text/css">
	.st0{fill:#617688;}
	.st1{fill-rule:evenodd;clip-rule:evenodd;fill:#617688;}
	.st2{fill-rule:evenodd;clip-rule:evenodd;fill:#FCD462;}
	.st3{fill-rule:evenodd;clip-rule:evenodd;fill:#44C4A1;}
	.st4{fill-rule:evenodd;clip-rule:evenodd;fill:#E56353;}
	.st5{fill-rule:evenodd;clip-rule:evenodd;fill:#DA813B;}
	.st6{fill:#647A8A;}
</style>
<path class="st0" d="M535.5,195.2h-321c-10.5,0-19.1,8.6-19.1,19.1v38.2v283.2c0,10.5,8.6,19.1,19.1,19.1h321
	c10.5,0,19.1-8.6,19.1-19.1V252.5v-38.2C554.6,203.8,546,195.2,535.5,195.2z M544.6,535.7c0,5-4.1,9.1-9.1,9.1h-321
	c-5,0-9.1-4.1-9.1-9.1V262.1c10.2-2.3,12.7-11.2,14.2-16.7c0.4-1.4,0.9-3.4,1.4-4.2l41,0c0.5,0.8,1,2.9,1.4,4.2
	c1.6,5.9,4.4,15.8,16.8,17.1l0.3,0h264.1V535.7z M281,252.5c-4.9-0.6-6.2-3.5-7.9-9.8c-1.3-4.6-3.2-11.6-10.7-11.6h-41.7
	c-7.5,0-9.4,7-10.7,11.6c-1.3,4.6-2.3,7.3-4.6,8.7v-37.1c0-5,4.1-9.1,9.1-9.1h321c5,0,9.1,4.1,9.1,9.1v38.2H281z"/>
<path class="st1" d="M273.6,237.4c18.2,0,36.3,0,54.5,0c4.2,0.4,5.4,4.7,6.4,8.3c0.5,1.7,0.9,3.2,1.4,4.7c-18.2,0-36.3,0-54.5,0
	c-4.2-0.4-5.4-4.7-6.4-8.3C274.6,240.5,274.2,238.9,273.6,237.4z"/>
<path class="st2" d="M461,239.4c5.8,0,10.5-4.7,10.5-10.5c0-5.8-4.7-10.5-10.5-10.5c-5.8,0-10.5,4.7-10.5,10.5
	C450.4,234.7,455.2,239.4,461,239.4z"/>
<path class="st3" d="M495.6,239.4c5.8,0,10.5-4.7,10.5-10.5c0-5.8-4.7-10.5-10.5-10.5c-5.8,0-10.5,4.7-10.5,10.5
	C485.1,234.7,489.8,239.4,495.6,239.4z"/>
<path class="st4" d="M530.2,239.4c5.8,0,10.5-4.7,10.5-10.5c0-5.8-4.7-10.5-10.5-10.5s-10.5,4.7-10.5,10.5
	C519.7,234.7,524.4,239.4,530.2,239.4z"/>
<path class="st1" d="M331.3,312.4L331.3,312.4c2.7-1.2,5.9,0.1,7.1,2.9l76.7,179.9c1.2,2.7-0.1,5.9-2.9,7.1l0,0
	c-2.7,1.2-5.9-0.1-7.1-2.9l-76.7-179.9C327.3,316.8,328.5,313.6,331.3,312.4z"/>
<path class="st4" d="M449.4,355.7l46.8,46.8c3.2,2.3,3.2,6.6,0,8.9l-46.8,46.8c-5.1,5.1-12.7-2.6-7.6-7.6l43.7-43.7l-43.7-43.7
	C436.7,358.3,444.4,350.6,449.4,355.7z"/>
<path class="st5" d="M300.6,355.7l-46.8,46.8c-3.2,2.3-3.2,6.6,0,8.9l46.8,46.8c5.1,5.1,12.7-2.6,7.6-7.6L264.6,407l43.7-43.7
	C313.3,358.3,305.6,350.6,300.6,355.7z"/>
<path class="st6" d="M375,702.4c-87.4,0-169.7-34.1-231.5-95.9S47.6,462.5,47.6,375c0-87.4,34.1-169.7,95.9-231.5
	s144-95.9,231.5-95.9c87.4,0,169.7,34.1,231.5,95.9s95.9,144,95.9,231.5c0,87.4-34.1,169.7-95.9,231.5S462.4,702.4,375,702.4z
	 M375,57.6C200,57.6,57.6,200,57.6,375S200,692.4,375,692.4S692.4,550,692.4,375S550,57.6,375,57.6z"/>
</svg>
