<?xml version="1.0" encoding="utf-8"?>
<!-- Generator: Adobe Illustrator 25.1.0, SVG Export Plug-In . SVG Version: 6.00 Build 0)  -->
<svg version="1.1" id="Layer_1" xmlns="http://www.w3.org/2000/svg" xmlns:xlink="http://www.w3.org/1999/xlink" x="0px" y="0px"
	 viewBox="0 0 750 750" style="enable-background:new 0 0 750 750;" xml:space="preserve">
<style type="text/css">
	.st0{fill:#B4E2F0;}
	.st1{fill-rule:evenodd;clip-rule:evenodd;fill:#617688;}
	.st2{fill-rule:evenodd;clip-rule:evenodd;fill:#FFFFFF;}
	.st3{fill-rule:evenodd;clip-rule:evenodd;fill:#FCD462;}
	.st4{fill-rule:evenodd;clip-rule:evenodd;fill:#44C4A1;}
	.st5{fill-rule:evenodd;clip-rule:evenodd;fill:#E56353;}
	.st6{fill-rule:evenodd;clip-rule:evenodd;fill:#DA813B;}
</style>
<circle class="st0" cx="375" cy="375" r="322.4"/>
<path class="st1" d="M535.5,549.8h-321c-7.8,0-14.1-6.3-14.1-14.1V214.3c0-7.8,6.3-14.1,14.1-14.1h321c7.8,0,14.1,6.3,14.1,14.1
	v321.4C549.6,543.5,543.3,549.8,535.5,549.8z"/>
<path class="st2" d="M549.6,257.5H280.7c-15.7-1.6-9.8-21.4-18.4-21.4h-41.7c-8.6,0-2.6,19.8-18.4,21.4h-1.9v278.2
	c0,7.8,6.3,14.1,14.1,14.1h321c7.8,0,14.1-6.3,14.1-14.1V257.5z"/>
<path class="st2" d="M273.6,237.4c18.2,0,36.3,0,54.5,0c4.2,0.4,5.4,4.7,6.4,8.3c0.5,1.7,0.9,3.2,1.4,4.7c-18.2,0-36.3,0-54.5,0
	c-4.2-0.4-5.4-4.7-6.4-8.3C274.6,240.5,274.2,238.9,273.6,237.4z"/>
<path class="st3" d="M461,239.4c5.8,0,10.5-4.7,10.5-10.5c0-5.8-4.7-10.5-10.5-10.5c-5.8,0-10.5,4.7-10.5,10.5
	C450.4,234.7,455.2,239.4,461,239.4z"/>
<path class="st4" d="M495.6,239.4c5.8,0,10.5-4.7,10.5-10.5c0-5.8-4.7-10.5-10.5-10.5c-5.8,0-10.5,4.7-10.5,10.5
	C485.1,234.7,489.8,239.4,495.6,239.4z"/>
<path class="st5" d="M530.2,239.4c5.8,0,10.5-4.7,10.5-10.5c0-5.8-4.7-10.5-10.5-10.5s-10.5,4.7-10.5,10.5
	C519.7,234.7,524.4,239.4,530.2,239.4z"/>
<g>
	<path class="st1" d="M331.3,312.4L331.3,312.4c2.7-1.2,5.9,0.1,7.1,2.9l76.7,179.9c1.2,2.7-0.1,5.9-2.9,7.1l0,0
		c-2.7,1.2-5.9-0.1-7.1-2.9l-76.7-179.9C327.3,316.8,328.5,313.6,331.3,312.4z"/>
	<path class="st5" d="M449.4,355.7l46.8,46.8c3.2,2.3,3.2,6.6,0,8.9l-46.8,46.8c-5.1,5.1-12.7-2.6-7.6-7.6l43.7-43.7l-43.7-43.7
		C436.7,358.3,444.4,350.6,449.4,355.7z"/>
	<path class="st6" d="M300.6,355.7l-46.8,46.8c-3.2,2.3-3.2,6.6,0,8.9l46.8,46.8c5.1,5.1,12.7-2.6,7.6-7.6L264.6,407l43.7-43.7
		C313.3,358.3,305.6,350.6,300.6,355.7z"/>
</g>
</svg>
