<?xml version="1.0" encoding="utf-8"?>
<!-- Generator: Adobe Illustrator 25.1.0, SVG Export Plug-In . SVG Version: 6.00 Build 0)  -->
<svg version="1.1" id="Layer_1" xmlns="http://www.w3.org/2000/svg" xmlns:xlink="http://www.w3.org/1999/xlink" x="0px" y="0px"
	 viewBox="0 0 750 750" style="enable-background:new 0 0 750 750;" xml:space="preserve">
<style type="text/css">
	.st0{fill:none;}
	.st1{fill-rule:evenodd;clip-rule:evenodd;fill:#4FBF9F;}
	.st2{fill-rule:evenodd;clip-rule:evenodd;fill:#FAD364;}
	.st3{fill-rule:evenodd;clip-rule:evenodd;fill:#23A0DB;}
	.st4{fill-rule:evenodd;clip-rule:evenodd;fill:#E66455;}
	.st5{fill-rule:evenodd;clip-rule:evenodd;fill:#647A8A;}
	.st6{fill:#647A8A;}
</style>
<rect class="st0" width="750" height="750"/>
<path class="st1" d="M240.5,301.2h-24.8c-2,0-3.5,1-3.5,2.3v127.6h31.9V303.5C244.1,302.2,242.5,301.2,240.5,301.2z"/>
<path class="st2" d="M289.9,272.1h-24.8c-2,0-3.5,1.3-3.5,2.8v156.2h31.9V274.9C293.5,273.4,291.9,272.1,289.9,272.1z"/>
<path class="st3" d="M339.3,223.9h-24.8c-2,0-3.5,1.7-3.5,3.7v203.5h31.9V227.6C342.9,225.6,341.3,223.9,339.3,223.9z"/>
<path class="st4" d="M388.7,295.7h-24.8c-2,0-3.6,1.1-3.5,2.4v133h31.9v-133C392.3,296.8,390.7,295.7,388.7,295.7z"/>
<rect x="417.2" y="231.3" class="st5" width="123.4" height="7.2"/>
<rect x="417.2" y="251.9" class="st5" width="123.4" height="7.2"/>
<rect x="417.2" y="272.5" class="st5" width="123.4" height="7.2"/>
<rect x="417.2" y="293.1" class="st5" width="73.6" height="7.2"/>
<rect x="452.9" y="331.6" class="st5" width="87.8" height="7.2"/>
<rect x="452.9" y="360.5" class="st5" width="87.8" height="7.2"/>
<rect x="452.9" y="389.3" class="st5" width="87.8" height="7.2"/>
<rect x="452.9" y="418.1" class="st5" width="87.8" height="7.2"/>
<rect x="415.5" y="324.8" class="st1" width="20.7" height="20.7"/>
<rect x="415.5" y="353.7" class="st2" width="20.7" height="20.7"/>
<rect x="415.5" y="382.5" class="st3" width="20.7" height="20.7"/>
<rect x="415.5" y="411.3" class="st4" width="20.7" height="20.7"/>
<path class="st6" d="M551.4,202H393.2v-20.1h-36.4V202H198.6c-8.7,0-15.8,7.1-15.8,15.8v220.8c0,8.7,7.1,15.8,15.8,15.8h71.2
	l-41,113.9h37.1l41-113.9h49.9v75.1h36.4v-75.1h49.9l41,113.9h37.1l-41-113.9h71.2c8.7,0,15.8-7.1,15.8-15.8V217.7
	C567.2,209.1,560.1,202,551.4,202z M366.8,191.9h16.4V202h-16.4V191.9z M258.9,558.2H243l37.4-103.9h15.8L258.9,558.2z M383.2,519.3
	h-16.4v-65.1h16.4V519.3z M507,558.2h-15.8l-37.4-103.9h15.8L507,558.2z M557.2,438.5c0,3.2-2.6,5.8-5.8,5.8h-74.8h-37.1h-46.3
	h-36.4h-46.3h-37.1h-74.8c-3.2,0-5.8-2.6-5.8-5.8V217.7c0-3.2,2.6-5.8,5.8-5.8h158.2h36.4h158.2c3.2,0,5.8,2.6,5.8,5.8V438.5z"/>
<path class="st6" d="M375,702.4c-87.4,0-169.7-34.1-231.5-95.9S47.6,462.5,47.6,375c0-87.4,34.1-169.7,95.9-231.5
	s144-95.9,231.5-95.9c87.4,0,169.7,34.1,231.5,95.9s95.9,144,95.9,231.5c0,87.4-34.1,169.7-95.9,231.5S462.4,702.4,375,702.4z
	 M375,57.6C200,57.6,57.6,200,57.6,375S200,692.4,375,692.4S692.4,550,692.4,375S550,57.6,375,57.6z"/>
</svg>
