<?xml version="1.0" encoding="utf-8"?>
<!-- Generator: Adobe Illustrator 25.1.0, SVG Export Plug-In . SVG Version: 6.00 Build 0)  -->
<svg version="1.1" id="Layer_1" xmlns="http://www.w3.org/2000/svg" xmlns:xlink="http://www.w3.org/1999/xlink" x="0px" y="0px"
	 viewBox="0 0 750 750" style="enable-background:new 0 0 750 750;" xml:space="preserve">
<style type="text/css">
	.st0{fill:none;}
	.st1{fill:#B4E2F0;}
	.st2{fill:#FFFFFF;}
	.st3{fill-rule:evenodd;clip-rule:evenodd;fill:#4FBF9F;}
	.st4{fill-rule:evenodd;clip-rule:evenodd;fill:#FAD364;}
	.st5{fill-rule:evenodd;clip-rule:evenodd;fill:#23A0DB;}
	.st6{fill-rule:evenodd;clip-rule:evenodd;fill:#E66455;}
	.st7{fill-rule:evenodd;clip-rule:evenodd;fill:#E0E6E9;}
	.st8{fill-rule:evenodd;clip-rule:evenodd;fill:#DD8740;}
	.st9{fill-rule:evenodd;clip-rule:evenodd;fill:#A55826;}
</style>
<rect class="st0" width="750" height="750"/>
<circle class="st1" cx="375" cy="375" r="322.4"/>
<path class="st2" d="M551.4,449.3H198.6c-5.9,0-10.8-4.8-10.8-10.8V217.7c0-5.9,4.8-10.8,10.8-10.8h352.8c5.9,0,10.8,4.8,10.8,10.8
	v220.8C562.2,444.5,557.3,449.3,551.4,449.3z"/>
<path class="st3" d="M215.7,301.2h24.8c2,0,3.6,1,3.6,2.3v127.6h-31.9V303.5C212.2,302.2,213.7,301.2,215.7,301.2z"/>
<path class="st4" d="M265.1,272.1h24.8c2,0,3.6,1.3,3.6,2.8v156.2h-31.9V274.9C261.6,273.4,263.1,272.1,265.1,272.1z"/>
<path class="st5" d="M314.5,223.9h24.8c2,0,3.6,1.7,3.6,3.7v203.5H311V227.6C311,225.6,312.5,223.9,314.5,223.9z"/>
<path class="st6" d="M363.9,295.7h24.8c2,0,3.6,1.1,3.6,2.4v133h-31.9v-133C360.3,296.8,361.9,295.7,363.9,295.7z"/>
<rect x="417.2" y="231.3" class="st7" width="123.4" height="7.2"/>
<rect x="417.2" y="251.9" class="st7" width="123.4" height="7.2"/>
<rect x="417.2" y="272.5" class="st7" width="123.4" height="7.2"/>
<rect x="417.2" y="293.1" class="st7" width="73.6" height="7.2"/>
<rect x="452.9" y="331.6" class="st7" width="87.8" height="7.2"/>
<rect x="452.9" y="360.5" class="st7" width="87.8" height="7.2"/>
<rect x="452.9" y="389.3" class="st7" width="87.8" height="7.2"/>
<rect x="452.9" y="418.1" class="st7" width="87.8" height="7.2"/>
<rect x="415.5" y="324.8" class="st3" width="20.7" height="20.7"/>
<rect x="415.5" y="353.7" class="st4" width="20.7" height="20.7"/>
<rect x="415.5" y="382.5" class="st5" width="20.7" height="20.7"/>
<rect x="415.5" y="411.3" class="st6" width="20.7" height="20.7"/>
<rect x="361.8" y="186.9" class="st8" width="26.4" height="14.1"/>
<rect x="361.8" y="449.3" class="st9" width="26.4" height="21.2"/>
<rect x="361.8" y="201" class="st9" width="26.4" height="6"/>
<rect x="361.8" y="470.5" class="st8" width="26.4" height="53.8"/>
<polygon class="st9" points="298.4,463.1 303.4,449.3 276.9,449.3 271.9,463.1 "/>
<polygon class="st8" points="271.9,463.1 235.9,563.2 262.4,563.2 298.4,463.1 "/>
<polygon class="st9" points="451.6,463.1 446.6,449.3 473.1,449.3 478.1,463.1 "/>
<polygon class="st8" points="478.1,463.1 514.1,563.2 487.6,563.2 451.6,463.1 "/>
<rect x="0" y="0" class="st0" width="750" height="750"/>
</svg>
