<?xml version="1.0" encoding="utf-8"?>
<!-- Generator: Adobe Illustrator 25.1.0, SVG Export Plug-In . SVG Version: 6.00 Build 0)  -->
<svg version="1.1" id="Layer_1" xmlns="http://www.w3.org/2000/svg" xmlns:xlink="http://www.w3.org/1999/xlink" x="0px" y="0px"
	 viewBox="0 0 750 750" style="enable-background:new 0 0 750 750;" xml:space="preserve">
<style type="text/css">
	.st0{fill:#64798A;}
	.st1{fill:none;}
	.st2{fill-rule:evenodd;clip-rule:evenodd;fill:#64798A;}
	.st3{fill-rule:evenodd;clip-rule:evenodd;fill:#44C4A1;}
	.st4{fill:#FAD362;}
	.st5{fill:#4EBD9E;}
	.st6{fill:#E56354;}
</style>
<path class="st0" d="M375,702.4c-87.4,0-169.7-34.1-231.5-95.9S47.6,462.5,47.6,375c0-87.4,34.1-169.7,95.9-231.5
	s144-95.9,231.5-95.9c87.4,0,169.7,34.1,231.5,95.9s95.9,144,95.9,231.5c0,87.4-34.1,169.7-95.9,231.5S462.4,702.4,375,702.4z
	 M375,57.6C200,57.6,57.6,200,57.6,375S200,692.4,375,692.4S692.4,550,692.4,375S550,57.6,375,57.6z"/>
<rect class="st1" width="750" height="750"/>
<path class="st2" d="M288.6,332.6h8.2c0.7,0,1.2,0.5,1.2,1.2v43.7h-10.5v-43.7C287.4,333.2,288,332.6,288.6,332.6z"/>
<path class="st2" d="M321.5,311h8.2c0.7,0,1.2,0.5,1.2,1.2v65.3h-10.5v-65.3C320.3,311.6,320.8,311,321.5,311z"/>
<path class="st2" d="M354.4,313.1h8.2c0.7,0,1.2,0.5,1.2,1.2v63.2h-10.5v-63.2C353.2,313.6,353.8,313.1,354.4,313.1z"/>
<path class="st2" d="M387.3,275h8.2c0.7,0,1.2,0.5,1.2,1.2v101.3h-10.5V276.2C386.1,275.5,386.6,275,387.3,275z"/>
<path class="st2" d="M420.2,260.7h8.2c0.7,0,1.2,0.5,1.2,1.2v115.6H419V261.9C419,261.3,419.6,260.7,420.2,260.7z"/>
<path class="st2" d="M453.1,234.3h8.2c0.7,0,1.2,0.5,1.2,1.2v142.1H452v-142C451.9,234.8,452.4,234.3,453.1,234.3z"/>
<path class="st3" d="M294.7,321.7c-1.6,1.3-3.9,1.1-5.3-0.5c-1.3-1.6-1.1-3.9,0.5-5.3l33.1-27.3c0.9-0.7,2-1,3-0.8l30.3,4.7
	l31.6-47.9c0.6-0.9,1.5-1.5,2.5-1.6l0,0l31.8-5.6l32.3-34.3c1.4-1.5,3.8-1.6,5.3-0.2c1.5,1.4,1.6,3.8,0.2,5.3l-33,35
	c-0.6,0.7-1.3,1.1-2.2,1.3l-31.5,5.5l-32,48.5c-0.8,1.3-2.2,2-3.8,1.8l-31.1-4.8L294.7,321.7z"/>
<path class="st4" d="M241.2,424v61.7H312V424H241.2z"/>
<path class="st5" d="M339.6,424v61.7h70.8V424H339.6z"/>
<path class="st6" d="M438,424v61.7h70.8V424H438z"/>
<path class="st0" d="M397.8,547.3h-45.5c-2.3,0-4.1-1.9-4.1-4.1v-0.7c0-2.3,1.9-4.1,4.1-4.1h45.5c2.3,0,4.1,1.9,4.1,4.1v0.7
	C401.9,545.4,400,547.3,397.8,547.3z"/>
<path class="st0" d="M559.5,524.2h-9.7V295.3c0-8.7-7.1-15.8-15.8-15.8h-25.5v-97.9H241.4v97.9H216c-8.7,0-15.8,7.1-15.8,15.8v228.9
	h-9.7c-4.7,0-8.6,3.9-8.6,8.6v17.5c0,4.7,3.9,8.6,8.6,8.6h7.3c1.9,1.2,4.2,1.9,6.6,1.9h341.2c2.4,0,4.7-0.7,6.6-1.9h7.3
	c2.4,0,4.6-1,6.3-2.7c1.5-1.6,2.4-3.8,2.3-6v-17.4C568.1,528.1,564.2,524.2,559.5,524.2z M251.4,298.2v-18.7v-87.9h247.1v87.9v110.1
	H251.4V298.2z M508.5,399.6l0.1-91.4h12v198.1H229.4V308.2h12v91.4H508.5z M210.2,295.3c0-3.2,2.6-5.8,5.8-5.8h25.4v8.7h-22v218.1
	h311.2V298.2h-22.1v-8.7H534c3.2,0,5.8,2.6,5.8,5.8v228.8H210.2V295.3z M558.1,548.9H191.9v-14.7h366.2V548.9z"/>
</svg>
