<?xml version="1.0" encoding="utf-8"?>
<!-- Generator: Adobe Illustrator 25.1.0, SVG Export Plug-In . SVG Version: 6.00 Build 0)  -->
<svg version="1.1" id="Layer_1" xmlns="http://www.w3.org/2000/svg" xmlns:xlink="http://www.w3.org/1999/xlink" x="0px" y="0px"
	 viewBox="0 0 750 750" style="enable-background:new 0 0 750 750;" xml:space="preserve">
<style type="text/css">
	.st0{fill:none;}
	.st1{fill:#B1E5F2;}
	.st2{fill:#647989;}
	.st3{fill:#D3D3D8;}
	.st4{fill:#EBEFF2;}
	.st5{fill-rule:evenodd;clip-rule:evenodd;fill:#E0E5E8;}
	.st6{fill:#FFFFFF;}
	.st7{fill-rule:evenodd;clip-rule:evenodd;fill:#8CAEDB;}
	.st8{fill-rule:evenodd;clip-rule:evenodd;fill:#547EBE;}
	.st9{fill-rule:evenodd;clip-rule:evenodd;fill:#4EBD9E;}
	.st10{fill-rule:evenodd;clip-rule:evenodd;fill:#395469;}
	.st11{fill:#FAD362;}
	.st12{fill:#4EBD9E;}
	.st13{fill:#E56354;}
</style>
<rect class="st0" width="750" height="750"/>
<circle class="st1" cx="375" cy="375" r="322.4"/>
<path class="st2" d="M534,548.3H216c-5.9,0-10.8-4.8-10.8-10.8V295.3c0-5.9,4.8-10.8,10.8-10.8h318c5.9,0,10.8,4.8,10.8,10.8v242.2
	C544.8,543.4,540,548.3,534,548.3z"/>
<path class="st3" d="M193.3,553.9c2,4.1,6.2,6.9,11.1,6.9h341.2c4.9,0,9.1-2.8,11.1-6.9H193.3z"/>
<path class="st4" d="M559.5,553.9h-369c-2,0-3.6-1.6-3.6-3.6v-17.5c0-2,1.6-3.6,3.6-3.6h369c2,0,3.6,1.6,3.6,3.6v17.5
	C563.2,552.2,561.5,553.9,559.5,553.9z"/>
<path class="st2" d="M397.7,547.3h-45.5c-2.3,0-4.1-1.9-4.1-4.1v-0.7c0-2.3,1.9-4.1,4.1-4.1h45.5c2.3,0,4.1,1.9,4.1,4.1v0.7
	C401.8,545.4,399.9,547.3,397.7,547.3z"/>
<rect x="224.4" y="303.2" class="st4" width="301.2" height="208.2"/>
<rect x="237.6" y="303.8" class="st5" width="274.8" height="99.6"/>
<rect x="246.4" y="186.6" class="st6" width="257.1" height="208"/>
<path class="st7" d="M288.6,332.6h8.2c0.7,0,1.2,0.5,1.2,1.2v43.7h-10.5v-43.7C287.4,333.2,288,332.6,288.6,332.6z"/>
<path class="st8" d="M321.5,311h8.2c0.7,0,1.2,0.5,1.2,1.2v65.3h-10.5v-65.3C320.3,311.6,320.8,311,321.5,311z"/>
<path class="st7" d="M354.4,313.1h8.2c0.7,0,1.2,0.5,1.2,1.2v63.2h-10.5v-63.2C353.2,313.6,353.8,313.1,354.4,313.1z"/>
<path class="st8" d="M387.3,275h8.2c0.7,0,1.2,0.5,1.2,1.2v101.3h-10.5V276.2C386.1,275.5,386.6,275,387.3,275z"/>
<path class="st7" d="M420.2,260.7h8.2c0.7,0,1.2,0.5,1.2,1.2v115.6H419V261.9C419,261.3,419.6,260.7,420.2,260.7z"/>
<path class="st8" d="M453.1,234.3h8.2c0.7,0,1.2,0.5,1.2,1.2v142.1H452v-142C451.9,234.8,452.4,234.3,453.1,234.3z"/>
<path class="st9" d="M294.7,321.7c-1.6,1.3-3.9,1.1-5.3-0.5c-1.3-1.6-1.1-3.9,0.5-5.3l33.1-27.3c0.9-0.7,2-1,3-0.8l30.3,4.7
	l31.6-47.9c0.6-0.9,1.5-1.5,2.5-1.6l0,0l31.8-5.6l32.3-34.3c1.4-1.5,3.8-1.6,5.3-0.2c1.5,1.4,1.6,3.8,0.2,5.3l-33,35
	c-0.6,0.7-1.3,1.1-2.2,1.3l-31.5,5.5l-32,48.5c-0.8,1.3-2.2,2-3.8,1.8l-31.1-4.8L294.7,321.7z"/>
<rect x="237.6" y="284.5" class="st10" width="8.8" height="18.6"/>
<rect x="503.6" y="284.5" class="st10" width="8.8" height="18.6"/>
<g>
	<rect x="241.2" y="424.5" class="st11" width="70.8" height="61.7"/>
	<rect x="339.6" y="424.5" class="st12" width="70.8" height="61.7"/>
	<rect x="437.9" y="424.5" class="st13" width="70.8" height="61.7"/>
</g>
</svg>
