<?xml version="1.0" encoding="utf-8"?>
<!-- Generator: Adobe Illustrator 24.1.2, SVG Export Plug-In . SVG Version: 6.00 Build 0)  -->
<svg version="1.1" id="Layer_1" xmlns:xodm="http://www.corel.com/coreldraw/odm/2003"
	 xmlns="http://www.w3.org/2000/svg" xmlns:xlink="http://www.w3.org/1999/xlink" x="0px" y="0px" viewBox="0 0 200 30"
	 style="enable-background:new 0 0 200 30;" xml:space="preserve">
<style type="text/css">
	.st0{fill:#FFFFFF;}
</style>
<g>
	<path class="st0" d="M187.8,5.59c-6.74,0-12.2,5.46-12.2,12.2S181.06,30,187.8,30c2.22,0,4.31-0.6,6.1-1.64v0
		C193.9,30,200,30,200,30V17.8C200,11.06,194.54,5.59,187.8,5.59z M187.8,23.9c-3.37,0-6.1-2.73-6.1-6.1s2.73-6.1,6.1-6.1
		c3.37,0,6.1,2.73,6.1,6.1S191.17,23.9,187.8,23.9z"/>
	<path class="st0" d="M144.24,5.59c-6.74,0-12.2,5.46-12.2,12.2S137.5,30,144.24,30s12.2-5.46,12.2-12.2S150.98,5.59,144.24,5.59z
		 M144.24,23.9c-3.37,0-6.1-2.73-6.1-6.1c0-3.37,2.73-6.1,6.1-6.1c3.37,0,6.1,2.73,6.1,6.1C150.34,21.17,147.61,23.9,144.24,23.9z"
		/>
	<path class="st0" d="M83.22,5.59c-6.74,0-12.2,5.46-12.2,12.2S76.48,30,83.22,30c2.22,0,4.31-0.6,6.1-1.64v0.01
		c0,1.63,6.1,1.63,6.1,1.63V17.8h0c0,0,0,0,0,0C95.42,11.06,89.96,5.59,83.22,5.59z M83.22,23.9c-3.37,0-6.1-2.73-6.1-6.1
		c0-3.37,2.73-6.1,6.1-6.1c3.37,0,6.1,2.73,6.1,6.1C89.32,21.16,86.59,23.9,83.22,23.9z"/>
	<path class="st0" d="M113.73,5.59c-2.22,0-4.31,0.6-6.1,1.64V1.65c0-1.63-6.1-1.63-6.1-1.63v17.8h0
		c0.01,6.73,5.47,12.19,12.2,12.19c6.74,0,12.2-5.46,12.2-12.2S120.47,5.59,113.73,5.59z M113.73,23.9c-3.37,0-6.1-2.73-6.1-6.1
		c0-3.37,2.73-6.1,6.1-6.1c3.37,0,6.1,2.73,6.1,6.1C119.83,21.17,117.1,23.9,113.73,23.9z"/>
	<path class="st0" d="M39.66,5.59c-6.74,0-12.2,5.46-12.2,12.2S32.92,30,39.66,30c2.22,0,4.31-0.6,6.1-1.64v0
		c0,1.63,6.1,1.63,6.1,1.63V17.8h0C51.86,11.06,46.4,5.59,39.66,5.59z M39.66,23.9c-3.37,0-6.1-2.73-6.1-6.1
		c0-3.37,2.73-6.1,6.1-6.1c3.37,0,6.1,2.73,6.1,6.1C45.76,21.17,43.03,23.9,39.66,23.9z"/>
	<path class="st0" d="M12.2,0C5.46,0,0,5.46,0,12.2V30c0,0,6.1,0,6.1-1.63v-5.6c1.8,1.04,3.88,1.64,6.1,1.64
		c6.74,0,12.2-5.46,12.2-12.2S18.94,0,12.2,0z M12.2,18.31c-3.37,0-6.1-2.73-6.1-6.1c0-3.37,2.73-6.1,6.1-6.1
		c3.37,0,6.1,2.73,6.1,6.1C18.31,15.57,15.57,18.31,12.2,18.31z"/>
	<path class="st0" d="M57.97,17.59L57.97,17.59V30c0,0,6.1,0,6.1-1.66V17.59v0v0c0-4.49,1.45-8.63,3.9-12
		C62.28,6.63,57.97,11.61,57.97,17.59z"/>
	<path class="st0" d="M168.64,18C168.64,18,168.64,18,168.64,18L168.64,18L168.64,18l0-16.37c0-1.63-6.1-1.63-6.1-1.63v18h0
		c0,5.99,4.31,10.96,10,12C170.09,26.63,168.64,22.49,168.64,18C168.64,18,168.64,18,168.64,18z"/>
</g>
</svg>
