<?xml version="1.0" encoding="UTF-8"?>
<!DOCTYPE svg PUBLIC "-//W3C//DTD SVG 1.1//EN" "http://www.w3.org/Graphics/SVG/1.1/DTD/svg11.dtd">
<!-- Creator: CorelDRAW 2019 (64-Bit) -->
<svg xmlns="http://www.w3.org/2000/svg" xml:space="preserve" width="201px" height="36px" version="1.1" style="shape-rendering:geometricPrecision; text-rendering:geometricPrecision; image-rendering:optimizeQuality; fill-rule:evenodd; clip-rule:evenodd"
viewBox="0 0 201 35.999"
 xmlns:xlink="http://www.w3.org/1999/xlink"
 xmlns:xodm="http://www.corel.com/coreldraw/odm/2003">
 <defs>
  <style type="text/css">
   <![CDATA[
    .fil0 {fill:#FEFEFE}
   ]]>
  </style>
 </defs>
 <g id="Layer_x0020_1">
  <metadata id="CorelCorpID_0Corel-Layer"/>
  <path class="fil0" d="M138.909 0.5c4.82,0 8.727,3.837 8.727,8.571 0,4.733 -3.907,8.57 -8.727,8.57 -4.82,0 -8.727,-3.837 -8.727,-8.57 0,-4.734 3.907,-8.571 8.727,-8.571zm-132.98 34.909l-0.009 -4.202 -2.121 3.478 -0.535 0 -2.121 -3.424 0 4.148 -1.143 0 0 -6.339 0.987 0 2.563 4.202 2.517 -4.202 0.987 0 0.009 6.339 -1.134 0zm19.287 -0.987l0 0.987 -4.841 0 0 -6.339 4.712 0 0 0.987 -3.513 0 0 1.648 3.116 0 0 0.969 -3.116 0 0 1.748 3.642 0zm12.905 -5.352l2.822 0c0.689,0 1.3,0.131 1.835,0.394 0.535,0.262 0.95,0.634 1.245,1.114 0.295,0.48 0.443,1.034 0.443,1.661 0,0.628 -0.148,1.182 -0.443,1.662 -0.295,0.48 -0.71,0.851 -1.245,1.114 -0.535,0.262 -1.146,0.394 -1.835,0.394l-2.822 0 0 -6.339zm2.767 5.343c0.473,0 0.89,-0.09 1.25,-0.268 0.359,-0.178 0.636,-0.431 0.829,-0.76 0.194,-0.329 0.291,-0.711 0.291,-1.146 0,-0.434 -0.097,-0.816 -0.291,-1.145 -0.193,-0.329 -0.47,-0.583 -0.829,-0.761 -0.36,-0.178 -0.777,-0.267 -1.25,-0.267l-1.568 0 0 4.347 1.568 0zm16.419 -5.343l1.199 0 0 6.339 -1.199 0 0 -6.339zm18.696 4.872l-3.227 0 -0.636 1.467 -1.236 0 2.905 -6.339 1.18 0 2.914 6.339 -1.254 0 -0.646 -1.467zm-0.397 -0.924l-1.216 -2.771 -1.208 2.771 2.424 0zm31.234 0.924l-3.228 0 -0.636 1.467 -1.235 0 2.904 -6.339 1.181 0 2.913 6.339 -1.254 0 -0.645 -1.467zm-0.397 -0.924l-1.217 -2.771 -1.208 2.771 2.425 0zm19.001 -0.851l1.134 0 0 2.526c-0.331,0.26 -0.719,0.46 -1.161,0.598 -0.443,0.139 -0.898,0.209 -1.365,0.209 -0.658,0 -1.251,-0.141 -1.78,-0.422 -0.528,-0.28 -0.943,-0.668 -1.245,-1.164 -0.301,-0.494 -0.451,-1.053 -0.451,-1.675 0,-0.621 0.15,-1.18 0.451,-1.675 0.302,-0.495 0.719,-0.883 1.25,-1.163 0.532,-0.281 1.13,-0.421 1.793,-0.421 0.542,0 1.033,0.087 1.476,0.262 0.442,0.175 0.814,0.431 1.115,0.77l-0.756 0.724c-0.491,-0.483 -1.085,-0.724 -1.779,-0.724 -0.455,0 -0.86,0.093 -1.213,0.28 -0.353,0.187 -0.63,0.45 -0.83,0.788 -0.199,0.338 -0.3,0.725 -0.3,1.159 0,0.423 0.1,0.804 0.3,1.141 0.2,0.338 0.477,0.604 0.83,0.797 0.353,0.194 0.755,0.29 1.203,0.29 0.505,0 0.947,-0.108 1.328,-0.326l0 -1.974zm19.121 2.255l0 0.987 -4.841 0 0 -6.339 4.712 0 0 0.987 -3.513 0 0 1.648 3.116 0 0 0.969 -3.116 0 0 1.748 3.642 0zm18.641 -5.352l0 6.339 -0.986 0 -3.56 -4.292 0 4.292 -1.19 0 0 -6.339 0.987 0 3.56 4.292 0 -4.292 1.189 0zm16.29 6.43c-0.652,0 -1.24,-0.141 -1.765,-0.422 -0.526,-0.28 -0.938,-0.668 -1.236,-1.164 -0.299,-0.494 -0.447,-1.053 -0.447,-1.675 0,-0.621 0.15,-1.18 0.451,-1.675 0.301,-0.495 0.715,-0.883 1.24,-1.163 0.526,-0.281 1.115,-0.421 1.766,-0.421 0.529,0 1.012,0.09 1.448,0.271 0.437,0.181 0.805,0.444 1.107,0.788l-0.775 0.715c-0.467,-0.495 -1.042,-0.742 -1.724,-0.742 -0.443,0 -0.839,0.095 -1.19,0.285 -0.35,0.19 -0.623,0.454 -0.82,0.792 -0.197,0.338 -0.296,0.722 -0.296,1.15 0,0.429 0.099,0.812 0.296,1.151 0.197,0.337 0.47,0.602 0.82,0.792 0.351,0.19 0.747,0.285 1.19,0.285 0.682,0 1.257,-0.251 1.724,-0.752l0.775 0.725c-0.302,0.344 -0.672,0.607 -1.112,0.788 -0.439,0.181 -0.923,0.272 -1.452,0.272zm17.977 -2.328l0 2.237 -1.198 0 0 -2.219 -2.536 -4.12 1.282 0 1.89 3.088 1.909 -3.088 1.18 0 -2.527 4.102zm-92.746 -32.672l7.273 0c2.812,0 5.091,3.078 5.091,4.999 0,1.921 -0.35,2.082 -0.943,2.899 1.439,0.884 2.397,1.968 2.397,4.244 0,2.275 -2.279,4.999 -5.091,4.999l-8.727 0 0 -2.856c2.909,0 5.818,0 8.727,-0.001 1.205,0 2.182,-0.959 2.182,-2.142 0,-1.184 -0.977,-2.143 -2.182,-2.143l-8.727 0 0 -9.999zm7.273 2.857l-4.364 0 0 4.285 4.364 0c1.205,0 2.182,-0.959 2.182,-2.143 0,-1.183 -0.977,-2.142 -2.182,-2.142zm79.273 3.741l5.368 10.543 3.359 0 -8.727 -17.141 -8.728 17.141 3.36 0 5.368 -10.543zm-32.001 -6.598l2.91 0 0 14.285 8.727 0 0 2.856 -11.637 0 0 -17.141zm-74.908 6.598l5.368 10.543 3.359 0 -8.727 -17.141 -8.728 17.141 3.36 0 5.368 -10.543zm-84.364 10.543l2.909 0 0 -5.714 2.909 0c3.214,0 5.818,-2.558 5.818,-5.713 0,-3.156 -2.604,-5.714 -5.818,-5.714l-5.818 0 0 17.141zm5.818 -8.57l-2.909 0 0 -5.714 2.909 0c1.607,0 2.909,1.279 2.909,2.857 0,1.578 -1.302,2.857 -2.909,2.857zm52.364 -8.571c3.213,0 5.818,2.558 5.818,5.714 0,2.727 -1.946,5.008 -4.549,5.577l3.44 5.85 -3.359 0 -5.039 -8.571 3.689 0c1.606,0 2.909,-1.278 2.909,-2.856 0,-1.578 -1.303,-2.857 -2.909,-2.857l-7.048 0 -1.68 -2.857 8.728 0zm-26.182 6.598l5.368 10.543 3.359 0 -8.727 -17.141 -8.727 17.141 3.359 0 5.368 -10.543zm106.909 -3.741c3.213,0 5.818,2.558 5.818,5.714 0,3.155 -2.605,5.714 -5.818,5.714 -3.213,0 -5.818,-2.559 -5.818,-5.714 0,-3.156 2.605,-5.714 5.818,-5.714z"/>
 </g>
</svg>
